<?xml version="1.0" encoding="UTF-8"?>
<svg id="Capa_1" data-name="Capa 1" xmlns="http://www.w3.org/2000/svg" viewBox="0 0 1619.16 1080.92">
  <defs>
    <style>
      .cls-1 {
        fill: #757575;
      }

      .cls-2 {
        fill: #4f4f4f;
      }

      .cls-3 {
        fill: #141414;
      }

      .cls-4 {
        fill: #4a4a4a;
      }

      .cls-5 {
        fill: #121212;
      }

      .cls-6 {
        fill: #c2c2c2;
      }

      .cls-7 {
        fill: #4d4d4d;
      }

      .cls-8 {
        fill: #8f8f8f;
      }

      .cls-9 {
        fill: #fff;
      }

      .cls-10 {
        fill: #5e5e5e;
      }

      .cls-11 {
        fill: #a6a6a6;
      }

      .cls-12 {
        fill: #6e6e6e;
      }

      .cls-13 {
        fill: #424242;
      }

      .cls-14 {
        opacity: .4;
      }

      .cls-15 {
        fill: #404040;
      }

      .cls-16 {
        fill: #636363;
      }

      .cls-17 {
        fill: #b0b0b0;
      }

      .cls-18 {
        fill: #454545;
      }

      .cls-19 {
        fill: #575757;
      }

      .cls-20 {
        fill: #666;
      }

      .cls-21 {
        fill: #8c8c8c;
      }

      .cls-22 {
        fill: #969696;
      }

      .cls-23 {
        fill: #0d0d0d;
      }

      .cls-24 {
        fill: #474747;
      }

      .cls-25 {
        fill: #0f0f0f;
      }

      .cls-26 {
        fill: #595959;
      }

      .cls-27 {
        fill: #a8a8a8;
      }

      .cls-28 {
        fill: #858585;
      }

      .cls-29 {
        fill: #ebebeb;
      }

      .cls-30 {
        fill: #ccc;
      }

      .cls-31 {
        fill: #828282;
      }

      .cls-32 {
        fill: #696969;
      }

      .cls-33 {
        fill: #545454;
      }

      .cls-34 {
        fill: #6b6b6b;
      }

      .cls-35 {
        fill: #949494;
      }

      .cls-36 {
        fill: #292929;
      }

      .cls-37 {
        fill: #ababab;
      }

      .cls-38 {
        fill: gray;
      }

      .cls-39 {
        fill: #0a0a0a;
      }

      .cls-40 {
        fill: #adadad;
      }

      .cls-41 {
        fill: #a1a1a1;
      }

      .cls-42 {
        fill: #3d3d3d;
      }

      .cls-43 {
        fill: #242424;
      }

      .cls-44 {
        fill: #7a7a7a;
      }

      .cls-45 {
        fill: #d9d9d9;
      }

      .cls-46 {
        fill: #787878;
      }

      .cls-47 {
        fill: #5c5c5c;
      }

      .cls-48 {
        fill: #b5b5b5;
      }
    </style>
  </defs>
  <g class="cls-14">
    <path class="cls-8" d="M13.74,0l3.68,3.97,148.26,106.31,77.37,55.26v515.88c-4.2-6.62-10.44-10.86-18.95-9.46l-184.18,51.18c-11.22,6.59-12.93,19.95-7.36,30.22l.63,11.34c.34,6.09,7.11,11.2,13.6,9.54l20.36-5.2c.7-.18,2.62-1.88,2.57-1.99.19,2.4,5.9,4.34,8.35,4.11,7.99-.73,13.78-5.13,17-11.79l94.12-29.36c7.14,4.8,18.63-.38,22.16-7.6l15.35-4.89c3.94-1.32,5.15-8.96,3.72-12.24,5.82-1.43,10-6.03,12.64-11.4l-.02,206.74-126.6,83.35L0,1061.1V0s13.74,0,13.74,0ZM128.29,960.33l60.79-37.95c3.01-1.88,5.33-4.04,6.35-7.34l-.03-42.17c-.88-1.46-2.04-3.16-2.99-3.91-.79-.62-3.63-.12-4.53.37l-63.91,34.38c-2.69,1.45-4.3,5.19-4.3,8.12l.12,44.51c0,1.43,1.84,4.1,3.09,4.67,1.07.49,3.9.26,5.41-.68Z"/>
    <polygon class="cls-12" points="1568.94 1083.32 48.63 1083.32 51.7 1079.97 109.44 1038.19 246.54 940.56 521.63 940.95 553.35 941.11 563.36 928.72 1056.74 928.72 1066.51 941.14 1099.99 940.95 1376.06 940.84 1435.66 984.05 1564.62 1078.97 1568.94 1083.32"/>
    <path class="cls-23" d="M23.34.01l132.43,95.86,87.2,62.22.21-17.37-39.08-29.84L62.14,2.61,60.26.01h9.57s130.1,100.27,130.1,100.27l46.93,35.88,250.97.15,99.5-.78.89.74,743.1.18,34.78-.4L1561.01,1.83l1.56-1.82h10.55s-104.92,76.87-104.92,76.87l-88.57,63.79.14,17.99,74.96-50.84,119.68-81.05L1612.26.01h11.54s.12,1.09.12,1.09l-7.43,4.42-178.26,120.66-58.51,39.42v515.86c3.54-7,10.29-13.46,19.21-11.01l180.71,49.55c7.67,2.1,13,5.34,16,11.62,3.58,7.48.52,13.67-.64,20.54-6.1,5.98-13.36,8.63-21.64,6.12l-14.41-4.37c-.31,4.25-.28,9.41-1.73,12.85-1.64,3.9-7.65,4.72-11.51,3.46-6.49-2.11-11.37-6.8-13.88-12.84-1.42-3.43-1.43-7.96-1.66-12.79l-94.4-28.71-1,11.01c-.22,2.4-5.83,4.58-8.4,4.22-7.69-1.1-14.02-5.24-16.96-11.96-1.25-2.85-1.38-7.26-1.61-11.37l-18.5-5.58c-3.91-1.18-7.27-6.05-9.6-9.53l-.09,207.38,3.33,3.79-.43,4.64c.75,1.15.98,1.51.4,1.67l-3.37-2.4-.09,27.9,54.49,39.54,105.99,77.84,39.57,30.29h-10.55s-4.32-4.35-4.32-4.35l-128.96-94.92-59.6-43.21-276.08.11-33.47.2-9.78-12.42h-493.38s-10.01,12.39-10.01,12.39l-31.72-.17-275.09-.39-137.09,97.64-57.74,41.78-3.07,3.35h-11.63s170.82-122.98,170.82-122.98l35.35-24.99-.26-27.72L0,1068.46v-7.36s116.43-77.1,116.43-77.1l126.6-83.35.02-206.74c-2.64,5.37-6.82,9.97-12.64,11.4l-16.5,4.74c-.37,4.7-.82,8.79-2.58,12.39-3.53,7.22-15.02,12.41-22.16,7.6l-1.47-12.06-90.46,28.33c-.05,5.21-.5,9.58-2.19,13.08-3.22,6.65-9.01,11.06-17,11.79-2.45.22-8.16-1.71-8.35-4.11l-.97-12.12-13.28,4.19c-8.59,2.71-16.83.99-22.9-5.76-5.57-10.28-3.86-23.63,7.36-30.22l184.18-51.18c8.51-1.4,14.75,2.83,18.94,9.46V165.56s-77.36-55.26-77.36-55.26L17.42,3.98,13.74,0h9.6ZM1373.68,161.16v-19.39H249.03v19.39h1124.65ZM266.57,899.35h229.27s23.21-.1,23.21-.1h1.18c.3,0,.41-.34.98-1.35v-455.75s4.22,1.81,4.22,1.81l.02,491.1,24.35.06-.03-639.65c0-2.65.66-4.62,1.32-6.74l8.5-1.15,504.78.04c1.63,0,4.16.92,5.13,1.23.46,1.57,1.07,4.16,1.07,6.64v639.74s23.96.05,23.96.05l-.61-166.82.32-504.77c0-1.22-1.44-3.56-2.12-3.52.32-.3,1.17-1.11,1.55-.78l2.7,2.31-.09,29.23,3.27,2.3-.05,96.21c-4.82,3.03-4.9,13.75.01,17.33l.02,185.99c-3.83,1.97-3.73,5.44-3.19,9.18-.58,4.25.02,7.8,3.16,10.54l.03,60.02c-1.33-.08-2.75-.35-2.82.38l-.4,4.26c-.2,2.11,1.29,3.13,1.47,2.92l1.72-2,.03,181.93-3.47,2.88c-.77.64,2.1,2.94,3.28,3.2l.51,33.34h273.26s.26-3.38.26-3.38V166.98s-1122.78.02-1122.78.02l-1.06,1.58v730.47s17.07.3,17.07.3ZM559.27,292.75v5.13h502.18v-5.13h-502.18ZM560.08,297.35h-5.09s.07,632.66.07,632.66h5.09s-.07-632.66-.07-632.66ZM1060.28,298.15l-.06,631.9h5.08s.06-631.9.06-631.9h-5.08ZM565.39,922.89l242.64.02.06-619.5-242.64-.02-.06,619.5ZM813.82,922.91h240.77V303.37h-240.77v619.54ZM1385.83,690.99c1.11,2.43,2.96,4.48,5.64,6.09l49.15,14.14,68,20.39,63.81,20.34c4.61,1.47,9.73,2.21,13.7-.45,5.76-3.85,6.38-10.6,4.73-16.32-2-6.96-8.23-8.04-14.41-9.76l-178.58-49.55c-4.21-1.17-8.67,1.19-10.61,3.85-2.46,3.39-3.1,7.62-1.43,11.26ZM49.93,726.51c-8.52,1.02-14.8,5.95-14.8,15.17.4,3.6,2.02,7.71,4.41,9.78,2.64,2.29,7.44,4.03,11.3,2.84l128.82-39.7,49.91-15.14c5.8-1.76,9.27-6.28,8.92-12.31-.28-4.72-5.76-11.57-12.22-9.78l-176.34,49.14ZM1429.91,713.95l-16.15-4.49c-.6,4.32.89,9.33,4.15,12.38,3.05,2.85,7.38,4.27,11.86,3.56l.15-11.44ZM193.57,726.94c10.17.19,15.03-7.33,14.39-15.1l-14.85,4.37.45,10.73ZM1552.69,763.66l.21-11.81-16.6-5.36c-1.02,6.67,1.33,11.51,5.89,15.7,2.4,2.2,7.13,4.84,10.5,1.48ZM75.04,765.42c11.14,1.19,17.19-8.28,16.32-17.37l-16.7,5.16.38,12.22ZM249.04,905.23l-.02,29.45,270.9.18.02-29.45-270.9-.18ZM1100.27,905.41v29.47h273.48v-29.47h-273.48Z"/>
    <path class="cls-31" d="M702.01,0l-.36,7.3-14.56.36c-8.65.21-9.03-6.73-16.05-5.33-2.44,6.44-7.81,7.44-13.52,6.61l-14.55,5.39-8.72,4.81c-4.83,2.67-4.98,10.16-9.42,11.49l24.96.06c.72,0,3.02.71,2.55.96h-39.24c-3.61,0-8.07,1.78-9.91,4.65-4.01,6.26-2.84,12.73-.59,18.81l-.05,4.36c-2.52-.09-6.09,2-6.79,4.57l-4.13,15.12c-2.22,8.13,6.06,9.3,5.11,14.41-.24,1.28-2.24,2.77-3.96,4.12l.87,13.39-1.75,10.4c3.78,1.95,9.12,4.01,11.32,6.65l5.25,6.21h-3.72s-106.87.04-106.87.04l.63,1.02,98.83.12-99.5.78-250.97-.15-46.93-35.88L69.83,0h632.18Z"/>
    <path class="cls-31" d="M1562.57,0l-1.56,1.82-184.92,134.2-34.78.4-743.1-.18c2.09-.52,4.39-.84,6.52-.84h412.33s324.04,0,324.04,0l.66-1.06h-324.7s-11.6,0-11.6,0c3.8-3.65,9.19.46,13.85-8.24.44-1.21,4.67-1.71,5.87-1.78,4.41-5.29,11.3-10.06,14.71-7.91,3.88,2.44,1.35,8.79,4.68,10.01,1.18.43,3.53-.19,4.46-1.03,3.99-3.61-6.36-12.13-.78-15.04,5.45-2.84,18.72,4.74,19.38-.95.13-1.11-.88-3.43-.24-3.74l3.19-1.53c2.25-1.08,4.23-3.98,3.66-6.19-.81-3.11-2.96-3.89-6.61-4.21-4.15-.36-10.11-4.92-11-8.85l-1.93-8.52,4.37-5.5-7.49-5.17c1.03-4.12.46-7.49-2.21-10.26-.45-4.33-3.05-7.17-7.34-8.3-2.05-5.46-8.36-5.56-11.7-3.45-.79.5-3.1,1.15-3.28,1.18l-1.6,4.98-1.01-10.61c-.64-5.14-6.72-7.54-11.54-7.55l-41.31-.03,1.12-.96,27.7-.16-4.22-1.63c-.82-.32-.4-3.2-.97-3.89l-7.05-8.56-7.51-6.48-11.26-5.79c-1.21-.62-3-3.01-3.08-4.2h596.25Z"/>
    <path class="cls-8" d="M966.32,0c.09,1.19,1.88,3.58,3.08,4.2l11.26,5.79,7.51,6.48,7.05,8.56c.56.69.14,3.57.97,3.89l4.22,1.63-27.7.16-1.12.96h-319.25c.46-.26-1.84-.97-2.55-.97l-24.96-.06c4.44-1.32,4.59-8.82,9.42-11.49l8.72-4.81,14.55-5.39c5.71.83,11.08-.17,13.52-6.61,7.02-1.4,7.4,5.54,16.05,5.33l14.56-.36.36-7.3h264.31Z"/>
    <polygon class="cls-47" points="1382.9 910.15 1477.14 973.17 1617.7 1067.09 1623.92 1070.77 1623.91 1083.32 1579.49 1083.32 1539.92 1053.03 1433.93 975.19 1379.43 935.65 1379.53 907.75 1382.9 910.15"/>
    <polygon class="cls-26" points="37 1083.32 0 1083.32 0 1068.46 242.91 907.62 243.17 935.35 207.82 960.34 37 1083.32"/>
    <polygon class="cls-19" points="1612.26 .01 1574.4 26.76 1454.72 107.81 1379.76 158.66 1379.63 140.67 1468.19 76.88 1573.11 0 1612.26 .01"/>
    <polygon class="cls-26" points="60.26 .01 62.14 2.61 204.1 110.88 243.18 140.72 242.97 158.09 155.77 95.87 23.34 .01 60.26 .01"/>
    <path class="cls-35" d="M1623.92,1063.48l-117.61-78.27-119.95-79.65c-.99-.66-2.85-1.06-3.43-1.72l-3.33-3.79.09-207.38c2.33,3.47,5.7,8.35,9.6,9.53-1.25,4.19,1.82,8.38,6.5,8.52l1.87,5.68,11.74,2.76c2.94,6.71,9.27,10.86,16.96,11.96,2.57.37,8.18-1.81,8.4-4.22l2.96,2.24,90.8,28.59,3.29-.34c2.51,6.04,7.39,10.72,13.88,12.84,3.86,1.26,9.87.44,11.51-3.46l22.3,6.92c8.5,2.51,17.15-9.61,15.49-21.51,1.15-6.87,4.21-13.06.64-20.54-3-6.28-8.33-9.51-16-11.62l-180.71-49.55c-8.92-2.45-15.67,4.02-19.21,11.01V165.59s58.52-39.42,58.52-39.42L1616.49,5.51l7.43-4.42v1062.38Z"/>
    <rect class="cls-20" x="1100.27" y="905.41" width="273.48" height="29.47"/>
    <rect class="cls-20" x="369.75" y="784.6" width="29.45" height="270.9" transform="translate(-535.83 1303.91) rotate(-89.96)"/>
    <path class="cls-47" d="M1060.41,161.16l-5.32-1.75c-3.86-.74-1.27-7.24.31-9.51l4.2-6.03,110.22.02.67-1.05-150.15.32-308.83-.33h-170.22s-276.12,0-276.12,0l.71,1.02,15.83.11c3.95,5.76,2.98,11.93-.41,17.2h779.1Z"/>
    <path class="cls-10" d="M541.3,142.83l1.2,1.06h90.32c1.02,1.79,2.03,3.75,3.15,3.65l4.71-.39,7.72,6.5c1.37,1.12-.66,5.12-2.34,5.77-2.48.95-4.85-.58-6.83-2.25l-5.86-4.95c-5.15,3.85-11.56.05-12.21,2.41l-1.4,5.11-16.84.02c-.61,0-3.09.84-2.41,1.4H249.03v-19.39h1124.65v19.39H281.31c3.39-5.27,4.36-11.44.41-17.2l-15.83-.11-.71-1.02h276.12Z"/>
    <path class="cls-12" d="M1020.36,143.16l-21.37.95-.47,8,.48,9.06h-264.44l4.72-2.99c-4.4-8.14-12.14-14.09-21.42-14.44l-6.34-.91,308.83.33Z"/>
    <g>
      <polygon class="cls-31" points="808.08 316.25 808.03 922.92 565.39 922.89 565.44 316.32 808.08 316.25"/>
      <polygon class="cls-28" points="1054.58 316.28 1054.58 922.91 813.82 922.91 813.82 304.69 815.15 305.74 815.12 316.56 1054.58 316.28"/>
      <path class="cls-20" d="M551.09,288.73c-.66,2.12-1.32,4.09-1.32,6.74l.03,639.65-24.35-.06-.02-491.1.09-129.71,2.93-13.59c.98-.46,3.21-1.27,3.12-2.05l-.4-3.75c-.15-1.35,1.37-4.58,2.78-4.56l6.41.11,2.61-5.58,11.58.35-3.45,3.55Z"/>
      <path class="cls-32" d="M1092.12,260.17c.68-.04,2.12,2.31,2.12,3.52l-.32,504.77-.93-506.9-34.36-.3c.53,4.93,1.87,6.08,4.48,7.96l3.85,3.52c.98.89,4.91-.14,6.94-.5l-1.95,9.17-5.37,4.55c1.63,1.39,2.73,2.19,2.93,2.87-.97-.31-3.5-1.23-5.13-1.23l-504.78-.04-8.5,1.15,3.45-3.55-11.58-.35-2.61,5.58-6.41-.11c-1.4-.02-2.92,3.21-2.78,4.56l.4,3.75c.08.79-2.14,1.59-3.12,2.05l-2.93,13.59.25-54.08h566.35Z"/>
      <path class="cls-20" d="M1093.92,768.46l.61,166.82-23.95-.05V295.48c-.01-2.48-.62-5.08-1.08-6.64-.2-.68-1.29-1.48-2.93-2.87l5.37-4.55,1.95-9.17c-2.03.36-5.97,1.39-6.94.5l-3.85-3.52c-2.6-1.88-3.94-3.03-4.48-7.96l34.36.3.93,506.9Z"/>
      <path class="cls-3" d="M526.42,255.1l4.46,1.3-3.75,2.74,23.29.08-.44-3.42,8.15,1.03c2.3.29,5.29-.5,7.86-.51l102.28-.25-6.87,2.91,20.9.27-1.16-3.24h70.3s-.26,3.11-.26,3.11h34.52s-2.38-3.05-2.38-3.05l12.48.13-.24,2.94,30.5.09-1.14-3.19,55.33-.04-.14,3.19,25.68-.03-2.03-3.14,188.18-.02c3.9,0,6.23,3.04,6.42,6.27l.63,10.79.72-11.09.82,4.91-.7,632.52-.51-33.34c-1.18-.27-4.05-2.56-3.28-3.2l3.47-2.88-.03-181.93-1.72,2c-.19.22-1.67-.81-1.47-2.92l.4-4.26c.07-.73,1.49-.46,2.82-.38l-.03-60.02c-3.13-2.74-3.74-6.29-3.16-10.54-.53-3.74-.64-7.22,3.19-9.18l-.02-185.99c-4.91-3.58-4.83-14.3-.01-17.33l.05-96.21-3.27-2.3.09-29.23-2.7-2.31c-.38-.33-1.23.48-1.55.78h-566.35s-.25,54.07-.25,54.07l-.09,129.71-4.22-1.81v-179.44s-1.11-.26-1.11-.26c.05-3.39,2.93-7.25,6.31-7.33Z"/>
      <rect class="cls-47" x="746.84" y="611.56" width="631.9" height="5.08" transform="translate(448.59 1676.83) rotate(-89.99)"/>
      <rect class="cls-33" x="555.02" y="297.35" width="5.09" height="632.66"/>
      <polygon class="cls-12" points="808.08 316.25 565.44 316.32 565.44 303.4 808.09 303.42 808.08 316.25"/>
      <polygon class="cls-12" points="1054.58 316.28 815.12 316.56 815.15 305.74 813.82 304.69 813.82 303.37 1054.58 303.37 1054.58 316.28"/>
      <rect class="cls-7" x="559.27" y="292.75" width="502.18" height="5.13"/>
    </g>
    <path class="cls-20" d="M711.52,142.83l6.34.91c9.28.34,17.03,6.3,21.42,14.44l-4.72,2.99h-134.04c-.68-.57,1.8-1.4,2.41-1.4l16.84-.02,1.4-5.11c.65-2.36,7.05,1.44,12.21-2.41l5.86,4.95c1.98,1.67,4.35,3.2,6.83,2.25,1.68-.65,3.71-4.65,2.34-5.77l-7.72-6.5-4.71.39c-1.12.09-2.13-1.86-3.15-3.65h-90.32s-1.2-1.06-1.2-1.06h170.22Z"/>
    <path class="cls-5" d="M1623.92,1063.48v7.29s-6.22-3.67-6.22-3.67l-140.56-93.92-94.24-63.02c.58-.17.35-.52-.4-1.67l.43-4.64c.58.66,2.44,1.06,3.43,1.72l119.95,79.65,117.61,78.27Z"/>
    <path class="cls-16" d="M1060.41,161.16h-61.42l-.48-9.06.47-8,21.37-.95,150.15-.32-.67,1.05-110.22-.02-4.2,6.03c-1.58,2.27-4.17,8.77-.31,9.51l5.32,1.75Z"/>
    <g>
      <path class="cls-34" d="M1576.45,725.44c-7.14,4.69-10.96,11.57-9.19,20.73l-21.7-7.29-7.13-1.68-27.64-9.12-2.18,3.55-68-20.39,4.96-1.35-47.88-15.8-11.87-3.07c-1.67-3.64-1.03-7.87,1.43-11.26,1.94-2.67,6.4-5.02,10.61-3.85l178.58,49.55Z"/>
      <path class="cls-44" d="M1531.81,757.38l-3.29.34-90.8-28.59-2.96-2.24,1-11.01,94.4,28.71c.23,4.83.23,9.37,1.66,12.79Z"/>
      <path class="cls-26" d="M1508.61,731.62l2.18-3.55,27.64,9.12,7.13,1.68,21.7,7.29c-1.77-9.16,2.05-16.04,9.19-20.73,6.18,1.71,12.4,2.8,14.41,9.76,1.65,5.72,1.03,12.47-4.73,16.32-3.97,2.65-9.09,1.92-13.7.45l-63.81-20.34Z"/>
      <path class="cls-44" d="M1557.2,766.76c1.45-3.45,1.43-8.6,1.73-12.85l14.41,4.37c8.29,2.51,15.54-.13,21.64-6.12,1.67,11.9-6.99,24.02-15.49,21.51l-22.3-6.92Z"/>
      <path class="cls-24" d="M1552.69,763.66c-3.37,3.36-8.1.72-10.5-1.48-4.56-4.19-6.92-9.03-5.89-15.7l16.6,5.36-.21,11.81Z"/>
      <path class="cls-47" d="M1440.62,711.22l-49.15-14.14c-2.68-1.61-4.53-3.66-5.64-6.09l11.87,3.07,47.88,15.8-4.96,1.35Z"/>
      <path class="cls-24" d="M1429.91,713.95l-.15,11.44c-4.48.71-8.81-.71-11.86-3.56-3.26-3.04-4.74-8.06-4.15-12.38l16.15,4.49Z"/>
      <path class="cls-38" d="M1409.4,719.15l-11.74-2.76-1.87-5.68c-4.67-.14-7.75-4.33-6.5-8.52l18.5,5.58c.23,4.11.36,8.52,1.61,11.37Z"/>
    </g>
    <g>
      <path class="cls-1" d="M189.18,730.04l-94.12,29.36c1.69-3.5,2.14-7.88,2.19-13.08l90.46-28.33,1.47,12.06Z"/>
      <path class="cls-44" d="M69.72,767.07c.06.11-1.87,1.81-2.57,1.99l-20.36,5.2c-6.49,1.66-13.26-3.45-13.6-9.54l-.63-11.34c6.08,6.75,14.31,8.47,22.9,5.76l13.28-4.19.97,12.12Z"/>
      <path class="cls-1" d="M230.41,705.31c1.43,3.29.21,10.92-3.72,12.24l-15.35,4.89c1.76-3.6,2.2-7.68,2.58-12.39l16.5-4.74Z"/>
      <path class="cls-34" d="M179.66,714.59c-2.35-1.3-5.16-1.21-8.07-.32l-23.71,7.29-33.93,9.55-11.4,4.14-42.78,13.8c2.62-10.93-1.51-18.73-9.84-22.56l176.34-49.14c6.46-1.8,11.94,5.05,12.22,9.78.35,6.03-3.12,10.55-8.92,12.31l-49.91,15.14Z"/>
      <path class="cls-10" d="M179.66,714.59l-128.82,39.7c-3.86,1.19-8.66-.55-11.3-2.84-2.39-2.07-4.01-6.18-4.41-9.78,0-9.21,6.28-14.15,14.8-15.17,8.32,3.83,12.46,11.63,9.84,22.56l42.78-13.8,11.4-4.14,33.93-9.55,23.71-7.29c2.91-.89,5.72-.99,8.07.32Z"/>
      <path class="cls-24" d="M75.04,765.42l-.38-12.22,16.7-5.16c.87,9.1-5.18,18.56-16.32,17.37Z"/>
      <path class="cls-7" d="M193.57,726.94l-.45-10.73,14.85-4.37c.64,7.78-4.22,15.3-14.39,15.1Z"/>
    </g>
    <path class="cls-8" d="M604.74,134.35v1.07c-2.13,0-4.44.32-6.52.84l-.89-.74-98.83-.12-.63-1.02,106.87-.04Z"/>
    <path class="cls-35" d="M1001.66,102.71l-4.17,1.31-1.83,4.05c-.35.77-3.08.62-3.91.78l-8.9,1.69c-3.15.6-5.81,2.47-8.62,4.26l-5.99,2.11c-1.02,4.69-2.82,9.37-5.34,12.69l-7.63,4.7,50.2.07h11.6s0,1.06,0,1.06h-412.33s0-1.07,0-1.07h3.72s222.66,0,222.66,0l-11.75-7.77-11.9,2.1c-4.35.77-4.79.84-8.52-.31l-15.27-4.7c-2.62-.81-4.26-2.5-6.1-4.83-5.21-1.19-17.48,1.36-21.05,3.23-8.61,4.52-19.31,5.84-26.58.16l-5.13,11.16-7.93-3.35,2.43-7.1,4.97-4.45c-3.9-3.38-7.51-5.7-11.79-3.29-3.33,2.8-6.92,3.28-11.44,2.24-3.99,1.84-9.69,5.12-14.06,3.74l-28.76-9.06c-5.73,1.48-11.56,1.65-16.44-1.01-3.23-1.57-4.88-3.74-5.59-7.3l-11.55-.77,34.97-.08c3.44.04,5.25.46,8.84-.39l333.19.14Z"/>
    <path class="cls-25" d="M652.34,31.67h319.25s41.31.04,41.31.04c4.82,0,10.9,2.41,11.54,7.55l1.01,10.61-16.42,43.7c-1.44,3.82-4.37,7.2-7.37,9.14l-333.19-.14c-3.59.86-5.39.43-8.84.39l-34.97.08c-3.56-2.81-6.22-5.15-7.79-9.39l-14.27-38.52c-2.25-6.08-3.42-12.55.59-18.81,1.84-2.87,6.3-4.65,9.91-4.65h39.24ZM606.6,36.79v7.07s412.92.04,412.92.04v-7.07s-412.92-.04-412.92-.04ZM627.82,96.28h370.68c2.79-.58,3.63-2.08,4.5-4.43l15.74-42.56-410.78-.06,14.91,42.71c.8,2.29,2.29,3.82,4.94,4.33Z"/>
    <path class="cls-8" d="M624.66,103.04l11.55.77c.71,3.56,2.36,5.73,5.59,7.3,4.88,2.67,10.71,2.49,16.44,1.01l28.76,9.06c4.37,1.38,10.07-1.9,14.06-3.74,4.52,1.04,8.1.57,11.44-2.24,4.28-2.42,7.89-.09,11.79,3.29l-4.97,4.45-2.43,7.1,7.93,3.35,5.13-11.16c7.27,5.68,17.96,4.36,26.58-.16,3.58-1.88,15.85-4.42,21.05-3.23,1.84,2.33,3.48,4.02,6.1,4.83l15.27,4.7c3.73,1.15,4.18,1.08,8.52.31l11.9-2.1,11.75,7.77h-222.66s-5.25-6.21-5.25-6.21c-2.19-2.64-7.54-4.7-11.32-6.65l1.75-10.4-.87-13.39c1.73-1.35,3.72-2.84,3.96-4.12.95-5.11-7.33-6.28-5.11-14.41l4.13-15.12c.7-2.58,4.27-4.67,6.79-4.57l.05-4.36,14.27,38.52c1.57,4.24,4.23,6.58,7.79,9.39Z"/>
    <path class="cls-21" d="M1005.47,134.37l-50.2-.07,7.63-4.7c2.52-3.32,4.32-8,5.34-12.69l5.99-2.11c2.82-1.78,5.47-3.66,8.62-4.26l8.9-1.69c.83-.16,3.56,0,3.91-.78l1.83-4.05,4.17-1.31c2.99-1.95,5.93-5.32,7.37-9.14l16.42-43.7,1.6-4.98c.18-.02,2.49-.68,3.28-1.18,3.35-2.11,9.65-2.01,11.7,3.45,4.29,1.13,6.9,3.97,7.34,8.3,2.67,2.77,3.25,6.14,2.21,10.26l7.49,5.17-4.37,5.5,1.93,8.52c.89,3.93,6.85,8.49,11,8.85,3.65.32,5.8,1.09,6.61,4.21.57,2.21-1.41,5.11-3.66,6.19l-3.19,1.53c-.64.31.37,2.63.24,3.74-.66,5.69-13.94-1.89-19.38.95-5.58,2.91,4.77,11.42.78,15.04-.93.84-3.29,1.47-4.46,1.03-3.33-1.22-.81-7.56-4.68-10.01-3.42-2.16-10.31,2.62-14.71,7.91-1.2.07-5.42.57-5.87,1.78-4.66,8.7-10.05,4.59-13.85,8.24Z"/>
    <polygon class="cls-21" points="1017.07 135.42 1017.07 134.37 1341.77 134.37 1341.11 135.43 1017.07 135.42"/>
    <polygon class="cls-37" points="1126.2 425.38 1127.06 611.99 1127.33 627.2 1127.21 635.06 1126.14 721.47 1126.2 425.38"/>
    <path class="cls-40" d="M452.34,509.24l-.02-139.21.02,139.21Z"/>
    <polygon class="cls-37" points="1256.56 721.99 1257.05 589.27 1258.11 589.27 1258.11 724.62 1256.56 721.99"/>
    <path class="cls-45" d="M998.5,96.28l-1.76-1.06h-367.39s-1.54,1.06-1.54,1.06c-2.65-.52-4.14-2.05-4.94-4.33l-14.91-42.71,410.78.06-15.74,42.56c-.87,2.36-1.71,3.86-4.5,4.43Z"/>
    <rect class="cls-12" x="809.52" y="-166.11" width="7.07" height="412.92" transform="translate(772.64 853.4) rotate(-89.99)"/>
    <polygon class="cls-29" points="998.5 96.28 627.82 96.28 629.36 95.22 996.75 95.22 998.5 96.28"/>
    <g>
      <path class="cls-25" d="M452.32,370.03l.02,139.21-6.15,4.22h-104.67c-4.17-.1-6.17-2.79-6.17-6.8v-135.1c0-2.51,2.73-6.31,5.24-6.31l105.35.05c1.85,0,4.44,4.09,6.38,4.73ZM340.76,370.74v137.2s104.75,0,104.75,0v-137.2s-104.75,0-104.75,0Z"/>
      <path class="cls-20" d="M340.76,370.74h104.76s0,137.21,0,137.21h-104.76s0-137.21,0-137.21ZM349.95,380.03v118.85s86.33,0,86.33,0v-118.85s-86.33,0-86.33,0Z"/>
      <path class="cls-6" d="M349.95,380.03h86.34s0,118.86,0,118.86h-86.34s0-118.86,0-118.86ZM363.94,418.53l14.41-.39,41.51-.17c1.54,0,1.97-5.2.63-6.42l-27.69-.22-.07-7.72,19.22.11.46-7.12-27.62-.07c0-.37-2.31-.86-3.07-.85l-18.02.22.23,22.63ZM421.99,439.74c.97-1.28,1.85-3.1,1.51-4.01s-2.54-2-3.63-2.2l-53.13-.02c-1.21.11-3.71,1.72-3.58,2.82.14,1.1,1.65,2.86,2.72,3.49l56.11-.07ZM422.79,462.31c1.73-2.92.38-7.42-1.92-7.43l-53.06-.26c-2.39-.01-4.44,1.68-4.45,3.99,0,1.55,2.46,3.69,4.49,3.7h54.94ZM412.06,480.85c.71-1.55.21-5.86-1.01-6.08l-43.03-.46c-1.69-.02-4.11,1.27-4.37,2.47-.27,1.24.98,3.73,2.09,4.54l46.32-.47Z"/>
      <path class="cls-44" d="M384.8,396.53l27.62.07-.46,7.12-19.22-.11.07,7.72,27.69.22c1.35,1.23.91,6.42-.63,6.42l-41.51.17-4.25-5.47.45-10.33c.23-5.72,6.58-5.83,10.24-5.82ZM381.58,411.41c2.98-.02,5.94-2.18,5.63-3.64-.33-1.56-1.44-3.62-2.4-4.48-.96-.86-4.52-.2-5.19.9-1.35,2.2-.12,7.23,1.96,7.22Z"/>
      <path class="cls-46" d="M422.79,462.31h-54.94c-2.03,0-4.49-2.15-4.49-3.7,0-2.31,2.06-4,4.45-3.99l53.06.26c2.3.01,3.65,4.5,1.92,7.43Z"/>
      <path class="cls-1" d="M421.99,439.74l-56.11.07c-1.06-.63-2.58-2.39-2.72-3.49-.14-1.1,2.36-2.71,3.58-2.82l53.13.02c1.09.2,3.29,1.29,3.63,2.2s-.54,2.73-1.51,4.01Z"/>
      <path class="cls-1" d="M412.06,480.85l-46.32.47c-1.11-.81-2.36-3.3-2.09-4.54.26-1.2,2.68-2.49,4.37-2.47l43.03.46c1.22.22,1.71,4.53,1.01,6.08Z"/>
      <path class="cls-35" d="M384.8,396.53c-3.66,0-10.01.1-10.24,5.82l-.45,10.33c-2.15-2.65-.1-10.52-1.53-10.52h-3.53s-.89,15.76-.89,15.76l-4.21.62-.23-22.63,18.02-.22c.76,0,3.07.48,3.07.85Z"/>
      <path class="cls-40" d="M374.1,412.67l4.25,5.47-14.41.39,4.21-.62.89-15.75h3.53c1.43,0-.62,7.86,1.53,10.51Z"/>
      <path class="cls-48" d="M381.58,411.41c-2.08.01-3.3-5.02-1.96-7.22.67-1.1,4.23-1.76,5.19-.9.96.86,2.07,2.92,2.4,4.48.31,1.46-2.65,3.62-5.63,3.64Z"/>
    </g>
    <g>
      <path class="cls-25" d="M128.29,960.33c-1.5.94-4.33,1.17-5.41.68-1.25-.58-3.09-3.24-3.09-4.67l-.12-44.51c0-2.93,1.61-6.68,4.3-8.12l63.91-34.38c.9-.48,3.73-.99,4.53-.37.95.75,2.12,2.45,2.99,3.91l.03,42.17c-1.02,3.3-3.35,5.46-6.35,7.34l-60.79,37.95ZM190.05,915.39l-.11-40.87-64.55,35.02.06,46,64.6-40.14Z"/>
      <path class="cls-26" d="M190.05,915.39l-64.6,40.14-.06-46,64.55-35.02.11,40.87ZM183.83,911.39l-.14-23.17c0-1.12-2.67-2.7-3.34-2.08-.49.45-1.73,2.16-1.74,3.04l-.19,21.7c-.01,1.42,1.63,3.79,2.71,3.7.86-.07,2.71-2.21,2.71-3.19ZM173.06,917.89l-.11-24.34c0-.9-2.43-2.3-3.04-1.78-.46.4-2.1,2.17-2.1,2.83l.15,25.23c0,.88,2.92,1.81,3.42,1.25.5-.56,1.68-2.34,1.68-3.2ZM161.32,923.91l-.37-24.6c-3.03-.45-5.21,1.5-5.15,4.49l.5,22.56c.02,1.03,3.03,1.92,3.53,1.21.37-.53,1.51-2.6,1.49-3.66ZM150.69,931.13l-.29-25.81c-1.03-.3-3.07-.26-3.81.34-.59.49-1.39,2.5-1.39,3.43l.1,21.79c0,1.07,1.25,3.21,2.17,3.66s3.23-2.35,3.21-3.41ZM139.56,938.64l-.31-25.96c-.01-1.24-3.23-1.83-3.84-1.06-.48.61-1.61,2.73-1.61,3.55v25c.01,1.04,3.28,2.11,3.93,1.51.48-.45,1.84-2.21,1.83-3.04Z"/>
      <path class="cls-3" d="M150.69,931.13c.01,1.05-2.3,3.85-3.21,3.41s-2.17-2.59-2.17-3.66l-.1-21.79c0-.93.8-2.95,1.39-3.43.73-.61,2.78-.64,3.81-.34l.29,25.81Z"/>
      <path class="cls-5" d="M139.56,938.64c0,.83-1.34,2.59-1.83,3.04-.65.61-3.91-.47-3.91-1.51v-25c-.01-.82,1.12-2.95,1.6-3.55.61-.77,3.82-.18,3.84,1.06l.31,25.96Z"/>
      <path class="cls-3" d="M173.06,917.89c0,.85-1.18,2.64-1.68,3.2-.49.56-3.41-.37-3.42-1.25l-.15-25.23c0-.66,1.63-2.43,2.1-2.83.61-.53,3.04.88,3.04,1.78l.11,24.34Z"/>
      <path class="cls-25" d="M183.83,911.39c0,.99-1.84,3.12-2.71,3.19-1.08.09-2.72-2.29-2.71-3.7l.19-21.7c0-.88,1.25-2.58,1.74-3.04.67-.62,3.33.96,3.34,2.08l.14,23.17Z"/>
      <path class="cls-39" d="M161.32,923.91c.02,1.06-1.13,3.14-1.49,3.66-.5.71-3.51-.18-3.53-1.21l-.5-22.56c-.07-2.99,2.12-4.94,5.15-4.49l.37,24.6Z"/>
    </g>
    <g>
      <path class="cls-25" d="M1256.87,425.7l.19,163.57-.49,132.72c-1.24,7.27-6.59,12.27-14.33,12.26l-102.49-.1c-7.18,0-9.97-8.09-13.59-12.68l1.07-86.41.12-7.87-.27-15.21-.86-186.61c3.33-7.21,8.54-12.55,16.6-12.54l99.5.08c6.8,0,14.56,5.32,14.57,12.78ZM1133.2,418.61l-.07,309.99,117.94.03.07-309.99-117.94-.03Z"/>
      <path class="cls-20" d="M1133.2,418.61l117.94.03-.07,309.99-117.94-.03.07-309.99ZM1224.81,485.74c2.64-.55,5.25-3.06,5.25-5.24v-29.91c0-4.03-2.76-6.6-6.81-6.6h-62.43c-3.89,0-6.61,2.76-6.61,6.61v29.82c0,2.8,2.68,5.34,5.5,5.34l65.1-.03ZM1187.57,524.14c0-10.52-8.53-19.05-19.04-19.05s-19.04,8.53-19.04,19.05,8.53,19.05,19.04,19.05,19.04-8.53,19.04-19.05ZM1235.4,524.1c0-10.42-8.44-18.87-18.86-18.87s-18.86,8.45-18.86,18.87,8.44,18.87,18.86,18.87,18.86-8.45,18.86-18.87ZM1187.4,573.67c0-10.44-8.46-18.91-18.9-18.91s-18.9,8.47-18.9,18.91,8.46,18.91,18.9,18.91,18.9-8.47,18.9-18.91ZM1235.27,573.55c0-10.37-8.4-18.78-18.76-18.78s-18.76,8.41-18.76,18.78,8.4,18.78,18.76,18.78,18.76-8.41,18.76-18.78ZM1187.45,622.84c0-10.47-8.48-18.95-18.94-18.95s-18.94,8.49-18.94,18.95,8.48,18.95,18.94,18.95,18.94-8.49,18.94-18.95ZM1235.32,622.75c0-10.4-8.42-18.83-18.81-18.83s-18.81,8.43-18.81,18.83,8.42,18.83,18.81,18.83,18.81-8.43,18.81-18.83ZM1187.33,680.81c0-10.4-8.42-18.82-18.81-18.82s-18.81,8.43-18.81,18.82,8.42,18.82,18.81,18.82,18.81-8.43,18.81-18.82ZM1235.23,680.69c0-10.34-8.37-18.72-18.7-18.72s-18.7,8.38-18.7,18.72,8.37,18.72,18.7,18.72,18.7-8.38,18.7-18.72Z"/>
      <path class="cls-5" d="M1235.32,622.75c0,10.4-8.42,18.83-18.81,18.83s-18.81-8.43-18.81-18.83,8.42-18.83,18.81-18.83,18.81,8.43,18.81,18.83ZM1229.98,622.7c0-7.41-6.01-13.42-13.41-13.42s-13.41,6.01-13.41,13.42,6.01,13.42,13.41,13.42,13.41-6.01,13.41-13.42Z"/>
      <path class="cls-5" d="M1235.27,573.55c0,10.37-8.4,18.78-18.76,18.78s-18.76-8.41-18.76-18.78,8.4-18.78,18.76-18.78,18.76,8.41,18.76,18.78ZM1230.05,573.5c0-7.47-6.05-13.52-13.52-13.52s-13.52,6.05-13.52,13.52,6.05,13.52,13.52,13.52,13.52-6.05,13.52-13.52Z"/>
      <path class="cls-25" d="M1187.57,524.14c0,10.52-8.53,19.05-19.04,19.05s-19.04-8.53-19.04-19.05,8.53-19.05,19.04-19.05,19.04,8.53,19.04,19.05ZM1182.3,523.97c0-7.67-6.21-13.88-13.87-13.88s-13.87,6.21-13.87,13.88,6.21,13.88,13.87,13.88,13.87-6.21,13.87-13.88Z"/>
      <path class="cls-25" d="M1235.4,524.1c0,10.42-8.44,18.87-18.86,18.87s-18.86-8.45-18.86-18.87,8.44-18.87,18.86-18.87,18.86,8.45,18.86,18.87ZM1230.09,524.02c0-7.52-6.09-13.62-13.61-13.62s-13.61,6.1-13.61,13.62,6.09,13.62,13.61,13.62,13.61-6.1,13.61-13.62Z"/>
      <path class="cls-5" d="M1187.45,622.84c0,10.47-8.48,18.95-18.94,18.95s-18.94-8.49-18.94-18.95,8.48-18.95,18.94-18.95,18.94,8.49,18.94,18.95ZM1182.24,622.81c0-7.57-6.13-13.71-13.7-13.71s-13.7,6.14-13.7,13.71,6.13,13.71,13.7,13.71,13.7-6.14,13.7-13.71Z"/>
      <path class="cls-5" d="M1187.33,680.81c0,10.4-8.42,18.82-18.81,18.82s-18.81-8.43-18.81-18.82,8.42-18.82,18.81-18.82,18.81,8.43,18.81,18.82ZM1182.13,680.73c0-7.5-6.08-13.58-13.57-13.58s-13.57,6.08-13.57,13.58,6.08,13.58,13.57,13.58,13.57-6.08,13.57-13.58Z"/>
      <path class="cls-5" d="M1187.4,573.67c0,10.44-8.46,18.91-18.9,18.91s-18.9-8.47-18.9-18.91,8.46-18.91,18.9-18.91,18.9,8.47,18.9,18.91ZM1182.14,573.52c0-7.57-6.13-13.71-13.7-13.71s-13.7,6.14-13.7,13.71,6.13,13.71,13.7,13.71,13.7-6.14,13.7-13.71Z"/>
      <path class="cls-25" d="M1235.23,680.69c0,10.34-8.37,18.72-18.7,18.72s-18.7-8.38-18.7-18.72,8.37-18.72,18.7-18.72,18.7,8.38,18.7,18.72ZM1230,680.64c0-7.47-6.06-13.53-13.52-13.53s-13.52,6.06-13.52,13.53,6.06,13.53,13.52,13.53,13.52-6.06,13.52-13.53Z"/>
      <g>
        <path class="cls-25" d="M1224.81,485.74l-65.1.03c-2.81,0-5.5-2.54-5.5-5.34v-29.82c0-3.85,2.72-6.61,6.62-6.61h62.43c4.06,0,6.81,2.57,6.81,6.59v29.91c0,2.18-2.6,4.69-5.25,5.24ZM1224.55,449.39l-65.03.06.03,30.99,65.03-.06-.03-30.99Z"/>
        <rect class="cls-13" x="1159.53" y="449.42" width="65.03" height="30.99"/>
      </g>
      <path class="cls-2" d="M1229.98,622.7c0,7.41-6.01,13.42-13.41,13.42s-13.41-6.01-13.41-13.42,6.01-13.42,13.41-13.42,13.41,6.01,13.41,13.42ZM1221.96,630.77c.31.02.46-2.22.15-2.23l-7.63-.35,5.44-5.36c1.25-1.23,1.75-5.09.81-6.81-.79-1.45-3.51-2.17-5.59-1.67s-4,3.18-3.26,4.98l4.1-3.14c.63-.49,2.2.21,2.8.74s.38,3.19-.2,3.84l-8.19,9.28,11.57.72Z"/>
      <path class="cls-2" d="M1230.05,573.5c0,7.47-6.05,13.52-13.52,13.52s-13.52-6.05-13.52-13.52,6.05-13.52,13.52-13.52,13.52,6.05,13.52,13.52ZM1218.81,581.8l4.04-4.93c-4.96-2.44-1.3-6.39-3.51-11.5-.31-.71-2.72.43-3.2,1.15l-7.16,10.69,8.4.84c.45,1.18,1.61,4.2,1.43,3.75Z"/>
      <path class="cls-4" d="M1182.3,523.97c0,7.67-6.21,13.88-13.87,13.88s-13.87-6.21-13.87-13.88,6.21-13.88,13.87-13.88,13.87,6.21,13.87,13.88ZM1167.93,532.33c2.62,0,5.43-1.71,5.98-3.6.48-1.66-.08-4.93-1.44-5.87-1.19-.82-4.42-1.21-6.34-1.46-.25-.4-.22-3.12.52-3.11l3.7.09,2.52.06c.44.01.31-1.03.28-2.2l-9.41.02-.33,8.09,4.5-.45c1.52-.15,3.6,1.66,3.6,3.6,0,1.41-2.7,2.91-3.81,2.39l-4.53-2.13c-.58,2.65,1.55,4.56,4.75,4.57Z"/>
      <path class="cls-4" d="M1230.09,524.02c0,7.52-6.09,13.62-13.61,13.62s-13.61-6.1-13.61-13.62,6.09-13.62,13.61-13.62,13.61,6.1,13.61,13.62ZM1214.26,521.3c-.65.15.38-3.45,1.47-3.69s2.75.84,4.67,1.91c.24-.04.76-2.61.07-2.97-.52-.27-2.17-.81-2.77-.86-4.59-.35-7.72,4.22-7.05,9.12.26,1.87.94,4.73,1.88,5.86.94,1.13,4.39,1.44,6.14,1.09,3.44-.67,4.47-4.53,3.27-7.44-.92-2.24-3.99-3.03-7.68-3.03Z"/>
      <path class="cls-2" d="M1182.24,622.81c0,7.57-6.13,13.71-13.7,13.71s-13.7-6.14-13.7-13.71,6.13-13.71,13.7-13.71,13.7,6.14,13.7,13.71ZM1168.46,631.56l1.88-.36.52-17.11-6.01,2.27c-.51.19-.72,2.34-.19,2.42l3.22.43.58,12.35Z"/>
      <path class="cls-18" d="M1182.13,680.73c0,7.5-6.08,13.58-13.57,13.58s-13.57-6.08-13.57-13.58,6.08-13.58,13.57-13.58,13.57,6.08,13.57,13.58ZM1168.24,688.75l-.22-16.38c-4.56,2.88-7.41,5.34-10.09,9.35l10.31,7.03ZM1178.97,680.56l-7.17-7.32-.14,14.71,7.31-7.39Z"/>
      <path class="cls-4" d="M1182.14,573.52c0,7.57-6.13,13.71-13.7,13.71s-13.7-6.14-13.7-13.71,6.13-13.71,13.7-13.71,13.7,6.14,13.7,13.71ZM1170.97,577.5c-.41,1.23-2.99,2.34-3.84,1.84l-3.66-2.13c-.46.51.01,3.51.98,3.7l4.03.81c1.49.3,5-1.23,5.29-2.72.3-1.49-.96-4.57-1.66-5.98.41-1.39,1.14-3.88,1.23-5.26.09-1.38-3.71-3.02-5.02-2.6l-3.64,1.16c-.79.25-.79,3.17-.36,2.86l4.6-1.83c.94-.37,2.14,2.9,1.29,3.43l-3.53,2.22c1.95,1.22,4.72,3.2,4.29,4.5Z"/>
      <path class="cls-18" d="M1230,680.64c0,7.47-6.06,13.53-13.52,13.53s-13.52-6.06-13.52-13.53,6.06-13.53,13.52-13.53,13.52,6.06,13.52,13.53ZM1217.6,673.16l-2.63.03.18,15.06,2.63-.03-.18-15.06ZM1214.23,680.47l-7.06-5.94.3,11.79,6.77-5.85ZM1224.9,686.56l.14-12.33-5.53,6.43,5.4,5.91Z"/>
      <path class="cls-27" d="M1221.96,630.77l-11.57-.72,8.19-9.28c.57-.65.79-3.32.2-3.84s-2.16-1.22-2.8-.74l-4.1,3.14c-.74-1.81,1.26-4.5,3.26-4.98s4.8.21,5.59,1.67c.93,1.72.44,5.58-.81,6.81l-5.44,5.36,7.63.35c.32.01.17,2.25-.15,2.23Z"/>
      <path class="cls-37" d="M1218.81,581.8c.17.45-.98-2.57-1.43-3.75l-8.4-.84,7.16-10.69c.48-.72,2.89-1.86,3.2-1.15,2.21,5.1-1.45,9.05,3.51,11.5l-4.04,4.93Z"/>
      <path class="cls-40" d="M1167.93,532.33c-3.2,0-5.32-1.92-4.75-4.57l4.53,2.13c1.12.52,3.82-.98,3.81-2.39,0-1.94-2.08-3.76-3.6-3.6l-4.5.45.33-8.09,9.41-.02c.03,1.17.16,2.21-.28,2.2l-2.52-.06-3.7-.09c-.75-.02-.77,2.71-.52,3.11,1.92.25,5.15.64,6.34,1.46,1.35.94,1.92,4.21,1.44,5.87-.55,1.88-3.36,3.6-5.98,3.6Z"/>
      <path class="cls-11" d="M1214.26,521.3c3.7,0,6.76.79,7.68,3.03,1.2,2.91.17,6.77-3.27,7.44-1.75.34-5.2.03-6.14-1.09-.94-1.13-1.63-3.99-1.88-5.86-.67-4.9,2.46-9.47,7.05-9.12.6.05,2.25.59,2.77.86.69.36.17,2.93-.07,2.97-1.92-1.07-3.58-2.14-4.67-1.91s-2.12,3.84-1.47,3.69ZM1219.98,526.63c0-1.85-1.5-3.35-3.34-3.35s-3.34,1.5-3.34,3.35,1.5,3.35,3.34,3.35,3.34-1.5,3.34-3.35Z"/>
      <path class="cls-17" d="M1168.46,631.56l-.58-12.35-3.22-.43c-.53-.07-.32-2.22.19-2.42l6.01-2.27-.52,17.11-1.88.36Z"/>
      <path class="cls-11" d="M1168.24,688.75l-10.31-7.03c2.68-4.01,5.53-6.48,10.09-9.35l.22,16.38Z"/>
      <polygon class="cls-37" points="1178.97 680.56 1171.65 687.95 1171.79 673.25 1178.97 680.56"/>
      <path class="cls-27" d="M1170.97,577.5c.43-1.3-2.34-3.28-4.29-4.5l3.53-2.22c.84-.53-.36-3.8-1.29-3.43l-4.6,1.83c-.44.31-.43-2.61.36-2.86l3.64-1.16c1.31-.42,5.11,1.22,5.02,2.6-.09,1.38-.82,3.86-1.23,5.26.7,1.41,1.96,4.48,1.66,5.98-.3,1.49-3.81,3.02-5.29,2.72l-4.03-.81c-.97-.19-1.44-3.19-.98-3.7l3.66,2.13c.85.49,3.43-.61,3.84-1.84Z"/>
      <rect class="cls-41" x="1215.06" y="673.17" width="2.63" height="15.06" transform="translate(-7.93 14.37) rotate(-.67)"/>
      <polygon class="cls-48" points="1214.23 680.47 1207.46 686.32 1207.16 674.54 1214.23 680.47"/>
      <polygon class="cls-17" points="1224.9 686.56 1219.5 680.65 1225.03 674.22 1224.9 686.56"/>
      <circle class="cls-15" cx="1216.63" cy="526.63" r="3.34"/>
    </g>
    <g>
      <path class="cls-22" d="M1373.36,166.98l-1.06,727.67,1.06,1.38-.26,3.38h-273.26s.7-632.52.7-632.52l-.82-4.91c.1-1.56-1.2-4.6-2.46-5.56s-4.54-1.48-6.22-1.48l3.31-2.1h-568.01c2,.74,3.99,1.1,5.4,1.1l.04,1.02-5.36.14c-3.38.09-6.26,3.95-6.31,7.33l-1.01-.1-1.06,2.43v633.26s-21.07.19-21.07.19c-.28.24-1.28.93-1.13,1.13h-229.27c-4.88-1.7-10.34-1.1-16.01-1.34V167s1122.79-.02,1122.79-.02ZM872.56,241.14c4.26-.6,6.84-3.75,6.83-7.34l-.12-39.89c-.01-3.37-3.49-6.92-7.09-6.93l-120.44-.02c-3.73,0-7.24,3.12-7.26,6.79l-.22,39.06c-.02,3.63,2.03,6.99,5.52,8.33h122.77ZM452.34,509.24l-.02-139.21c-1.94-.64-4.53-4.73-6.38-4.73l-105.35-.05c-2.51,0-5.24,3.79-5.24,6.31v135.1c0,4.01,2,6.7,6.17,6.8h104.67s6.15-4.23,6.15-4.23ZM1126.2,425.38l-.05,296.09c3.63,4.59,6.42,12.67,13.59,12.68l102.49.1c7.74,0,13.09-4.99,14.33-12.26l1.55,2.62v-135.35s0-166.02,0-166.02l-1.24,2.45c0-7.46-7.77-12.78-14.57-12.78l-99.5-.08c-8.07,0-13.27,5.33-16.6,12.54Z"/>
      <path class="cls-17" d="M266.57,899.35l-17.06-.3V168.59s1.06-1.58,1.06-1.58v731.01c5.67.24,11.12-.36,16,1.34Z"/>
      <polygon class="cls-40" points="1373.35 896.03 1372.29 894.65 1373.36 166.98 1373.35 896.03"/>
      <path class="cls-27" d="M519.06,899.25l-23.21.11c-.15-.2.85-.89,1.13-1.13l21.07-.19V264.77s1.06-2.43,1.06-2.43l-.04,636.91Z"/>
      <polygon class="cls-33" points="520.24 899.24 519.06 899.25 519.1 262.34 520.11 262.44 520.24 899.24"/>
      <path d="M521.22,442.15v455.75c-.57,1.01-.68,1.34-.98,1.34l-.13-636.8,1.11.26v179.44Z"/>
      <path class="cls-23" d="M531.78,254.97h30.67s52.86,0,52.86,0h68.72s10.57,0,10.57,0h219.91s89.86,0,89.86,0h58.17s28.5-.01,28.5-.01c1.69,0,4.93.51,6.22,1.48s2.56,4,2.46,5.56l-.72,11.09-.63-10.79c-.19-3.24-2.52-6.27-6.42-6.27l-188.18.02,2.03,3.14-25.68.03.14-3.19-55.33.04,1.14,3.19-30.5-.09.24-2.94-12.48-.13,2.38,3.05h-34.52s.26-3.11.26-3.11h-70.3s1.16,3.24,1.16,3.24l-20.9-.27,6.87-2.91-102.28.25c-2.57,0-5.56.8-7.86.51l-8.15-1.03.44,3.42-23.29-.08,3.75-2.74-4.46-1.3,5.36-.14Z"/>
      <path class="cls-11" d="M1091.04,254.95h-28.5s-1.12-1.05-1.12-1.05h-55.94s-1.11,1.06-1.11,1.06h-89.86s-1.29-1.06-1.29-1.06h-217.32s-1.29,1.06-1.29,1.06h-10.57s-1.13-1.06-1.13-1.06h-66.47s-1.13,1.06-1.13,1.06h-52.86s-1.07-1.09-1.07-1.09l-29.64.07c-1.41,0-3.39-.36-5.4-1.09h568.01s-3.31,2.09-3.31,2.09Z"/>
      <polygon class="cls-37" points="1258.11 589.27 1257.05 589.27 1256.87 425.7 1258.11 423.25 1258.11 589.27"/>
      <polygon class="cls-3" points="562.45 254.97 531.78 254.97 531.74 253.95 561.38 253.88 562.45 254.97"/>
      <polygon class="cls-3" points="914.51 254.97 694.61 254.97 695.9 253.91 913.22 253.91 914.51 254.97"/>
      <polygon class="cls-3" points="684.03 254.97 615.31 254.97 616.44 253.91 682.91 253.91 684.03 254.97"/>
      <polygon class="cls-3" points="1062.54 254.96 1004.38 254.97 1005.48 253.9 1061.42 253.9 1062.54 254.96"/>
    </g>
    <g>
      <path class="cls-23" d="M872.56,241.14h-122.77c-3.5-1.33-5.55-4.69-5.52-8.32l.22-39.06c.02-3.67,3.53-6.79,7.26-6.79l120.44.02c3.6,0,7.08,3.55,7.09,6.93l.12,39.89c.01,3.59-2.57,6.74-6.83,7.34ZM787.75,192.43h-38.17v43.59h38.17v-43.59ZM831.01,235.59l.11-42.8-39.3-.15-.22,40.04c0,1.32,3.23,2.97,4.59,2.97l34.82-.05ZM874.03,192.24l-38.76.22.24,43.47,38.76-.22-.24-43.47Z"/>
      <path class="cls-36" d="M874.03,192.24l.24,43.47-38.76.22-.24-43.47,38.76-.22ZM863.57,205.33h-20.45s10.46,20.47,10.46,20.47l9.99-20.47Z"/>
      <path class="cls-43" d="M787.75,192.43v43.59h-38.17v-43.59h38.17ZM780.45,223.46l-9.95-19.85-10.19,20.13,20.13-.28Z"/>
      <path class="cls-42" d="M831.01,235.59l-34.82.05c-1.36,0-4.59-1.65-4.59-2.97l.22-40.04,39.3.15-.11,42.8ZM808.64,224.28l-3.68-3.15c-.61-.52-3.25,1.46-2.95,2.4,1.01,3.13,5.79,6.18,9.43,6.01,3.42-.16,7.25-1.65,9.13-4.84,2.53-4.28.66-9.01-3.51-11.23,1.38-1.38,3.07-3.21,3.61-4.64s-.64-5.19-1.75-6.31c-2.34-2.35-6.26-3.09-9.44-2.86-2.32.17-6.08,3.02-6.97,5.57-.31.89,2.67,2.58,3.41,1.97l2.74-2.29c.93-.78,4.2-1.16,5.24-.5s1.91,2.68,1.89,4.09c-.05,3.6-7.11,2.35-6.78,5.54.29,2.8,7.36,1.29,7.75,5.9.12,1.36-1.11,3.76-2.19,4.6-1.07.84-4.88.64-5.94-.26Z"/>
      <polygon class="cls-10" points="863.57 205.33 853.58 225.8 843.12 205.34 863.57 205.33"/>
      <polygon class="cls-10" points="780.45 223.46 760.32 223.74 770.51 203.61 780.45 223.46"/>
      <path class="cls-30" d="M808.64,224.28c1.05.9,4.86,1.1,5.94.26,1.07-.84,2.3-3.24,2.19-4.6-.39-4.62-7.46-3.11-7.75-5.9-.33-3.19,6.73-1.94,6.78-5.54.02-1.41-.85-3.43-1.89-4.09s-4.31-.28-5.24.5l-2.74,2.29c-.74.62-3.72-1.08-3.41-1.97.89-2.56,4.65-5.41,6.97-5.57,3.17-.23,7.1.51,9.44,2.86,1.11,1.12,2.29,4.88,1.75,6.31s-2.23,3.26-3.61,4.64c4.17,2.22,6.04,6.95,3.51,11.23-1.89,3.19-5.71,4.68-9.13,4.84-3.64.17-8.42-2.88-9.43-6.01-.3-.94,2.34-2.92,2.95-2.4l3.68,3.15Z"/>
    </g>
  </g>
  <g>
    <g>
      <path d="M754.59,950.32l-.02.02c-.02-.19-.02-.37-.02-.54.04.17.04.34.04.52Z"/>
      <path d="M756.46,950.27h-.02v-.28c.02.09.02.19.02.28Z"/>
      <g>
        <path d="M776.75,950.81c-1.8-1.87-4.26-2.45-6.17-2.64,1.23-2.54,1.37-5.54.22-8.28-.3-.69-.8-1.31-1.5-1.76-.09-.07-.19-.13-.28-.19-1.4-.84-3.59-1.76-6.02-1.37l-.5-39.55v-.02l-.02-1.38v-.04l-.04-.02-.19-.06c-.37-.09-.75-.17-1.1-.28-1.08-.26-2.17-.56-3.22-.88-.67-.19-1.33-.39-1.96-.6-.36-.11-.73-.22-1.08-.36-.32-.09-.64-.21-.94-.32-.34-.09-.67-.22-1.01-.34l-.09-.04-.06-.02-.15-.06v1.48l.06,44.02v2.75c-1.25-1.29-2.82-2.24-4.53-2.75-.22-.06-.43-.11-.65-.17-1.78-.39-3.42-.24-4.86.17-1.42.39-2.66,1.03-3.61,1.65-1.22.77-1.94,2.02-2.09,3.42-.3,3.57.92,7.01,3.29,9.16.07.06.15.11.22.17-2.45.67-8.04,2.66-12.38,8.14-4.39,5.57-5.05,11.71-5.01,15.28.02,1.63,1.1,3.07,2.67,3.57,4.86,1.57,11.39,3.22,19.13,3.78,3.63.26,7.52.3,11.63,0,.09,0,.21-.02.3-.02,7.35-.56,13.65-2.08,18.72-3.74,1.51-.5,2.58-1.89,2.69-3.5.32-4.84.47-9.07.56-12.49.19-7.8-.02-10.6-2.04-12.74ZM738.83,943.35c.07-.8.52-1.53,1.23-2,1.31-.84,3.2-1.74,5.37-1.74.54,0,1.12.06,1.68.19,2.3.5,4.26,1.98,5.59,4.02,1.03,1.57,1.68,3.44,1.85,5.44v.54c.04.17.04.34.04.52l-.02.02c-.58.49-1.2.94-1.85,1.31-3.72,2.11-8.34,1.94-11.22-.67-1.93-1.76-2.92-4.62-2.67-7.63ZM757.06,960.25c-.37.41-.88.64-1.4.64-.45,0-.88-.19-1.25-.49-.3-.26-.86-.73-1.68-1.12-.73-.34-1.66-.64-2.77-.67-2.23-.06-3.83.95-4.45,1.4-.82.62-2,.45-2.62-.39-.6-.84-.45-1.98.39-2.64.9-.65,2.56-1.7,4.84-2.02.24-.04.5-.07.8-.07.36-.04.75-.04,1.16-.02.97.04,1.85.17,2.64.43,2,.58,3.42,1.61,4.19,2.32.77.67.84,1.89.15,2.64ZM766.86,950.02c-1.08.92-2.34,1.5-3.67,1.74-2.3.49-4.79-.02-6.73-1.48v-.02h-.02v-.28c.02-.06,0-.09,0-.13.02-.15,0-.3-.02-.43v-.26c.09-5.87,3.25-9.93,6.62-10.66.07-.04.13-.04.21-.06,1.89-.36,3.68.41,4.84,1.1.34.19.77.54.97,1.05,1.37,3.33.47,7.12-2.21,9.43Z"/>
        <path class="cls-9" d="M754.58,950.34c-.58.49-1.2.94-1.85,1.31-3.72,2.11-8.34,1.94-11.22-.67-1.93-1.76-2.92-4.62-2.67-7.63.07-.8.52-1.53,1.23-2,1.31-.84,3.2-1.74,5.37-1.74.54,0,1.12.06,1.68.19,2.3.5,4.26,1.98,5.59,4.02,1.03,1.57,1.68,3.44,1.85,5.44v.54c0,.17,0,.36.02.54Z"/>
        <path class="cls-9" d="M757.06,960.25c-.37.41-.88.64-1.4.64-.45,0-.88-.19-1.25-.49-.3-.26-.86-.73-1.68-1.12-.73-.34-1.66-.64-2.77-.67-2.23-.06-3.83.95-4.45,1.4-.82.62-2,.45-2.62-.39-.6-.84-.45-1.98.39-2.64.9-.65,2.56-1.7,4.84-2.02.24-.04.5-.07.8-.07.36-.04.75-.04,1.16-.02.97.04,1.85.17,2.64.43,2,.58,3.42,1.61,4.19,2.32.77.67.84,1.89.15,2.64Z"/>
        <path class="cls-9" d="M766.86,950.02c-1.08.92-2.34,1.5-3.67,1.74-2.3.49-4.79-.02-6.73-1.48v-.02c0-.09,0-.19-.02-.28.02-.06,0-.09,0-.13.02-.15,0-.3-.02-.43v-.26c.09-5.87,3.25-9.93,6.62-10.66.07-.04.13-.04.21-.06,1.89-.36,3.68.41,4.84,1.1.34.19.77.54.97,1.05,1.37,3.33.47,7.12-2.21,9.43Z"/>
      </g>
      <path d="M762.46,895.56c-3.4-.82-6.67-1.79-9.83-2.94l9.83,2.94Z"/>
      <g>
        <path d="M855.73,961.73c-4.47-8.32-12.87-10.7-16.33-11.35,2.06-1.22,3.42-2.82,3.8-4.69.32-1.74-.32-3.78-1.89-5.89-.52-.65-1.07-1.22-1.63-1.66-1.12-.94-2.3-1.48-3.48-1.61-1.68-.17-3.4.41-5.03,1.61-1.12.82-2.21,1.94-3.22,3.31l-.04-3.31-.47-45.18v-.24l-.02-1.16-5.42,1.68-.36.11c-.32.09-.65.21-.97.32-.58.17-1.16.36-1.72.52h-.02l-.52.15c-.26.11-.52.19-.8.26v1.46l.6,42.08v.17c-.21-.07-.43-.13-.64-.17-1.61-.37-3.16-.26-4.41,0-.37.07-.71.17-1.01.26-1.35.39-2.43,1.5-2.82,2.88-.5,1.87-.84,4.6.39,7.22-.92-.04-2.15.09-3.4.71-2.49,1.25-4.06,3.96-4.13,7.09l-.6,19.19c-.06,1.85,1.14,3.48,2.94,3.98,6.08,1.72,13.93,3.29,23.13,3.61,10.72.36,19.82-1.12,26.59-2.81,1.81-.47,3.22-1.91,3.57-3.76.64-3.4.97-9.03-2.09-14.77ZM828,944.88c2.45-4.43,5.55-6.73,8-6.51,1.27.13,2.62,1.03,3.83,2.56,1.22,1.66,1.74,3.18,1.51,4.41-.58,2.95-5.59,5.74-13.28,6.06-.86.04-1.76.06-2.67.02.67-2.52,1.57-4.71,2.6-6.55ZM818.4,952.19c-2.9-.28-5.46-1.72-6.75-4.06-1.25-2.23-.97-4.69-.5-6.36.21-.77.8-1.38,1.53-1.59.77-.22,1.72-.41,2.77-.41.9,0,1.85.13,2.81.52.07.02.13.04.21.07,3.74,1.65,5.82,6.43,4.92,11.24-1.66.58-3.39.77-4.97.58ZM836.95,959.54c-.54.88-1.66,1.14-2.54.62-.99-.6-3.05-1.57-5.63-1.2-.21.04-.43.06-.62.11-1.51.3-2.64,1.01-3.37,1.55-.34.3-.73.41-1.14.41-.56,0-1.1-.26-1.48-.73-.64-.8-.49-2,.34-2.6,1.63-1.29,3.55-2.15,5.61-2.43.04,0,.09-.02.13-.02,3.74-.54,6.66.84,8.08,1.7.9.52,1.18,1.7.62,2.58Z"/>
        <path class="cls-9" d="M836.95,959.54c-.54.88-1.66,1.14-2.54.62-.99-.6-3.05-1.57-5.63-1.2-.21.04-.43.06-.62.11-1.51.3-2.64,1.01-3.37,1.55-.34.3-.73.41-1.14.41-.56,0-1.1-.26-1.48-.73-.64-.8-.49-2,.34-2.6,1.63-1.29,3.55-2.15,5.61-2.43.04,0,.09-.02.13-.02,3.74-.54,6.66.84,8.08,1.7.9.52,1.18,1.7.62,2.58Z"/>
        <path class="cls-9" d="M841.35,945.35c-.58,2.95-5.59,5.74-13.28,6.06-.86.04-1.76.06-2.67.02.67-2.52,1.57-4.71,2.6-6.55,2.45-4.43,5.55-6.73,8-6.51,1.27.13,2.62,1.03,3.83,2.56,1.22,1.66,1.74,3.18,1.51,4.41Z"/>
        <path class="cls-9" d="M823.38,951.61c-1.66.58-3.39.77-4.97.58-2.9-.28-5.46-1.72-6.75-4.06-1.25-2.23-.97-4.69-.5-6.36.21-.77.8-1.38,1.53-1.59.77-.22,1.72-.41,2.77-.41.9,0,1.85.13,2.81.52.07.02.13.04.21.07,3.74,1.65,5.82,6.43,4.92,11.24Z"/>
      </g>
      <path d="M754.56,949.8c0,.17,0,.36.02.54l.02-.02c0-.19,0-.36-.04-.52Z"/>
      <path d="M756.45,949.99v.28h.02c0-.09,0-.19-.02-.28Z"/>
      <path d="M759.31,685.5c0,4.84-3.09,8.75-6.92,8.75s-6.94-3.91-6.94-8.75,3.1-8.75,6.94-8.75,6.92,3.93,6.92,8.75Z"/>
      <path d="M838.39,685.5c0,4.84-3.09,8.75-6.92,8.75s-6.94-3.91-6.94-8.75,3.1-8.75,6.94-8.75,6.92,3.93,6.92,8.75Z"/>
      <path d="M798.8,704.43c0,3.05-3.91,5.52-8.75,5.52s-8.75-2.47-8.75-5.52,3.93-5.54,8.75-5.54,8.75,2.49,8.75,5.54Z"/>
      <path d="M796.02,602.35c-.24.92-.54,1.83-.9,2.73-1.8,4.71-4.82,9.01-8.85,12.27-3.98,3.2-8.71,5.35-13.61,6.12l-.11-.45c8.71-2.66,15.97-9.54,18.7-18.12.15-.39.26-.79.37-1.2.11-.52.22-1.05.32-1.57,1.53-8.66-.8-17.11-4.38-25.32l.36-.3c8.51,6.4,10.64,16.61,8.1,25.84Z"/>
      <path d="M805.68,603.59c-.52.86-1.08,1.7-1.7,2.52-2.81,3.74-6.41,7.01-10.02,9.67-2.88,1.98-5.91,3.7-9.11,4.96l-.21-.43c5.59-3.68,10.4-8.36,14.12-13.88.19-.32.37-.65.54-.97h.02c.5-.88.99-1.76,1.46-2.64,2.51-4.56,4.69-9.01,7.74-13.63l.45.09c.75,5.22-.69,10.02-3.29,14.31Z"/>
      <path d="M815.73,606c-.52.82-1.14,1.61-1.8,2.38-2.75,3.2-6.36,5.85-9.86,7.87-2.64,1.38-5.39,2.54-8.25,3.2l-.17-.43c5.59-2.75,10.1-6.94,13.69-11.82.6-.8,1.18-1.63,1.72-2.47.67-1.05,1.33-2.11,1.93-3.22,1.59-2.23,3.09-4.51,5.11-6.92l.45.13c.58,4.23-.64,8-2.82,11.28Z"/>
      <path d="M716.01,636.5c-.6-.75-1.22-1.44-1.91-2.09-1.12-1.08-2.38-2.06-3.78-2.86-15.33-7.26-36.97,6.64-45.2,19.97-.64.92-1.16,1.85-1.57,2.79-3.5,2.21-6.64,4.88-9.13,7.63-1.5,1.61-2.77,3.31-3.78,5.11-4.94,8.6-3.91,18.68,6.51,23.97l.26-.39c-9.97-7.13-8.53-16.18-2.51-23.58,1.96-2.41,4.41-4.66,7.11-6.58-.09,2.34.36,4.58,1.27,6.58,2.6,5.7,8.92,9.43,16.98,7.76,4.96-.56,9.87-3.7,12.72-7.76,3.44-4.9,3.85-11.09-2.34-15.63-6.84-4.06-14.81-3.14-21.97.11,7.09-10.64,20.65-20.07,33.51-20.25,4.53-.32,8.17,1.33,11.13,4.02.69.64,1.33,1.29,1.93,2.02,3.57,4.19,5.98,9.89,7.7,14.79l.43-.15c-1.72-5.29-3.8-11.01-7.37-15.45ZM690.61,658.77c.69,3.1-.8,6.04-3.22,8.27-2.19,2.04-5.16,3.48-7.89,3.93-5.5,1.33-9.91-.54-12.29-3.93-1.7-2.39-2.37-5.54-1.7-8.83,9.8-5.67,21.34-7.16,25.1.56Z"/>
      <g>
        <g>
          <g>
            <path d="M672.12,830.83c-.09.15-.17.28-.26.45-.94-.22-1.85-.5-2.77-.8.07-.17.19-.34.3-.5.9.32,1.81.62,2.73.86Z"/>
            <path d="M896.89,720.75c-.17-.52-.34-1.05-.49-1.59-.77.65-1.53,1.29-2.3,1.93-.24-1.1-.49-2.19-.73-3.31l-.97-4.04c-8.66-40.58-23.6-84.42-68.95-102.03-3.14-1.31-6.3-2.41-9.52-3.33-1.51-.45-3.03-.84-4.58-1.18-1.78-.41-3.55-.79-5.37-1.08-1.55-.24-3.09-.47-4.66-.65h-.02c-1.4-.15-2.79-.28-4.19-.37-1.27-.09-2.54-.15-3.83-.19h-.04c-28.09-.79-56.4,10.92-75.23,31.6-.28.26-.5.54-.77.8-5.05,5.67-9.41,12.01-12.87,18.93-6.79,13.17-10.34,28.05-13.13,40.96-1.4,6.41-2.71,13.07-3.93,19.82-.19,1.14-.41,2.3-.6,3.46-.8-.65-1.57-1.31-2.34-1.98-.19.79-.37,1.53-.58,2.32.15-.82.28-1.63.43-2.43.13-.75.26-1.48.37-2.23.09-.43.17-.84.24-1.27,1.14-6.21,2.36-12.34,3.65-18.29,2.84-13.09,6.43-28.16,13.37-41.63,3.61-7.18,8.13-13.76,13.43-19.65l.02-.02c.26-.32.5-.58.79-.88,19.56-21.28,48.83-33.27,77.83-32.28h.02c1.35.06,2.71.11,4.06.22,1.61.11,3.2.28,4.77.47,1.65.22,3.27.47,4.9.77,1.8.32,3.59.69,5.39,1.14,1.57.37,3.12.79,4.66,1.27,2.95.86,5.89,1.91,8.77,3.12,46.57,18.07,61.83,62.7,70.63,103.98.22.88.43,1.78.64,2.66.11.43.21.86.3,1.31.17.65.32,1.33.45,1.98.13.56.26,1.14.37,1.7Z"/>
            <path d="M912.86,845.77c-.8,1.31-1.83,2.17-3.03,2.54-1.98.6-4.3-.19-6.66-2.15,1.27,4.38,1.85,9.11-.69,11.11-.71.58-1.59.88-2.64.95-2.95.15-5.98-2.24-8.57-6.68-.11,1.01-.3,1.96-.52,2.84-.43,1.68-1.07,3.09-1.76,4.11-.52.8-1.12,1.46-1.76,1.94.99-5.91,1.76-11.82,2.36-17.75.54.02,1.03.37,1.22.92.26.79.54,1.53.86,2.28,2.37,5.85,5.52,9.72,8.02,9.52.17-.02.65-.04,1.03-.34,2.24-1.76-.77-10.77-3.5-16.29-.32-.69-.07-1.5.6-1.85.65-.37,1.48-.15,1.87.52,3.63,6.12,7.42,8.73,9.31,8.15.8-.24,1.31-1.05,1.46-1.33,1.61-2.58.13-7.7-4-14.04-.34-.52-.65-1.05-.92-1.59-.07-.13-.15-.26-.22-.41.92-.26,1.83-.54,2.73-.86.06.17.15.34.24.49.17.3.32.56.5.84,3.42,5.22,6.9,12.42,4.06,17.06Z"/>
          </g>
          <g>
            <path d="M762.51,897.01c-.11-.02-.22-.05-.32-.07-.04,0-.05-.02-.09-.02l-.14-.05c-.61-.27-.97-.93-.81-1.62t.02-.04v-.04c.18-.61.7-1.01,1.31-1.01l.02,1.4v.04l.02,1.4Z"/>
            <path d="M818.07,895.92h-.04s-.02.02-.04.02c-.13.04-.25.07-.38.11l-.02-1.46.04-1.4c.59,0,1.11.4,1.31.99v.02c.22.74-.18,1.47-.88,1.73Z"/>
          </g>
          <path d="M827.42,891.47c-1.91.3-3.8.56-5.7.8l.3.94,5.42-1.66.02,1.16c-1.65.67-3.33,1.27-5.01,1.85h-.02c-.15.04-.26.06-.41.06-.6,0-1.14-.37-1.33-.95v-.02c-.15-.45-.06-.92.19-1.25.15-.17.32-.34.54-.45l.15-.06c.52-.17,1.05-.36,1.57-.56h.04c3.52-1.23,6.94-2.64,10.21-4.23,3.12-.5,6.23-1.12,9.33-1.8-3.33,2-6.81,3.8-10.44,5.4-1.63.28-3.24.54-4.86.77Z"/>
          <path d="M753.98,893.03v.02s0,.02-.02.04v.02c-.21.56-.75.94-1.33.94v-1.4l.28-.95c-.09-.02-.19-.02-.28-.04-3.33-.5-6.62-1.05-9.91-1.66-3.24-1.57-6.34-3.33-9.29-5.24,2.34.5,4.71.99,7.09,1.44.5.09.99.19,1.5.28,3.38,1.76,6.94,3.33,10.62,4.68.13.06.28.09.41.15l.11.02c.26.11.45.3.6.49.24.36.34.8.22,1.23Z"/>
        </g>
        <path d="M762.49,895.58v.04l-.4,1.31-.14-.05-9.31-2.77.16-1.42.11-1.01.13-.4.13.04,2.5.76h.04l6.78,2.03v.07l.02,1.4Z"/>
        <path d="M822.42,894.55v.02l-4.35,1.35h-.04l-.43-1.33.04-1.4v-.07l1.73-.54h.04l2.01-.63.14-.05h.04l.13.4.29.94.41,1.33Z"/>
      </g>
    </g>
    <g>
      <path d="M742.72,889.97c-17.3-3.25-34.26-8.28-50.51-15.02-.47-.19-.8-.62-.88-1.08-1.16-7.07-2.09-14.18-2.77-21.32-.77.92-1.65,1.8-2.71,2.6-1.44,1.12-6.4,4.58-9.14,2.58-1.46-1.03-2.47-3.24-.13-10.7-.99.6-2.11,1.07-3.4,1.29-1.18.22-5.12.77-7.22-1.44-2.52-2.66-1.46-8.15,3.14-16.42.92.3,1.83.58,2.77.8-3.85,6.86-5.39,12.1-3.87,13.69.95,1.01,3.37.86,4.66.62,3.8-.71,5.87-4.25,6.62-5.85.13-.28.26-.62.39-.92.28-.71,1.07-1.05,1.78-.77.71.26,1.08,1.05.84,1.76-.04.07-.17.47-.45,1.07-5.35,13.07-3.57,14.53-3.52,14.61.67.47,3.52-.77,5.85-2.54,1.91-1.46,3.16-3.24,3.96-4.9-.43-5.05-.73-10.1-.92-15.17t0-.04c-.9-24.18.92-48.44,5.54-72.19-4.13,27.34-5.09,55.15-2.66,82.64.47,5.18,1.05,10.34,1.76,15.5.62,4.6,1.35,9.18,2.17,13.78,12.79,5.03,25.96,9.16,39.4,12.17,2.95,1.91,6.06,3.67,9.29,5.24Z"/>
      <path d="M892.68,830.62v.04c-.21,5.09-.52,10.17-1.01,15.24-.26,2.82-.56,5.67-.92,8.49-.82,6.55-1.85,13.05-3.12,19.52-.07.5-.43.88-.86,1.05-17.49,7.26-35.81,12.55-54.5,15.75-1.63.28-3.24.54-4.86.77-1.91.3-3.8.56-5.7.8-.26.04-.54.07-.84.11-.49.07-.99.13-1.48.19h-.02c-.58.07-1.16.13-1.74.21-9.33,1.07-18.74,1.59-28.15,1.61-9.03-.02-18.07-.52-27.02-1.5-2.26-.24-4.53-.52-6.77-.82h-.04c-.65-.09-1.27-.19-1.91-.28-.28-.02-.58-.07-.84-.11-.09-.02-.19-.02-.28-.04-3.33-.5-6.62-1.05-9.91-1.66-3.24-1.57-6.34-3.33-9.29-5.24,2.34.5,4.71.99,7.09,1.44.5.09.99.19,1.5.28,15.65,2.92,31.57,4.45,47.48,4.34,14.7.07,29.4-1.18,43.89-3.7,3.12-.5,6.23-1.12,9.33-1.8,14.42-3.03,28.56-7.31,42.25-12.74.86-4.04,1.63-8.08,2.28-12.12.99-5.91,1.76-11.82,2.36-17.75,1.81-17.9,1.91-35.96.39-53.9-.8-9.43-2.08-18.83-3.78-28.16,2.11,9.24,3.7,18.61,4.79,28.05,1.66,13.91,2.19,27.94,1.68,41.93Z"/>
      <path class="cls-9" d="M892.4,713.73c-.11-.5-.22-1.01-.32-1.51-3.29-15.17-7.5-30.74-13.89-45.18-7.8-17.69-18.85-33.68-35.48-45.16-5.72-3.96-12.12-7.41-19.26-10.17-3.14-1.31-6.3-2.41-9.52-3.33-2.75,3.2-6.36,5.85-9.86,7.87-2.64,1.38-5.39,2.54-8.25,3.2l-.17-.43c5.59-2.75,10.1-6.94,13.69-11.82-1.78-.41-3.55-.79-5.37-1.08-2.81,3.74-6.41,7.01-10.02,9.67-2.88,1.98-5.91,3.7-9.11,4.96l-.21-.43c5.59-3.68,10.4-8.36,14.12-13.88.19-.32.37-.65.54-.97-1.4-.15-2.79-.28-4.19-.37-1.8,4.71-4.82,9.01-8.85,12.27-2.38,1.91-5.03,3.44-7.82,4.53-1.89.75-3.83,1.27-5.8,1.59l-.11-.45c1.05-.32,2.08-.69,3.07-1.14,7.33-3.2,13.22-9.43,15.63-16.98-20.55-.58-41.24,5.54-58.24,16.98-6.23,4.19-11.95,9.09-17,14.62,3.57,4.43,5.65,10.15,7.37,15.45l-.43.15c-1.72-4.9-4.13-10.6-7.7-14.79-5.05,5.67-9.41,12.01-12.87,18.93-1.81,3.5-3.38,7.13-4.77,10.81-3.85,10.14-6.32,20.68-8.36,30.15-1.07,4.9-2.09,9.93-3.05,15.04-.3,1.59-.6,3.18-.88,4.79,13.97,11.73,29.92,20.98,46.86,27.6,18.08,6.96,37.63,10.49,56.98,10.68,37.7.17,75.2-13.46,104.2-37.51l-.97-4.04ZM745.44,685.49c0-4.82,3.1-8.75,6.94-8.75s6.92,3.93,6.92,8.75-3.09,8.75-6.92,8.75-6.94-3.91-6.94-8.75ZM781.29,704.42c0-3.05,3.93-5.54,8.75-5.54s8.75,2.49,8.75,5.54-3.91,5.52-8.75,5.52-8.75-2.47-8.75-5.52ZM824.53,685.49c0-4.82,3.1-8.75,6.94-8.75s6.92,3.93,6.92,8.75-3.09,8.75-6.92,8.75-6.94-3.91-6.94-8.75Z"/>
      <path class="cls-9" d="M932.8,812.11c-5.39,5.35-11.73,9.72-18.66,12.87-1.98.92-4.02,1.72-6.08,2.41-.9.32-1.81.6-2.73.86-4.11,1.22-8.36,2.04-12.64,2.38.5-13.99-.02-28.01-1.68-41.93-1.08-9.44-2.67-18.81-4.79-28.05,1.7,9.33,2.97,18.74,3.78,28.16,1.51,17.93,1.42,36-.39,53.9-.6,5.93-1.37,11.84-2.36,17.75-.65,4.04-1.42,8.08-2.28,12.12-13.69,5.42-27.83,9.71-42.25,12.74-3.1.67-6.21,1.29-9.33,1.8-14.49,2.52-29.19,3.78-43.89,3.7-15.91.11-31.83-1.42-47.48-4.34-.5-.09-.99-.19-1.5-.28-2.38-.45-4.75-.94-7.09-1.44-13.45-3.01-26.61-7.14-39.4-12.17-.82-4.6-1.55-9.18-2.17-13.78-.71-5.16-1.29-10.32-1.76-15.5-2.43-27.49-1.48-55.3,2.66-82.64-4.62,23.75-6.43,48.01-5.54,72.19-5.14.11-10.23-.58-15.09-2-.92-.24-1.83-.54-2.73-.86-8.6-3.01-16.46-8.25-22.57-15,15.19-29.92,26.82-61.62,34.99-94.16.21-.79.39-1.53.58-2.32.77.67,1.53,1.33,2.34,1.98,25.28,20.95,56.85,34.43,89.58,37.57,42.73,4.38,86.68-9.74,119.8-36.95.77-.64,1.53-1.27,2.3-1.93.15.54.32,1.07.49,1.59,9.65,31.32,21.51,61.96,35.91,91.36Z"/>
      <path class="cls-9" d="M910.47,844.29c-.15.28-.65,1.08-1.46,1.33-1.89.58-5.69-2.04-9.31-8.15-.39-.67-1.22-.9-1.87-.52-.67.36-.92,1.16-.6,1.85,2.73,5.52,5.74,14.53,3.5,16.29-.37.3-.86.32-1.03.34-2.51.21-5.65-3.67-8.02-9.52.49-5.07.8-10.15,1.01-15.24,4.34-.19,8.66-.88,12.87-2,.26.54.58,1.07.92,1.59,4.13,6.34,5.61,11.46,4,14.04Z"/>
      <path class="cls-9" d="M688.13,848.03c-.8,1.66-2.06,3.44-3.96,4.9-2.34,1.78-5.18,3.01-5.85,2.54-.06-.07-1.83-1.53,3.52-14.61.28-.6.41-.99.45-1.07.24-.71-.13-1.5-.84-1.76-.71-.28-1.5.06-1.78.77-.13.3-.26.64-.39.92-.75,1.61-2.82,5.14-6.62,5.85-1.29.24-3.7.39-4.66-.62-1.51-1.59.02-6.83,3.87-13.69,4.99,1.31,10.17,1.89,15.35,1.59.19,5.07.49,10.12.92,15.17Z"/>
      <path d="M934.01,812.7c-7.24,6.96-16.14,12.19-25.71,15.17-.9.3-1.81.54-2.75.79-4.21,1.12-8.53,1.81-12.87,2-.36.04-.71.04-1.05.06.34-.02.69-.06,1.05-.09,4.28-.34,8.53-1.16,12.64-2.38.92-.26,1.83-.54,2.73-.86,2.06-.69,4.1-1.5,6.08-2.41,6.94-3.14,13.28-7.52,18.66-12.87-14.4-29.4-26.26-60.03-35.91-91.36-.17-.52-.34-1.05-.49-1.59-.77.65-1.53,1.29-2.3,1.93-33.12,27.21-77.07,41.33-119.8,36.95-32.73-3.14-64.29-16.63-89.58-37.57-.8-.65-1.57-1.31-2.34-1.98-.19.79-.37,1.53-.58,2.32-8.17,32.54-19.8,64.24-34.99,94.16,6.12,6.75,13.97,11.99,22.57,15,.9.32,1.81.62,2.73.86,4.86,1.42,9.95,2.11,15.09,2t0,.04c-5.18.3-10.36-.28-15.35-1.59-.94-.22-1.85-.5-2.77-.8-8.92-2.88-17.09-8.12-23.51-14.96-.21-.21-.22-.49-.11-.73,15.15-31.74,26.93-65.08,34.56-99.42.22-1.08,1.65-1.55,2.49-.79.09.11.22.19.34.3.82.73,1.65,1.44,2.47,2.13,13.97,11.73,29.92,20.98,46.87,27.6,18.08,6.96,37.63,10.49,56.98,10.68,37.7.17,75.2-13.46,104.2-37.51.8-.67,1.61-1.33,2.39-2.02.13-.09.26-.22.39-.34.77-.73,2.15-.34,2.41.71,4.68,16.38,10.01,32.6,15.93,48.59,5.95,15.97,12.53,31.74,19.64,47.26.13.26.06.54-.13.73Z"/>
    </g>
    <polygon points="762.49 895.58 762.45 895.56 762.26 895.5 761.16 895.18 752.8 892.68 752.64 892.63 752.64 890.78 762.45 891.37 762.47 894.1 762.47 894.17 762.49 895.58"/>
    <polygon points="827.44 891.55 822.01 893.22 821.65 893.33 820.68 893.63 818.95 894.17 818.43 894.34 817.6 894.59 817.64 893.18 817.64 893.11 817.67 891.69 823.14 891.33 827.37 891.06 827.42 891.48 827.44 891.55"/>
  </g>
</svg>