<?xml version="1.0" encoding="UTF-8"?>
<svg xmlns="http://www.w3.org/2000/svg" viewBox="0 0 1786.09 1080.92">
  <defs>
    <style>
      .cls-1 {
        fill: #525252;
      }

      .cls-2 {
        fill: #9c9c9c;
      }

      .cls-3 {
        fill: #141414;
      }

      .cls-4 {
        fill: #b8b8b8;
      }

      .cls-5 {
        fill: #4a4a4a;
      }

      .cls-6 {
        fill: #7d7d7d;
      }

      .cls-7 {
        fill: #121212;
      }

      .cls-8 {
        fill: #4d4d4d;
      }

      .cls-9 {
        fill: #c9c9c9;
      }

      .cls-10 {
        fill: #fff;
      }

      .cls-11 {
        fill: #5e5e5e;
      }

      .cls-12 {
        fill: #a6a6a6;
      }

      .cls-13 {
        fill: #6e6e6e;
      }

      .cls-14 {
        opacity: .4;
      }

      .cls-15 {
        fill: #303030;
      }

      .cls-16 {
        fill: #171717;
      }

      .cls-17 {
        fill: #e0e0e0;
      }

      .cls-18 {
        fill: #8a8a8a;
      }

      .cls-19 {
        fill: #e3e3e3;
      }

      .cls-20 {
        fill: #737373;
      }

      .cls-21 {
        fill: #3b3b3b;
      }

      .cls-22 {
        fill: #bdbdbd;
      }

      .cls-23 {
        fill: #1f1f1f;
      }

      .cls-24 {
        fill: #363636;
      }

      .cls-25 {
        fill: #bfbfbf;
      }

      .cls-26 {
        fill: #636363;
      }

      .cls-27 {
        fill: #b0b0b0;
      }

      .cls-28 {
        fill: #c4c4c4;
      }

      .cls-29 {
        fill: #212121;
      }

      .cls-30 {
        fill: #666;
      }

      .cls-31 {
        fill: #8c8c8c;
      }

      .cls-32 {
        fill: #878787;
      }

      .cls-33 {
        fill: #030303;
      }

      .cls-34 {
        fill: #616161;
      }

      .cls-35 {
        fill: #0d0d0d;
      }

      .cls-36 {
        fill: #333;
      }

      .cls-37 {
        fill: #0f0f0f;
      }

      .cls-38 {
        fill: #595959;
      }

      .cls-39 {
        fill: #1a1a1a;
      }

      .cls-40 {
        fill: #a8a8a8;
      }

      .cls-41 {
        fill: #9e9e9e;
      }

      .cls-42 {
        fill: #919191;
      }

      .cls-43 {
        fill: #d6d6d6;
      }

      .cls-44 {
        fill: #858585;
      }

      .cls-45 {
        fill: #ebebeb;
      }

      .cls-46 {
        fill: #dedede;
      }

      .cls-47 {
        fill: #ccc;
      }

      .cls-48 {
        fill: #b3b3b3;
      }

      .cls-49 {
        fill: #828282;
      }

      .cls-50 {
        fill: #696969;
      }

      .cls-51 {
        fill: #6b6b6b;
      }

      .cls-52 {
        fill: #212121;
      }

      .cls-53 {
        fill: #949494;
      }

      .cls-54 {
        fill: #a3a3a3;
      }

      .cls-55 {
        fill: #ababab;
      }

      .cls-56 {
        fill: gray;
      }

      .cls-57 {
        fill: #ededed;
      }

      .cls-58 {
        fill: #d4d4d4;
      }

      .cls-59 {
        fill: #a1a1a1;
      }

      .cls-60 {
        fill: #3d3d3d;
      }

      .cls-61 {
        fill: #242424;
      }

      .cls-62 {
        fill: #7a7a7a;
      }

      .cls-63 {
        fill: #d1d1d1;
      }

      .cls-64 {
        fill: #d9d9d9;
      }

      .cls-65 {
        fill: #787878;
      }

      .cls-66 {
        fill: #707070;
      }

      .cls-67 {
        fill: #5c5c5c;
      }

      .cls-68 {
        fill: #b5b5b5;
      }

      .cls-69 {
        fill: #e8e8e8;
      }

      .cls-70 {
        fill: #e6e6e6;
      }
    </style>
  </defs>
  <g id="Capa_1" data-name="Capa 1">
    <g class="cls-14">
      <rect class="cls-2" x="0" y="968.25" width="1786.09" height="113"/>
      <polygon class="cls-41" points="1786.08 .03 1786.07 102.77 -.01 101.96 -.01 .03 1786.08 .03"/>
      <polygon class="cls-50" points="1786.08 109.01 1786.09 136.04 0 135.63 .01 108.15 1786.08 109.01"/>
      <polygon class="cls-35" points="1786.08 102.55 1786.08 109.01 .01 108.15 0 101.74 1786.08 102.55"/>
      <rect class="cls-33" x="0" y="967.19" width="1227.01" height="1.06"/>
      <rect class="cls-33" x="1227.01" y="967.19" width="559.08" height="1.06"/>
      <g>
        <path class="cls-64" d="M1786.09,144.15v700.67s-38.98-.06-38.98-.06l.93-15.76c3.15-1.01,6.02-3.53,5.93-6.71l-.38-13.01c-.08-2.65-5.68-5.9-8.6-5.91l-34.13-.21c-1.26-5.79.04-12,4.32-14.5,18.96,4.16,42.04-9.23,42.29-26.22.1-7.11-4.8-11.39-11.64-11.97-12.63-1.07-23.23,6.27-30.28,16.47-3.3,4.77-3.31,9.47-4.99,17.17l-.64-31.39c-.08-3.86,3.2-8.61,5.6-11.29,19.37,3.77,43.57-11.83,42.93-29.66-.26-7.21-5.47-11.6-12.79-11.67-12.95-.12-23.72,7.98-30.43,19.02-3.57,5.88-3.27,12.33-4.83,19.1l-.56-31.73c7.55-3.02,12.04-8.4,15.98-15.12,1.7-2.89,3.52-5.87,4.19-9.38,1.46-7.71,1.48-15.94-2.94-21.97-4.54-6.19-11.07-8.91-18-5.04-2.13,1.19-6.24,3.58-7.9,5.47-10.82,12.87-10.52,37.09,3.32,46.3l.23,31.49c-.57.2-2.62.61-2.79.11-1.48-4.4,1.21-19.68-10.48-30.09-7.18-6.4-15.92-10.95-25.47-8.79-7.66,1.73-10.6,10.63-7.81,17.28,2.54,6.06,5.51,11.23,10.48,15.13,8.72,6.84,19.1,10.56,29.95,9.8l5.79,10.35.31,32.62-3.43-.12c2.49-20.19-17.46-37.48-36.01-33.98-2.52.48-5.38,3.48-6.89,5.46-2.98,3.9-2.66,6.94-.73,10.97,2.69,5.61,5.68,11.13,10.87,14.67,8.96,6.12,18.88,9.17,29.87,6.82,3.81,3.87,5.04,8.42,4.15,14.78h-32.76c-5.19,0-8.9,3.81-8.97,8.91l-.11,8.91c-.04,3.19,1.99,6.03,4.76,8.24l1.12,15.51-36.9-.22-2.19-.82c1.68-1.84,3.25-5.3,3.25-7.66l.36-493.3c5.05-1.12,10.3-6.56,9.74-13.67-.52-6.62-3.08-14.3-11.66-14.41l-38.73-.49c4.64-9.38.72-17.58-6.77-22.63-1.47-7.36-1.31-16.01-5.97-22.51-2.11-2.95-5.48-7.12-8.62-9.21-15.97-10.6-37.21-10.32-53.16.12-4.4,2.88-7.01,7.84-10,12.32-3.26,4.86-3.74,11.55-4.23,17.86l-8.51,9.67c-1.42,4.36-1.3,8.77.34,14.38l-39.85.11.04-40.49,6.96-5.84-.37-14.73c-.07-2.95-4.64-7.8-7.47-8.26l-134.88-.12c-4.61,0-11.76,1.55-11.86,6.82l-.29,16.02c-.04,2.25,4.21,4.68,6.91,5.64l.09,40.88-43.27.32c-8.64.06-13.93,7.92-12.43,15.57-.71,6.23,2.65,10.79,8.97,12.4l.09,490.2c0,4.71.66,8.13,3.29,11.03l-2.26.83-32.86.02-.43-42.3c-.08-7.52-5.56-12.39-12.18-14.78.83-16.26,2.02-38.6-6.28-50.55-3.53-5.09-6.61-10.39-11.12-14.12-8.8-7.28-18.29-12.35-29.22-15.52-13.2-3.83-26.68-6.33-39.91-6.48l-1.17-.91-1.32-1.06h-214.1s-1.3,1.05-1.3,1.05c-7.15-4.13-15.31-7.3-24.28-7.45l-39.57-.64-.26-27.81c-.15-15.57-17.98-25.48-33.2-25.49l-146.65-.05-11.09.5c-.35-6.96,1.06-13.26-2.02-19.24-5.33-10.37-20.74-13.88-33.68-9.74-7.44,2.38-13.33,8.79-13.34,17.32l-.06,217.6-21.42-.48.12-26.83c0-.75-.73-2.99-.96-2.66l.05-59.67c6.18-2.14,7.13-7.29,7.15-13.2.03-6.65-2.74-13.32-10.81-13.43l-16.33-.22c-1.29-.02-3.17-3.03-2.95-3.81,5.01-5.7,8.84-12.56,9.5-20.73l-4.65-12.3c2.17-1.52,4.72-3.44,5.06-5.29.41-2.23-1.26-5.67-2.6-7.79-4.4-6.96-12.52-10.05-19.82-5.34l-2.58,3.82-12.18.04-3.66-4.63c-7.07-3.4-13.83-.6-18.45,5.12-1.91,2.36-2.99,4.76-3.05,8.19-.04,2.33,2.34,4.25,5.53,5.95l-3.06,7.45c-1.95,4.75-2.02,9.14.5,13.69l6.45,11.63c.59.89-.9,3.91-1.9,3.91h-22.97c3.24-5.43,6.35-12.13,5.84-17.11-1.76-17.07-9.84-24.73-26.39-30.63l-.32-20.01,36.08-.22c4.69-.03,10.01-4.08,9.36-9.03-1.35-10.31-3.4-20.61-7.17-30.29-3.42-8.77-5.52-18.24-11.29-25.28-5.13-6.26-11.14-11.58-19.19-11.87l-25.25-.92c-6.24-.23-12.89-.45-18.01,1.93l-.85-2.29-5.27-82.32c4.92-7.63,5.06-20.94.15-28.75,2.67-45.72,4.81-90.81,4.95-136.01l.17-53.04c7.85,4.86,17.46,4.33,22.72-2.71,4.91-6.57,4.25-16.7-2.57-21.97-6.57-5.08-16.73-4-22.17,2.7-3.54-2.62-7.49-4.67-11.85-4.67h-88.77c-1.83-.01-4.29,1.85-5.29,2.82-1.13,1.09-4.01,1.72-6.43,1.72l-157.31-.03c-1.46,0-3.62-1.08-4.41-1.78-1.43-1.26-4.72-2.76-7.29-2.76l-89.98.18c-2.44.71-6.57,2.94-8.98,4.25-5.46-6.47-15.32-7.31-21.85-2.47-6.54,4.84-7.79,15.05-3.12,21.5,5,6.91,14.98,8.62,22.85,3.35-.34,63.58.95,125.86,4.91,189-4.73,8.28-4.66,21.65.64,28.76l-2.64,30.6-4.59,98.1c-.25,5.4,3.42,10.11,8.65,10.77,6.26.8,12.72.1,19.06.02l15-.19c9.19-.11,27.25,3.95,27.09-10.63l-.08-7.12,248.64.77c-.15,2.92-.33,7.94.85,11.02,1.91,4.99,9.1,6.94,13.79,6.63l13.25-.87,4.61.15,4.31,1.28c-.72,4.18-1.85,9.51-.78,13.53.66,2.47,6.06,5.92,8.7,5.94l35.04.19.25,17.02c.08,5.77-7.45,3.76-18.2,14.79-9.09,9.33-9.99,24.54-1.7,35.98l-43.21.12c-7.66.02-12.67,6-11.6,13.71-.98,5.73,1.32,11.15,7.08,13.15v89.48S0,843.97,0,843.97V143.44s1786.09.71,1786.09.71ZM755.6,464.03l-.36,19.5c-.09,6.28,3.46,10.96,10.25,11.72h279.52s.59,2.22.59,2.22c-.86,9.52,4.11,20.4,13.87,24.4,9.79.39,18.32-16.27,15.36-26.74l25.6-.03c2.98-.02,7.82-5.43,7.81-8.42l-.56-22.58c2.63.01,6.74-1.72,8.41-3.58,3.75-4.18,3.78-16.01.93-20.66-1.62-2.63-5.7-4.02-9.36-4.02l-33.94.03c2.59-3.52,4.19-6.74,4.89-10.8l1.18-6.93,10.91,4.47c2.55,1.05,9.13,2.48,10.42-1.52,2.79-8.69,2.48-19.63-1.3-28.04l-4.33-7.24c-7.32-12.25-26.79-17.29-38.32-7.03l-10.28-2.24c-1.19-4.86-4.4-8.34-8.41-10.8-15.78-9.65-34.34-3.63-43.73,11.33-2.85,4.54-2.91,7.84-2.94,12.55-4.09,9.34-7.05,20.77-2.04,30.38,7.02-.66,13.17-3.94,19.44-7.23.77,8.01,1.77,15.72,4.2,23.01l-33.48.39-9.88-.23.19-31.75c2.77-1.23,5.62-3.84,5.61-7l-.02-9.87c0-4.44-2.99-7.63-7.8-7.63h-82.43c-2.91.01-8.47,1.76-9.27,4.69-1.39,5.16-.97,12.45.27,16.9,1.44.95,4.8,2.9,5.33,4.22l-.71,30.35-12.36-.04c.85-4.17,1.3-8.23.03-12.64l-2.79-9.75-10.12-51.1c-5.96-8.49-12.32-4.55-22.53-2.44l-.62-8.52c-.14-1.96-4.72-4.67-6.71-4.69l-18.6-.22c-.33-2.94-.77-6.56-1.95-8.18-.99-1.37-4.49-2.3-6.47-2.31l-17.12-.07c-3.3-.01-10.47,1.7-10.48,6.24l-.2,93.67-16.82.15c-2.77.03-7.1,1.98-8.48,3.92-3.26,4.6-3.36,16.97.78,20.74,1.94,1.76,6.07,3.45,8.81,3.44ZM530.68,518.13l136.2.1,1.22-1.07c1.59-.11,4.06-2.36,4.07-4.07h2.1v-158.43h-3.17v158.43h3.17v-158.43h-2.12c0-2.73-3.48-3.44-5.32-3.43l-121.37-.85-14.09-.3c-2.54-.05-5.95,2.95-5.95,5.87v155.97c0,2.19,2.96,6.22,5.25,6.22ZM1207.44,627.92c4.51,0,6.91-3.21,6.91-7.12l-.04-69.6c0-2.3-3.14-5.38-5.06-5.4l-21.61-.23c-1.64-3.67-3.98-6.8-6.52-7.48-6.83-1.85-14.1.54-16.26,7.44l-21.48.19c-2.3.02-5.39,2.8-5.38,5.38l.02,70.8c0,3.41,3.36,6.07,6.55,6.07l62.86-.05Z"/>
        <polygon class="cls-3" points="1786.09 136.04 1786.09 142.38 0 142.38 0 135.63 1786.09 136.04"/>
        <polygon class="cls-57" points="1786.09 142.38 1786.09 144.15 0 143.44 0 142.38 1786.09 142.38"/>
        <polygon class="cls-57" points="673.23 513.09 673.22 354.65 674.28 354.65 674.28 513.09 673.23 513.09"/>
        <g>
          <path class="cls-22" d="M1730.05,877.53l-38.19.56c-6.17.6-15.13-3.15-15.85-9.87l-4.17-39.1,70.93-.02-3.91,38.02c-.33,3.21-5.59,10.37-8.81,10.42Z"/>
          <rect class="cls-68" x="1699.26" y="775.64" width="15.16" height="81.59" transform="translate(888.88 2522.55) rotate(-89.95)"/>
          <path class="cls-26" d="M1723.54,682.7c-2.93,11.1-12.16,18.96-15.99,18.6-8.54-.81-12.3-21.33-5.24-34.13l7.08-6.8c3.32-3.19,9.47-2.96,11.93.73,4.4,6.61,4.16,14.27,2.22,21.61Z"/>
          <path class="cls-26" d="M1748.51,723.23c-6.98,9.54-18.4,14.27-30.17,13.66-2.18-9.61,2.16-19.38,9.75-25.06,6.8-5.09,14.69-8.48,22.97-5.28,4.11,4.96,2.7,12.29-2.55,16.68Z"/>
          <path class="cls-26" d="M1695.57,736.88c-10.93.01-19.13-5.16-26.36-11.87-3.96-3.68-6.46-8.61-6.67-14.44-.12-3.32,2.93-6.49,6.08-6.46,16.55.15,31.11,15.96,26.96,32.77Z"/>
          <path class="cls-26" d="M1748.56,771.66c-7.31,9.48-18.29,13.82-30.26,12.57-2.18-10.24,3.05-19.72,12.17-24.75,5.66-3.13,13.66-6.09,19.59-2.1,5.08,3.42,1.76,10.07-1.5,14.29Z"/>
          <path class="cls-26" d="M1695.95,783.86c-15.16,2.7-34.24-8.96-33.61-23.93.27-6.48,17.59-7.85,29.79,7.64,3.42,4.35,4.58,9.89,3.82,16.29Z"/>
        </g>
        <g>
          <path class="cls-7" d="M1631.09,342.83c-.83.18-1.43,2.2-1.43,3.61v488.39s1.06,1.3,1.06,1.3c0,2.36-1.57,5.82-3.25,7.66-4.19,4.59-8.53,2.34-8.52,6.42l.04,18.74c0,3.29-1.02,6.57-1.93,9.1l18.89.31c1.64.03,5.12,2.23,6.61,2.94l8.08-3.07,24.64-.13c-3.2-4.95-5.04-9.1-5.94-14.13l-2.5-13.99-.28-5.17-1.12-15.51c-2.76-2.21-4.79-5.04-4.76-8.24l.11-8.91c.06-5.11,3.78-8.92,8.97-8.92h32.76c.89-6.35-.35-10.9-4.15-14.77-11,2.35-20.91-.7-29.87-6.82-5.19-3.54-8.18-9.07-10.87-14.67-1.94-4.04-2.25-7.07.73-10.97,1.51-1.98,4.37-4.99,6.89-5.46,18.54-3.5,38.49,13.79,36.01,33.98l3.43.12-.31-32.62-5.79-10.35c-10.84.76-21.23-2.96-29.95-9.8-4.97-3.9-7.93-9.07-10.48-15.13-2.79-6.64.15-15.54,7.81-17.28,9.55-2.16,18.29,2.39,25.47,8.79,11.68,10.41,9,25.69,10.48,30.09.17.5,2.22.08,2.79-.11l-.23-31.49c-13.84-9.21-14.14-33.42-3.32-46.3,1.66-1.89,5.77-4.28,7.9-5.47,6.93-3.87,13.46-1.15,18,5.04,4.42,6.03,4.4,14.27,2.94,21.97-.66,3.51-2.49,6.48-4.19,9.38-3.94,6.71-8.43,12.1-15.98,15.12l.56,31.73c1.56-6.77,1.26-13.22,4.83-19.1,6.72-11.04,17.48-19.14,30.43-19.02,7.31.07,12.53,4.46,12.79,11.67.64,17.82-23.56,33.42-42.93,29.66-2.4,2.68-5.68,7.43-5.6,11.29l.64,31.39c1.69-7.7,1.7-12.4,4.99-17.17,7.05-10.2,17.65-17.53,30.28-16.47,6.84.58,11.75,4.87,11.64,11.97-.25,16.99-23.33,30.38-42.29,26.22-4.28,2.49-5.58,8.71-4.32,14.5l34.13.21c2.92.02,8.52,3.27,8.6,5.91l.38,13.01c.09,3.18-2.78,5.7-5.93,6.71l-.93,15.76-.35,5.14-2.04,16.83c-.47,3.88-2.51,7.43-5.29,11.44l46.66.31v5.72s-132.01-.05-132.01-.05c-4.06,0-7.66,1.27-7.66,6.06v25.96c.01,1.27,1.25,3.18,1.86,3.81.82.86,3.02,2.17,4.68,2.17l133.12.06v6.34s-134.11-.28-134.11-.28l-9.46-3.43c-3.96,2.07-7.25,3.5-11.95,3.5l-199.24-.07-8.58-3.68c-3.57,1.93-6.81,3.71-10.92,3.71l-195.23.02c-4.95,0-8.72-1.69-12.93-3.79-2.43,1.24-6.32,3.74-9.56,3.74l-198.4.06c-4.44,0-8.47-1.75-11.85-3.68-4.85,2.22-9.13,3.69-14.87,3.69l-184.69-.06c-3.9,0-7.72-2.48-10.69-3.96-3.01,1.57-6.66,3.98-10.66,3.98l-188.92.02c-5.13,0-9.53-1.67-13.8-3.27-2.54,1.35-6.17,3.25-9.74,3.25h-208.99c-3.59-.01-7.74-2.29-10.64-3.44-4.64,2.1-8.59,3.49-13.95,3.49l-189.91-.08c-3.23,0-7.28-2.35-9.72-3.43-3.54,1.65-7.4,3.45-11.62,3.45L0,927.69v-5.91s107.67.39,107.67.39c2.93,0,6.78-3.03,6.74-5.42l-.52-29.67c-2.87-2.22-5.83-2.94-9.31-2.94L0,883.76v-5.71s108.87.14,108.87.14c2.47,0,6.38,2.27,8.35,3.1,3.24-1.34,6.88-3.14,10.79-3.14l194.22.06c2.68,0,5.54,1.83,7.86,3.21l8.12-3.19,61.07-.1c-.58-1.7-1.58-4.16-1.59-5.25l-.11-14.35-9.48-8.04-.52-5.58v-89.48c-5.77-2.01-8.07-7.43-7.09-13.15-1.07-7.71,3.95-13.69,11.6-13.71l43.21-.12c-8.3-11.44-7.4-26.66,1.7-35.98,10.75-11.03,18.29-9.03,18.2-14.79l-.25-17.02-35.04-.19c-2.64-.01-8.04-3.47-8.7-5.94-1.07-4.03.07-9.35.78-13.53l-4.31-1.28,4.06-1.5-.43-1.68c-.12-.46,1.03-1.08,1.5-1.15l2.48-.36c.38-.05-.2-1.33-.42-1.29,2.53-9.96,4.94-19.99,9.23-29.56l4.38-7.19c2.4-3.94,5.41-7.34,9.16-9.09l6.17-2.88c5.11-2.39,11.77-2.16,18.01-1.93l25.25.92c8.05.29,14.06,5.61,19.19,11.87,5.77,7.03,7.87,16.5,11.29,25.28,3.77,9.68,5.82,19.98,7.17,30.29.65,4.95-4.67,9-9.36,9.03l-36.08.22.32,20.01c16.55,5.9,24.63,13.56,26.39,30.63.52,4.99-2.6,11.68-5.84,17.12h22.97c1,0,2.49-3.02,1.9-3.92l-6.45-11.63c-2.52-4.55-2.45-8.94-.5-13.69l3.06-7.45c-3.19-1.69-5.57-3.62-5.53-5.95.05-3.43,1.14-5.83,3.05-8.19,4.62-5.72,11.39-8.53,18.45-5.12l3.66,4.63,12.18-.04,2.58-3.82c7.31-4.71,15.43-1.62,19.82,5.34,1.34,2.12,3.01,5.56,2.6,7.79-.34,1.85-2.89,3.77-5.06,5.29l4.65,12.3c-.66,8.17-4.5,15.03-9.5,20.73-.22.78,1.66,3.79,2.95,3.81l16.33.22c8.08.11,10.84,6.78,10.81,13.43-.03,5.91-.97,11.06-7.15,13.2l-.05,59.67-.14,34.98c-1.56,3.49-6.13,6.07-10.23,7.66l-.06,14.53c0,1.22-.93,3.8-1.63,5.91l37.41.03c-1.99-4.08-3.2-7.55-3.19-11.13l.08-17.05.02-4.96.06-217.6c0-8.53,5.89-14.94,13.34-17.32,12.94-4.14,28.35-.63,33.68,9.74,3.08,5.99,1.67,12.28,2.02,19.24l11.09-.5,146.65.05c15.22,0,33.05,9.92,33.2,25.49l.26,27.81,39.57.64c8.97.14,17.13,3.32,24.28,7.45l-.09,1.21,1.39.92h216.08s.49-1.21.49-1.21c13.22.16,26.71,2.66,39.91,6.48,10.93,3.17,20.42,8.24,29.22,15.52,4.51,3.73,7.58,9.04,11.12,14.12,8.3,11.95,7.1,34.29,6.28,50.55,6.62,2.39,12.1,7.26,12.18,14.78l-.13,66.71c-.09,2.69-1.81,5.59-3.6,9.05l50.46.1c-1.41-2.87-2.14-5.77-2.13-9.28l.04-13.45-.22-7.58c-4.01-.91-6.91-1.94-8.88-4.11-2.62-2.89-3.29-6.32-3.29-11.03l-.09-490.2c-6.32-1.61-9.68-6.18-8.97-12.4-1.5-7.65,3.79-15.5,12.43-15.57l43.27-.32-.09-40.88c-2.7-.96-6.95-3.39-6.91-5.64l.29-16.02c.1-5.26,7.25-6.82,11.86-6.82l134.88.12c2.83.46,7.39,5.31,7.47,8.26l.37,14.73-6.96,5.84-.04,40.49,39.85-.11c-1.65-5.61-1.76-10.02-.34-14.38l8.51-9.67c.49-6.31.97-13,4.23-17.86,3-4.48,5.6-9.43,10-12.32,15.95-10.44,37.2-10.72,53.16-.12,3.14,2.08,6.51,6.26,8.62,9.21,4.66,6.5,4.5,15.16,5.97,22.51,7.49,5.04,11.41,13.25,6.77,22.63l38.73.49c8.58.11,11.14,7.79,11.66,14.41.56,7.12-4.68,12.56-9.74,13.67ZM1312.2,250.7v17.5s141.8.01,141.8.01v-17.5s-141.8-.01-141.8-.01ZM1561.01,314.4l19.78.03c.63,0,2.75-.59,2.46-.92,3.94-4.34,3.67-10.69-.27-14.96l-4.95-4.9c.53-6.13-1.17-11.85-3.64-17.55-3-6.93-6.95-11.91-14.24-14.92-14.31-5.9-33.97-4.39-44.56,6.78-6.67,7.03-6.83,16.88-8.06,25.47-3.43,2.11-7.07,5.14-8.19,7.82-1.79,4.3-1.18,9.5,2.08,13.02l59.58.12ZM1318.89,312.55c0,.37-.14,1.18.2,1.27l2.1.53,125.68-.04.18-40.74-44.79-.16.35,11.55c-1.03,1.02-3.96,3.16-5.59,3.16h-27.16c-4.39-.02-6.33-4.53-6.33-7.04l.86-7.61-46.46-.03-.08,36.96,1.04,2.15ZM1369.16,279.38c.06.87,1.2,2.89,1.87,3.69l26.53-.42.24-8.87-29.05-.21.41,5.81ZM1629.31,337.39c4.84-.3,6.28-7.08,6.05-9.74-.22-2.52-2.93-5.91-6.59-7.38l-359.76.07c-4.14,0-5.63,5.96-5.69,8.55s.9,7.5,4.62,8.55l361.38-.04ZM1272.31,837.29v4.54s352.12-.03,352.12-.03l-.04-490.34-352.12.03.04,487.28v3.06s5.43,0,5.43,0l346.69-.03v-4.45c.56-.02,1.02-2.05,1.02-3.47l-.02-477.84-.56-12.75h-352.82s-.64,12.75-.64,12.75v479.87s.91,1.39.91,1.39ZM512.59,655c2.32,0,6.26-1.38,6.59-3.14.37-1.93-1.01-5.48-1.62-7.56l-10.49-35.92-3.74-5.91c-3.58-5.65-8.22-11.74-15.73-12.65-13.43-1.61-27.17-1.64-41.08.19-4,.52-10.44,5.58-12.62,8.99-4.12,6.42-6.34,13.74-9.13,20.72-3.99,9.95-5.88,20.18-7.98,31.03-.33,1.68,2.9,4.28,4.87,4.28l90.94-.03ZM655.55,858.35l.1-13.78-13.22-4.07-2.53-5.92.06-30.59c0-4.23,3.88-7.57,7.56-8.71-4.46-3.5-7.59-8.39-7.55-13.86l.19-28.72c.04-5.71,1.83-12.91,5.37-16.71l10.31-11.06-.25-98.36c-.02-8.43-8.86-12.32-16.36-12.7-6.65-.34-19.3,2.41-20.23,11.21l-.22,244.76c0,3.81,4.53,7.76,7.9,7.78l21.35.15c3.92.03,7.39-5.03,7.42-8.6l.08-10.85ZM662.46,652.31l.37,48.92-.35,20.09,19.74-4.12c-7.89-4.66-12.24-13.33-11.18-21.41,1.59-12,15.08-22.31,26.83-27.29,13.36-5.66,27.73-8.38,41.94-8.49l26.27-.52,11.73,1.53c16.03,2.1,30.76,8.09,43.41,19.14l12.79,14.17,13.75-1.85.04-28.48c.01-10.12-14.75-19.43-23.07-19.45l-161.95-.4-.31,8.14ZM1723.54,682.7c1.94-7.34,2.18-15.01-2.22-21.61-2.46-3.69-8.61-3.92-11.93-.73l-7.08,6.8c-7.06,12.8-3.3,33.32,5.24,34.13,3.83.37,13.06-7.5,15.99-18.6ZM458.72,684.67l-12.78,6.84c-4.38,2.35-6.56,8.1-8.85,12.29-4.87,8.91-.78,17.49,7.07,24.56l46.19.07c1.86-.96,5.55-3.26,6.6-4.84,5.75-8.73,4.27-20.32-2.63-27.51-2.91-3.04-6.36-6.25-9.86-7.77l-8.81-3.82-1.21-9.77-.37-14.23-12.62.24-.74,20.13-2,3.81ZM677.08,693.23c-1.84,6.01-.77,12.7,4.1,16.64l10.1,8.17,94.81-.22c9.79-11.71,25.83-18.04,41.1-22.13-11.26-18.14-33.24-28.13-54.66-29.61l-39.15-.26c-17.62-.12-51.33,11.15-56.3,27.42ZM535.86,678.44c-2.14-3.68-6.81-3.54-10.44-1.1-2.84,1.91-5.33,6.44-2.83,9.52l13.27-8.42ZM571.2,686.9c1.23-4.6-.88-7.95-3.64-9.68-3.08-1.92-6.91-2.46-10.27.76l13.91,8.92ZM525.24,715.56c3.35,6.97,9.86,11.89,17.48,13.22,7.62,1.33,15.42-1.09,20.94-6.51,8.73-8.56,9.61-22.32,2.04-31.93-7.57-9.61-21.16-11.98-31.54-5.51-10.38,6.47-14.23,19.71-8.92,30.72ZM842.06,762.89l2.35,1.5.07,29.63,1.99-.03.09-29.04.82-.9.84,7.94-.95,29.23c1.65,1.11,5.4,2.4,8.91,2.4l168.79-.02c.43-5.44,2.64-8.78,6.31-11.99,8.56-7.5,29.61-7.13,38.21,3.31l135.44-.09c3.76-4.28,6.76-6.47,11.52-9.7l.13-26.98c-4.18-8.72-4.13-18.59-12.16-26.94-18.76-19.52-48.71-24.78-75.89-24.79l-218.45-.05c-5.87,0-11.58,1.74-16.71,3.45-.65-.89-.13-2.55-.82-2.81l-3.53-1.49,17.17-4.87c-13.17-3.35-25.96-3.23-39.6-3.28-24.56-.1-47.94,3-68.34,16.69-6.32,4.25-15.8,14.4-18.38,20.81-7.81,19.37-9.55,41.74-7.36,62.53.69,6.55,9.51,8.84,14.7,8.82l45.1-.13c6.29-.02,8.98-5.7,9.08-10.92l.66-32.29ZM1695.57,736.88c4.15-16.81-10.41-32.62-26.96-32.77-3.15-.03-6.2,3.14-6.08,6.46.21,5.82,2.71,10.76,6.67,14.44,7.24,6.72,15.44,11.89,26.36,11.87ZM1748.51,723.23c5.25-4.39,6.66-11.72,2.55-16.68-8.28-3.2-16.17.19-22.97,5.28-7.59,5.68-11.93,15.45-9.75,25.06,11.78.61,23.19-4.11,30.17-13.66ZM766.53,794.81l.19-29.81c.69-9.94,1.88-20,5.85-28.86l7.79-12.97-95.46.06c-20.95.01-38.03,9.42-38.08,30.55l-.06,27.6c-.02,7.36,6.31,13.45,13.94,13.45l105.83-.02ZM589.28,750.2c3.33-2.29,3.54-4.57,3.76-8.13.15-2.34-1.41-7.83-4.89-7.83l-195.69-.05c-2.05,0-5.01,1.16-5.64,2.49-2.84,6.05-.46,13.46,3.05,13.47l199.4.06ZM1695.95,783.86c.76-6.4-.39-11.95-3.82-16.29-12.2-15.49-29.52-14.12-29.79-7.64-.63,14.97,18.45,26.63,33.61,23.93ZM567.93,755.73v81.62c0,2.88-4.97,5.72-7.89,5.72l-138.28.08c-3.52,0-10.71-1.31-10.72-5.75l-.13-81.52-16.87-.03.05,88.83c0,2.35,1.72,7.25,4.6,7.25l178.23.02c4.01,0,7.4-2.06,7.39-6.34l-.05-89.73-16.34-.17ZM417.44,794.21v.93s.41,4.81.41,4.81c-.27.63-1.04,2.78-1.05,3.77l-.15,29.29c-.02,3.14,2.03,5.02,5.14,5.02h136.02c1.93,0,4.12-2.29,4.1-3.93l-.36-34.01v-5.01s.33-33.95.33-33.95c0-.93-.97-2.75-1.64-3.31-1.09-.91-3.25-1.67-5.44-1.67l-134-.04c-1.29,0-4.13,2.12-4.15,3.42l-.38,30.29c-.02,1.22.51,3.86,1.15,4.39ZM1748.56,771.66c3.26-4.22,6.58-10.87,1.5-14.29-5.93-3.99-13.93-1.03-19.59,2.1-9.12,5.03-14.34,14.51-12.17,24.75,11.97,1.26,22.94-3.09,30.26-12.57ZM1058.55,877.49c2.24-.06,5.85-4.6,7.3-6.18l-.36-68.05c-.05-8.96-11.16-11.4-18.03-11.2-6.83.19-15.7,2.23-15.71,10.56l-.03,67.15c0,4.76,5.04,8.34,9.18,8.22l17.64-.5ZM1210.47,837.19c-2.47,4.91-7.01,7.77-13.29,6.62-1.65.32-5.33,1.19-5.12,1.3,2.49,10.48.25,25.13-.52,23.72l1.41,2.58c3.95,7.24,6.26,6.73,14.92,6.61,11.47-.16,15.94,1.72,20.19-9.08v-67.66c-1.32-2.97-4.67-6.69-7.71-8.09-2.47-1.15-6.24.13-7.65,1.71-2.31,2.59-2.33,4.95-2.32,8.56l.08,33.74ZM650.03,838.31l374.96.02.03-28.86-10.41-.02-174.73-.08c-2.85.97-6.27,2.03-9.11,2.04l-45.59.03c-7.54,0-16.14-3.42-17.63-10.93h-116.45c-2.06,0-4.43,2.08-4.43,3.87l-.08,27.63c0,1.87,1.91,4.51,3.45,6.3ZM1204.95,833.91l.24-31.49c-.93-.72-3.62-1.96-4.78-1.96l-129.27.08.3,37.64h124.87c2.74.75,8.61-1.16,8.64-4.28ZM1666.05,808.82v15.16s81.58.07,81.58.07v-15.16s-81.58-.07-81.58-.07ZM1730.05,877.53c3.22-.05,8.48-7.21,8.81-10.42l3.91-38.02-70.93.02,4.17,39.1c.72,6.72,9.68,10.47,15.85,9.87l38.19-.56ZM661.87,844.72l.39,20.03c.09,4.77-1.33,9.52-3.79,13.41l108.51.08,7.25,3.43c3.03-1.75,5.71-3.48,9.02-3.48h194.18c4.18,3.05,8.19,3.7,12.13.05l38.82-.05c-1.66-3.03-3.38-6.76-3.36-10.08l.12-22.37-1.38-1.07-361.88.04ZM1071.37,845.75l-.09,23.32c-.01,2.91-1.91,6.77-3.59,9.12h121.39c-1.13-2.56-2.63-6.26-2.63-9.04l-.04-23.68-111.62-.78c-.78,0-3.2.6-3.43,1.07ZM1284.22,855.99c-.05,5-.44,12,.41,16.09,1.85,6.18,7.55,5.91,12.05,6,5.07.1,10.56-.24,11.83-6.3l3.16-15.09,1.71-8.85-29.08-.03-.08,8.19ZM1423.28,881.64l7.86-3.49,154.01.05-6.07-30.42-259.97-.04-4.02,21.58c-.54,2.91-1.67,5.81-3.29,8.84l105.17.06,6.31,3.42ZM1586,856.29l1.84,5.7,1.61,7.84c1.38,6.68,5.23,8.63,11.96,8.17,3.27-.22,11.04-.07,11.14-4.72.45.57,1.36-1.98,1.34-2.81l-.46-22.68-28.64.03,1.19,8.47ZM404.84,874.24c.04,1.64,3.27,3.81,4.99,3.77l9.64-.24c5.25-2.44,6.22-7.71,6.95-11.93l1.4-8.14-23.77.08-.36,14.04c-.01.58.82,3.03,1.15,2.41ZM549.27,878.19l-4.29-20.57h-111.94c-1,7.41-1.67,13.26-4.38,20.54l120.62.03ZM551.58,865.4l1.82,5.67c1.52,4.75,3.58,7.13,9.06,6.84,2.07-.11,6.9.04,8.82-1,3.28-1.78,2.8-7.51,2.75-10.63l-.12-8.68-23.53.16,1.21,7.65ZM120.09,918.25c.68,1.71,4.84,3.9,6.89,3.9l194.2.03c2.54,0,6.2-2.48,6.17-4.58l-.38-29.42c-.03-2.65-4.32-4.04-6.85-4.04l-192.12.02c-3.24,0-8.16,1.78-8.14,5.15l.23,28.95ZM333.95,915.58c0,3.01,2.24,6.55,6.5,6.55h211.07c3.29.01,5.98-2.42,5.95-4.35l.75-27.81c.03-3.34-3.13-5.83-6.75-5.83h-211.93c-2.65,0-5.64,3.67-5.63,5.73l.05,25.71ZM566.16,919.73c1.05.81,3.23,2.4,4.65,2.4h192.13c3.62.01,7.35-2.05,7.29-5.62l-.44-28.7c-.04-2.67-4.27-3.7-6.86-3.7l-193.56.04c-10.9,7.09-2.23,11.64-4.47,24.48-2.19,4.33-1.26,9.15,1.26,11.1ZM780.23,922.04l191.93.13c3.17.43,6.9-1.23,6.88-3.27l.86-25.73c.03-2.25.23-5-.6-6.35-1.4-2.26-4.1-2.66-7.12-2.66h-187.85c-4.09-.01-7.37,1.7-7.4,5.94l-.18,26.66,3.48,5.29ZM986.92,918.1c.02,1.55,4.05,4.02,5.61,4.02l201.6.02c3.3,0,6.28-2.74,6.29-5.54l.04-26.55c0-3.96-3.16-5.94-7.4-5.94l-201.42.04c-2.28,0-5.13,3.7-5.1,5.67l.39,28.27ZM1209.7,920.71l3.64,1.46,198.47-.03c2.33-.06,5.29-.73,6.4-1.83s1.94-3.99,1.93-5.77l-.23-25.33c-.03-3.03-4.27-5.93-7-5.09l-201.28.05c-3.19,0-4.67,4.63-4.67,6.72l.02,24.78c0,1.44,1.43,4.51,2.71,5.02ZM1428.06,919.82l4.13,2.34,200.52-.04c3.29,0,6.05-2.4,7.02-4.8l.06-28.22-1.38-2.24c-.69-1.12-2.9-2.73-4.82-2.73h-199.28c-4.8-.54-7.79,2.34-7.76,7.14l.15,24.99c0,.81,1.13,3.18,1.36,3.55Z"/>
          <path class="cls-62" d="M613.17,845.01l-.02,4.96-22.37.05.14-34.98c.23-.32.96,1.91.96,2.66l-.12,26.83,21.42.48Z"/>
          <g>
            <path class="cls-8" d="M1786.08,928.55v34.42S0,962.53,0,962.53v-34.85s105.64.59,105.64.59c4.22,0,8.08-1.8,11.62-3.45,2.43,1.09,6.48,3.43,9.72,3.43l189.91.08c5.36,0,9.3-1.39,13.95-3.49,2.9,1.15,7.05,3.42,10.64,3.42h208.99c3.57.01,7.2-1.89,9.74-3.24,4.27,1.6,8.68,3.27,13.8,3.27l188.92-.02c3.99,0,7.64-2.41,10.66-3.98,2.97,1.48,6.79,3.96,10.69,3.96l184.69.06c5.74,0,10.02-1.47,14.87-3.69,3.39,1.93,7.42,3.69,11.85,3.68l198.4-.06c3.24,0,7.12-2.5,9.56-3.74,4.21,2.09,7.98,3.79,12.93,3.79l195.23-.02c4.11,0,7.35-1.78,10.92-3.71l8.58,3.68,199.24.07c4.7,0,7.98-1.43,11.95-3.5l9.46,3.43,134.11.28Z"/>
            <path class="cls-53" d="M388.11,850.49l9.48,8.04.11,14.35c0,1.09,1,3.55,1.59,5.25l-61.07.1-8.12,3.19c-2.32-1.38-5.19-3.21-7.86-3.21l-194.22-.06c-3.91,0-7.55,1.8-10.79,3.14-1.97-.84-5.88-3.1-8.35-3.1L.01,878.05v-27.45s388.1-.11,388.1-.11Z"/>
            <polygon class="cls-7" points="1786.09 962.97 1786.09 967.19 0 967.19 0 962.53 1786.09 962.97"/>
            <path class="cls-62" d="M1786.09,889.04v33.17s-133.12-.06-133.12-.06c-1.66,0-3.86-1.31-4.68-2.17l2.82-4.88.11-22.69c0-1.26,2.29-3.77,3.72-3.78l49.82-.33,69.65.23,11.68.5Z"/>
            <path class="cls-62" d="M0,921.78v-33.17s28.57-.27,28.57-.27l19.02-.2,33.21.2,24.9-.07,8.21-1.2.52,29.67c.04,2.39-3.81,5.42-6.74,5.42L0,921.78Z"/>
            <polygon class="cls-65" points="387.59 844.91 388.11 850.49 0 850.59 0 843.97 387.59 844.91"/>
            <path class="cls-42" d="M1786.09,851.46v27.02s-46.65-.31-46.65-.31c2.78-4.01,4.82-7.56,5.29-11.44l2.04-16.83,39.32,1.56Z"/>
            <path class="cls-44" d="M1786.08,884.2v4.84s-11.66-.5-11.66-.5l-69.65-.23-49.82.33c-1.43,0-3.72,2.52-3.72,3.78l-.11,22.69-2.82,4.88c-.61-.63-1.85-2.55-1.85-3.81v-25.96c-.02-4.79,3.59-6.06,7.64-6.06l131.99.05Z"/>
            <path class="cls-49" d="M113.89,887.07l-8.21,1.2-24.9.07-33.21-.2-19.02.2-28.55.27v-4.85s104.57.38,104.57.38c3.48,0,6.44.72,9.31,2.94Z"/>
            <polygon class="cls-62" points="1786.09 844.82 1786.09 851.46 1746.77 849.89 1747.11 844.76 1786.09 844.82"/>
            <path class="cls-62" d="M1269.44,843.81c1.97,2.17,4.86,3.2,8.88,4.11l.22,7.58-.98-5.1-43.18.19-.6,18.48.13-66.71.43,42.3,32.86-.02,2.26-.83Z"/>
            <path class="cls-65" d="M1666.58,844.81l.28,5.17-47.9.22c0-4.08,4.34-1.83,8.52-6.42l2.19.82,36.9.22Z"/>
            <path class="cls-53" d="M1025.13,845.74l-.12,22.37c-.02,3.32,1.7,7.05,3.36,10.08l-38.82.05c-3.94,3.64-7.94,2.99-12.13-.05h-194.18c-3.31,0-5.98,1.73-9.02,3.48l-7.25-3.43-108.51-.08c2.46-3.89,3.88-8.64,3.79-13.41l-.39-20.03,363.25,1.02Z"/>
            <path class="cls-42" d="M1423.28,881.64l-6.31-3.42-105.17-.06c1.62-3.03,2.75-5.92,3.29-8.84l4.02-21.58,259.97.04,6.07,30.42-154.01-.05-7.86,3.49Z"/>
            <path class="cls-62" d="M557.46,917.78c.04,1.93-2.66,4.36-5.95,4.36h-211.07c-4.26-.01-6.5-3.55-6.5-6.56,1.11.31,4.1-.55,5.19-1.39l.03-21.05c0-2.34,2.85-4.49,5.23-4.51l32.14-.16,65.36-.14,101.29-.17c4.71,0,9.3.88,13.71,1.89l.57,27.74Z"/>
            <path class="cls-62" d="M1200.46,890.06l-.04,26.55c0,2.8-2.98,5.54-6.29,5.54l-201.6-.02c-1.55,0-5.59-2.47-5.61-4.02l5.18-3.87-.19-21.21c-.02-2.18,2.18-4.4,4.59-4.41l40.17-.21,24.4-.09,22.3-.11,109.33.16c1.16,0,3.94.68,4.55,1.52.73,1.01,1.33,3.07,1.9,4.67l1.31-4.48Z"/>
            <path class="cls-6" d="M1419.91,889.21l.23,25.33c.02,1.78-.86,4.71-1.93,5.77s-4.07,1.77-6.4,1.83l-198.47.03-3.64-1.46c1.11-.08,1.56-.22,1.37-.41l-2.19-2.29,3.47-2.98-.15-23.04c-.01-1.52,3.4-3.35,5.1-3.37l28.9-.3,171.75.23.4,5.25.83.58.72-5.17Z"/>
            <path class="cls-62" d="M1428.06,919.82l4.3-4.57.73-26.44,57.21-.47,59.05-.23,42.27.37,44.23.23,2.57-1.85,1.38,2.24-.06,28.22c-.97,2.4-3.73,4.8-7.02,4.8l-200.52.04-4.13-2.34Z"/>
            <path class="cls-62" d="M326.97,888.17l.38,29.42c.03,2.11-3.63,4.58-6.17,4.58l-194.2-.03c-2.05,0-6.2-2.19-6.89-3.9l5.16-3.22.57-25.98,54.63-.77,75.33.05,62.2-.04,8.98-.12Z"/>
            <path class="cls-62" d="M769.79,887.83l.44,28.7c.06,3.57-3.68,5.63-7.29,5.63h-192.13c-1.42-.01-3.6-1.6-4.65-2.41-.02-1.94,1.97-3.36,4.1-4.44l.55-26.17,51.73-.67,120.38-.41,23.46.92c.61.02,2.53,1.56,2.63,1.17l.78-2.31Z"/>
            <path class="cls-62" d="M979.04,918.9c.02,2.04-3.71,3.7-6.88,3.27l-191.93-.13,1.38-7.81.63-22.15c.05-1.59,3.05-3.51,5.11-3.52l93.92-.39,97.41.28.36,30.45Z"/>
            <path class="cls-53" d="M1071.37,845.75l115.05-.29.04,23.68c0,2.78,1.51,6.48,2.63,9.05h-121.39c1.67-2.36,3.58-6.21,3.59-9.12l.09-23.32Z"/>
            <path class="cls-42" d="M1666.85,849.98l2.5,13.99c.9,5.03,2.74,9.18,5.94,14.13l-24.64.13-8.08,3.07c-1.5-.71-4.97-2.92-6.61-2.94l-18.89-.31c.91-2.53,1.94-5.81,1.93-9.1l-.04-18.74,47.9-.22Z"/>
            <path class="cls-53" d="M1278.54,855.51l-.04,13.45c0,3.51.72,6.42,2.13,9.28l-50.46-.1c1.78-3.46,3.51-6.37,3.6-9.05l.6-18.48,43.18-.19.98,5.1Z"/>
            <path class="cls-32" d="M557.46,917.78l-.57-27.74c-4.41-1.01-9-1.9-13.71-1.89l-101.29.17-65.36.14-32.14.16c-2.38.01-5.23,2.17-5.23,4.51l-.03,21.05c-1.08.85-4.08,1.71-5.19,1.39l-.05-25.71c0-2.07,2.99-5.74,5.63-5.74h211.93c3.62,0,6.78,2.5,6.75,5.84l-.75,27.81Z"/>
            <path class="cls-44" d="M1638.41,886.87l-2.57,1.85-44.23-.23-42.27-.37-59.05.23-57.21.47-.73,26.44-4.3,4.57c-.23-.37-1.35-2.75-1.36-3.55l-.15-24.99c-.03-4.8,2.96-7.67,7.76-7.13h199.28c1.92-.01,4.13,1.59,4.82,2.71Z"/>
            <path class="cls-32" d="M1419.91,889.21l-.72,5.17-.83-.58-.4-5.25-171.75-.23-28.9.3c-1.7.02-5.11,1.85-5.1,3.37l.15,23.04-3.47,2.98,2.19,2.29c.19.2-.27.33-1.37.41-1.28-.51-2.71-3.59-2.71-5.02l-.02-24.78c0-2.1,1.47-6.72,4.67-6.72l201.28-.05c2.73-.84,6.97,2.06,7,5.09Z"/>
            <path class="cls-44" d="M769.79,887.83l-.78,2.31c-.1.38-2.02-1.15-2.63-1.17l-23.46-.92-120.38.41-51.73.67-.55,26.17c-2.13,1.08-4.13,2.5-4.1,4.44-2.52-1.94-3.45-6.76-1.26-11.1,2.24-12.83-6.42-17.39,4.47-24.48l193.56-.04c2.59,0,6.82,1.03,6.86,3.7Z"/>
            <path class="cls-32" d="M1200.46,890.06l-1.31,4.48c-.57-1.6-1.17-3.66-1.9-4.67-.61-.84-3.38-1.51-4.55-1.52l-109.33-.16-22.3.11-24.4.09-40.17.21c-2.41.01-4.61,2.23-4.59,4.41l.19,21.21-5.18,3.87-.39-28.27c-.03-1.97,2.83-5.67,5.1-5.67l201.42-.04c4.25,0,7.41,1.98,7.4,5.94Z"/>
            <path class="cls-44" d="M326.97,888.17l-8.98.12-62.2.04-75.33-.05-54.63.77-.57,25.98-5.16,3.22-.23-28.95c-.03-3.37,4.9-5.15,8.14-5.15l192.12-.02c2.53,0,6.82,1.4,6.85,4.04Z"/>
            <path class="cls-44" d="M979.04,918.9l-.36-30.45-97.41-.28-93.92.39c-2.06,0-5.07,1.93-5.11,3.52l-.63,22.15-1.38,7.81-3.48-5.29.18-26.66c.03-4.24,3.31-5.95,7.4-5.95h187.85c3.02.01,5.72.41,7.12,2.67.84,1.36.63,4.11.6,6.35l-.86,25.73Z"/>
            <path class="cls-53" d="M613.15,849.97l-.08,17.05c-.02,3.58,1.2,7.05,3.19,11.13l-37.41-.03c.7-2.12,1.63-4.7,1.63-5.91l.06-14.53c4.1-1.59,8.67-4.16,10.23-7.66l22.37-.05Z"/>
            <path class="cls-6" d="M1311.68,856.69l-3.16,15.09c-1.27,6.06-6.76,6.4-11.83,6.3-4.49-.09-10.2.18-12.05-6-.86-4.09-.46-11.1-.41-16.09l27.45.7Z"/>
            <polygon class="cls-34" points="1311.68 856.69 1284.22 855.99 1284.3 847.8 1313.38 847.84 1311.68 856.69"/>
          </g>
          <g>
            <polygon class="cls-62" points="1134.04 700 1135.2 700.91 917.23 701.2 917.32 699.99 1134.04 700"/>
            <polygon class="cls-45" points="1134.04 700 917.32 699.99 918.62 698.94 1132.72 698.94 1134.04 700"/>
            <path class="cls-47" d="M848.23,771.99c.35-10.77.76-22.51,6.13-32.46,8.73-16.15,21.78-23.98,39.03-29.72,5.13-1.71,10.84-3.45,16.71-3.45l218.45.05c27.18,0,57.13,5.27,75.89,24.79,8.02,8.35,7.98,18.22,12.16,26.94l-.13,26.98c-4.76,3.23-7.76,5.42-11.52,9.7l-135.44.09c-8.6-10.45-29.66-10.81-38.21-3.31-3.66,3.21-5.88,6.56-6.31,11.99l-168.79.02c-3.51,0-7.26-1.29-8.91-2.4l.95-29.23Z"/>
            <path class="cls-13" d="M1014.62,809.46l.07,27.83-364.66,1.02c-1.54-1.79-3.45-4.43-3.45-6.3l.08-27.63c0-1.78,2.37-3.87,4.43-3.87h116.45c1.49,7.51,10.09,10.93,17.63,10.93l45.59-.03c2.84,0,6.26-1.07,9.11-2.04l174.73.08Z"/>
            <path class="cls-70" d="M766.53,794.81l-105.83.02c-7.63,0-13.95-6.08-13.94-13.45l.06-27.6c.05-21.12,17.13-30.54,38.08-30.55l95.46-.06-7.79,12.97c-3.97,8.86-5.17,18.92-5.85,28.86l-.19,29.81Z"/>
            <path class="cls-65" d="M642.44,840.51c1.58,6.4,7.49,13.87,13.11,17.85l-.08,10.85c-.03,3.57-3.5,8.62-7.42,8.6l-21.35-.15c-3.37-.02-7.9-3.98-7.9-7.78l.22-244.76c.93-8.8,13.58-11.55,20.23-11.21,7.5.38,16.34,4.27,16.36,12.7l.25,98.36-10.31,11.06c-3.54,3.79-5.33,11-5.37,16.71l-.19,28.72c-.04,5.47,3.09,10.36,7.55,13.86-3.68,1.15-7.56,4.48-7.56,8.71l-.06,30.59,2.53,5.92Z"/>
            <path class="cls-17" d="M786.1,717.82l-96.08-.95.64-1.01,44.08-.05-5.29-5.7c-4.76-5.13-12.32-7.45-18.38-11.07-7.07-4.22-15.07-8.21-23.73-5.52-2.94.91-5.23.98-8.27-.35-.7.74-2.22,2.33-1.99.08,4.97-16.26,38.68-27.53,56.3-27.42l39.15.26c21.42,1.48,43.4,11.47,54.66,29.61-15.27,4.09-31.31,10.42-41.1,22.13Z"/>
            <path class="cls-50" d="M1204.95,833.91c-.02,3.11-5.89,5.03-8.64,4.28h-124.87s-.3-37.65-.3-37.65l129.27-.08c1.16,0,3.85,1.24,4.78,1.96l-.24,31.49Z"/>
            <path class="cls-6" d="M1058.55,877.49l-17.64.5c-4.15.12-9.19-3.46-9.18-8.22l.03-67.15c0-8.33,8.88-10.37,15.71-10.56,6.86-.19,17.98,2.25,18.03,11.2l.36,68.05c-1.46,1.58-5.06,6.12-7.3,6.18Z"/>
            <path class="cls-66" d="M777.81,661.03l-11.73-1.53-23.89-.7c-.57-.02-2.97.76-2.38,1.21-14.21.11-28.57,2.83-41.94,8.49-11.75,4.97-25.24,15.29-26.83,27.29l-7.23-.75-.99,6.18-.37-48.92c2.91-2.19,6.9-6.31,10.82-7.21l112.5-.02.62.83-9.09.45,1.5,8.65-1,6.03Z"/>
            <path class="cls-50" d="M777.81,661.03l1-6.03-1.5-8.65,9.09-.45-.62-.83-112.5.02c-3.92.9-7.91,5.01-10.82,7.21l.31-8.14,161.95.4c8.32.02,23.09,9.33,23.07,19.45l-.04,28.48-13.75,1.85-12.79-14.17c-12.65-11.05-27.38-17.04-43.41-19.14Z"/>
            <path class="cls-20" d="M1207.87,878.02c-.11-.18-1.18-1.03-.79-1.13l3.33-.79.33-26.15-.27-12.76-.08-33.74c0-3.61.01-5.97,2.32-8.56,1.41-1.58,5.18-2.86,7.65-1.71,3.04,1.41,6.39,5.12,7.72,8.09v67.66c-4.26,10.8-8.72,8.92-20.19,9.08Z"/>
            <path class="cls-63" d="M786.1,717.82l-94.81.22-10.1-8.17c-4.87-3.94-5.94-10.63-4.1-16.64-.23,2.25,1.29.66,1.99-.08,3.04,1.33,5.33,1.27,8.27.35,8.66-2.69,16.66,1.3,23.73,5.52,6.05,3.61,13.62,5.94,18.38,11.07l5.29,5.7-44.08.05-.64,1.01,96.08.95Z"/>
            <polygon class="cls-34" points="650.03 838.31 1014.69 837.29 1014.62 809.46 1025.03 809.48 1024.99 838.34 650.03 838.31"/>
            <path class="cls-26" d="M1207.87,878.02c-8.66.12-10.97.63-14.92-6.61l-1.41-2.58c.77,1.41,3-13.24.52-23.72-.21-.1,3.47-.98,5.12-1.3,6.28,1.16,10.82-1.71,13.29-6.62l.27,12.76-.33,26.15-3.33.79c-.4.09.67.95.79,1.13Z"/>
            <g>
              <path class="cls-64" d="M889.04,705.52c-8.43,2.39-15.83,6.86-23.03,11.93l-11.2,10.91c-6.66,6.49-8.63,16.14-10.68,25.29l-2.07,9.23-.66,32.29c-.11,5.22-2.8,10.91-9.08,10.92l-45.1.13c-5.19.01-14.01-2.27-14.7-8.82-2.19-20.79-.45-43.16,7.36-62.53,2.58-6.41,12.06-16.56,18.38-20.81,20.4-13.7,43.78-16.8,68.34-16.69,13.64.06,26.43-.06,39.6,3.28l-17.17,4.87Z"/>
              <path class="cls-23" d="M893.39,709.82c-17.25,5.74-30.3,13.56-39.03,29.72-5.38,9.95-5.78,21.69-6.13,32.46l-.84-7.94-.82.9-.09,29.04-1.99.03-.07-29.63-2.35-1.5,2.07-9.23c2.05-9.15,4.02-18.8,10.68-25.29l11.2-10.91c7.2-5.07,14.6-9.54,23.03-11.93l3.53,1.49c.69.26.18,1.91.82,2.81Z"/>
            </g>
            <polygon class="cls-28" points="1025.13 845.74 661.87 844.72 1023.75 844.67 1025.13 845.74"/>
            <path class="cls-67" d="M671.04,695.79c-1.07,8.08,3.29,16.75,11.18,21.41l-19.74,4.12.35-20.09.99-6.18,7.23.75Z"/>
            <polygon points="1135.2 700.91 1134.71 702.11 918.62 702.11 917.23 701.2 1135.2 700.91"/>
            <path class="cls-9" d="M1186.42,845.46l-115.05.29c.23-.47,2.65-1.07,3.43-1.07l111.62.78Z"/>
            <path class="cls-11" d="M655.55,858.35c-5.62-3.98-11.53-11.45-13.11-17.85l13.22,4.07-.1,13.78Z"/>
            <path class="cls-50" d="M766.07,659.5l-26.27.52c-.59-.45,1.81-1.23,2.38-1.21l23.89.7Z"/>
          </g>
        </g>
        <g>
          <path class="cls-37" d="M881.94,405.47l.82,16.69c.06.15,1.67-1.78,1.7-2.33l.83-13.46.46,26.43.71,1.05v2.07s77.33.07,77.33.07l-8.68,1.49c-.04-1.6,0,.14.07,2.43l14.69.41.19-4.39,9.88.23-8.15,1.14,3.01,2.89h62.52s.62.97.62.97l-8.78.45-47.29-.23-21.36.24-206.27.14c-4.42,0-5.39,5.98-5.38,8.53.01,3.03,2.41,7.79,6.79,7.79h53.69s1.16,5.37,1.16,5.37l-17.8-.04-.91,1.04,2.08,17.61c5.54,1.92,10.96,1.5,16.09-.15l.81-13.28,2.13,10.22c.9-5.17.95-9.91,1.03-14.89l.86-.58.09,18.19c.02,4.15-4.09,7.24-8.34,7.15l-10.65-.24c-4.9-.11-7.78-4.99-8.13-9.27l-1.23-15.25-30.9.09c-2.74,0-6.87-1.67-8.81-3.44-4.15-3.78-4.04-16.14-.78-20.74,1.38-1.95,5.71-3.9,8.48-3.92l16.82-.15.2-93.67c0-4.54,7.18-6.26,10.48-6.24l17.12.07c1.98,0,5.47.94,6.47,2.31,1.18,1.62,1.62,5.24,1.95,8.18l18.6.22c1.99.02,6.57,2.73,6.71,4.69l.62,8.52c10.2-2.11,16.56-6.05,22.53,2.44l10.12,51.1,2.79,9.75c1.26,4.4.82,8.46-.03,12.64l12.36.04.71-30.35ZM777.68,359.84l.06,59.06v4.55s0,11.56,0,11.56c-.36.22,1.88.92,2.7.91l21.56-.17-.02-94.36-23.95-.08-.34,18.53ZM827.06,351.82l-19.94.02.09,84.07,19.94-.02-.09-84.07ZM856.24,435.94c2.26.13,7.94-2.45,7.4-5.15l-8.57-43.31-5.77-25.24-16.61,3.78,10.56,51.85,4.16,17.56,8.82.5ZM841.51,435.56l-7.94-38-.36,38.26,8.3-.27Z"/>
          <path class="cls-65" d="M1060.03,408.52l.19,27.25-38.3.07-5.1-4.7-2.14-21.15c2.83-2,6.74-3.28,10.12-3.56,1.75,8,2.46,14.4,9.31,19.44,5.62-1.33,11.93-4.75,17.29-7.89,3.31-2.63,4.83-4.65,8.63-9.46Z"/>
          <path class="cls-51" d="M1063.01,387.28l1.39-2.5,13.26,10.57,8.72,10.29c-1.27-10.03-7.94-18.82-17.15-21.98l-6.26-2.37c8.54-4.16,16.05-2.95,22.95,2.48,9.77,7.68,12.31,20.99,9.62,34.56-12.49-4.05-23.8-9.83-28.91-22.25l-3.62-8.79Z"/>
          <path class="cls-30" d="M1031.49,384.04c-9.83,5.68-21.58,3.88-33.57,1.68,1.05-6.44,4.93-10.97,10.03-14.46,11.63-7.96,27.03-5.64,34.47,6.54-4.86.54-7.63,2.65-10.93,6.23Z"/>
          <path class="cls-50" d="M1045.12,383.05l2.09,4.56c-2.54,5.66-6.77,11.46-4.2,18.87l6.04-9.95c2.13-3.52,4.8-7.61,8.93-6.83,2.55,11.98-5.1,22.16-15.52,27.35l-7.23,3.6c-7.08-15.28-4.66-37.63,9.9-37.59Z"/>
          <path class="cls-26" d="M1066.02,490.27c5.44,1.65,6.97,19.35-6.16,27.17l-6.12-7.92c-2.41-3.12-3.51-8.48-3.11-12.22.38-3.52,4.57-7.89,8.16-9.23l7.23,2.19Z"/>
          <path class="cls-55" d="M1002.93,393.58l.98,9.82,1.5,4.7-11.77,5.79c-2.91-8.42-1.47-16.18,5.08-21.61l4.21,1.29Z"/>
          <path class="cls-38" d="M1057.98,389.69c-4.12-.77-6.8,3.32-8.93,6.83l-6.04,9.95c-2.58-7.41,1.66-13.21,4.2-18.87l-2.09-4.56c5.22-1.58,11.62.82,12.86,6.64Z"/>
          <path class="cls-6" d="M1066.26,405.37c9.41,7.77,8.73,22.72.25,29.68l-.25-29.68Z"/>
          <path class="cls-1" d="M1063.01,387.28c-1.04-2.52-1.98-5.05-.05-6l6.26,2.37c9.21,3.16,15.88,11.96,17.15,21.98l-8.72-10.29-13.26-10.57-1.39,2.5Z"/>
          <path class="cls-56" d="M1016.66,392.36l-2,9.67c-2.39,2.18-6.36,4.65-9.25,6.07l-1.5-4.7c1.53.3,4.74-.24,4.68-1.57l-.23-4.92-.07-4.36,8.37-.2Z"/>
          <polygon class="cls-50" points="1014.66 402.04 1016.66 392.36 1026.52 392.13 1024.9 402.09 1014.66 402.04"/>
          <g>
            <path class="cls-27" d="M814.84,481.56l1.84-.07.38-15.94,208.2-.02-.62-1.06h-41.13s2.49-1.12,2.49-1.12l41.65.23,4.84,15.03c9.09,1.67,21.96-5.39,27.63-13.3l-.02,17.35c-8.43,1.37-13.78,6.81-14.5,14.82l-.59-2.21h-279.52c-6.79-.78-10.34-5.46-10.25-11.74l.36-19.5,30.9-.09,1.23,15.25c.34,4.27,3.23,9.15,8.13,9.27l10.65.24c4.25.1,8.36-3,8.34-7.15Z"/>
            <path class="cls-3" d="M1107.69,464.11l-13.71-.07c2.84,13.21,2.27,27.21-7.32,24.91-8.44-2.02-15.38-4.81-20.31-12.08l-.55,6.78c4.95,2.98,7.7,6.78,9.03,11.5,2.96,10.47-5.57,27.13-15.36,26.74-9.75-4-14.72-14.88-13.87-24.4.72-8.01,6.07-13.45,14.5-14.82l.02-17.35c-5.67,7.91-18.54,14.97-27.63,13.3l-4.84-15.03-41.65-.23-2.49,1.13-167.54.02.71,16.99-1.84.07-.09-18.19-.86.58c-.08,4.98-.12,9.72-1.03,14.89l-2.13-10.22-.61-4.14-18.36-.04.91-1.04,17.8.04-1.16-5.37h220.8c.33-6.52,3.04-11.81,7.84-15.49l-8.82-.97,8.78-.45-.62-.96h-62.52s-3.01-2.9-3.01-2.9l8.15-1.14,33.48-.39c-2.44-7.28-3.44-15-4.2-23.01-6.27,3.3-12.42,6.57-19.44,7.23-5.01-9.61-2.05-21.04,2.04-30.38.03-4.71.1-8.02,2.94-12.55,9.39-14.96,27.95-20.99,43.73-11.33,4.02,2.46,7.22,5.94,8.41,10.8l10.28,2.24c11.53-10.26,31-5.22,38.32,7.03l4.33,7.24c3.78,8.42,4.09,19.36,1.3,28.04-1.28,4-7.87,2.57-10.42,1.52l-10.91-4.47-1.18,6.93c-.69,4.06-2.29,7.28-4.89,10.8l33.94-.03c3.66,0,7.74,1.39,9.36,4.02,2.86,4.65,2.83,16.48-.93,20.66-1.68,1.87-5.78,3.6-8.41,3.58ZM1031.49,384.04c3.3-3.58,6.07-5.69,10.93-6.23-7.43-12.18-22.84-14.51-34.47-6.54-5.1,3.49-8.99,8.02-10.03,14.46,11.99,2.2,23.73,3.99,33.57-1.68ZM1062.96,381.29c-1.94.94-.99,3.48.05,6l3.62,8.79c5.11,12.42,16.42,18.2,28.91,22.25,2.69-13.57.14-26.87-9.62-34.56-6.9-5.43-14.42-6.64-22.95-2.48ZM1045.12,383.05c-14.56-.03-16.98,22.31-9.9,37.59l7.23-3.6c10.42-5.19,18.07-15.37,15.52-27.35-1.24-5.82-7.64-8.22-12.86-6.64ZM1016.66,392.36l-8.37.2.07,4.36-3.9-.65-1.54-2.68-4.21-1.29c-6.54,5.43-7.99,13.18-5.08,21.61l11.77-5.79c2.89-1.42,6.86-3.89,9.25-6.07l10.24.05,1.62-9.95-9.86.23ZM1066.26,405.37l.25,29.68c8.48-6.96,9.16-21.91-.25-29.68ZM1060.03,408.52c-3.81,4.81-5.32,6.82-8.63,9.46-5.36,3.14-11.66,6.56-17.29,7.89-6.85-5.04-7.56-11.44-9.31-19.44-3.37.29-7.29,1.56-10.12,3.56l2.14,21.15,5.1,4.7,38.3-.07-.19-27.25ZM1108.37,457.96c1.41,0,4.51-1.35,4.66-2.59l.73-5.86c.2-1.6-.3-5.01-1.26-6.14-.82-.97-3.58-1.67-5.05-1.67h-41.38s.2,10.47.2,10.47c6.94-4.47,14.15-3.9,19.82,1.22l5.19,4.69,17.09-.12ZM1060.25,454.77c-.56-3.02-1.38-5.77-2.59-6.51l-8.65-3.62c-2.7-1.13-8.92,1.89-10.56,4.39-4.93,7.5-5.01,16.26-2.13,24.79,10.51-2.24,19.71-8.6,23.93-19.06ZM1071.82,455.91c-.38.17-1.72.88-2.12,1.27-5.47,5.49-2.85,17.59,7.32,23.14,4.09,2.23,7.66,3.66,12.25,4.19,1.8-7.25,1.72-13.76-.34-20.38l-3.26-4.09c-3.54-4.43-8.7-6.44-13.85-4.14ZM1066.02,490.27l-7.23-2.19c-3.6,1.33-7.79,5.71-8.16,9.23-.4,3.74.7,9.1,3.11,12.22l6.12,7.92c13.14-7.82,11.61-25.52,6.16-27.17Z"/>
            <path class="cls-48" d="M1107.69,464.11l.56,22.58c0,2.98-4.83,8.4-7.81,8.42l-25.6.03c-1.33-4.72-4.08-8.52-9.03-11.5l.55-6.78c4.92,7.27,11.87,10.06,20.31,12.08,9.59,2.3,10.16-11.7,7.32-24.91l13.71.07Z"/>
            <polygon class="cls-25" points="983.51 464.47 1024.63 464.47 1025.26 465.53 817.06 465.55 816.68 481.49 815.97 464.49 983.51 464.47"/>
            <path class="cls-62" d="M1029.14,441.62l8.82.97c-4.8,3.68-7.51,8.97-7.84,15.48h-220.8s-53.69.02-53.69.02c-4.37,0-6.77-4.76-6.79-7.79-.01-2.55.96-8.53,5.38-8.53l206.27-.14,21.36-.24,47.29.23Z"/>
            <path class="cls-65" d="M1108.37,457.96l-17.09.12-5.19-4.69c-5.67-5.12-12.88-5.69-19.82-1.22l-.2-10.46h41.38c1.47,0,4.23.7,5.05,1.67.96,1.13,1.46,4.54,1.26,6.14l-.73,5.86c-.15,1.24-3.25,2.58-4.66,2.59Z"/>
            <path class="cls-30" d="M1060.25,454.77c-4.22,10.46-13.42,16.82-23.93,19.06-2.87-8.53-2.8-17.29,2.13-24.79,1.64-2.5,7.85-5.52,10.56-4.39l8.65,3.62c1.21.74,2.03,3.49,2.59,6.51Z"/>
            <path class="cls-11" d="M1069.71,457.19l7.72,9.94,4.43,5.26c-.71-3.91-2.4-9.06-5.21-11.46l-4.82-5.01c5.14-2.3,10.31-.29,13.85,4.14l3.26,4.09c2.07,6.62,2.14,13.12.34,20.38-4.59-.53-8.16-1.96-12.25-4.19-10.17-5.55-12.79-17.65-7.32-23.14Z"/>
            <path class="cls-11" d="M810.74,468.62l-.81,13.28c-5.13,1.65-10.55,2.07-16.09.15l-2.08-17.61,18.36.04.61,4.14Z"/>
            <path class="cls-21" d="M1071.82,455.91l4.82,5.01c2.81,2.4,4.5,7.55,5.21,11.46l-4.43-5.26-7.72-9.94c.39-.39,1.74-1.1,2.12-1.27Z"/>
          </g>
          <path class="cls-24" d="M1008.37,396.91l.23,4.92c.06,1.33-3.15,1.88-4.68,1.57l-.98-9.82,1.54,2.68,3.9.65Z"/>
          <rect class="cls-59" x="807.17" y="351.84" width="19.94" height="84.07" transform="translate(-.44 .91) rotate(-.06)"/>
          <polygon class="cls-51" points="801.08 418.61 777.74 418.9 777.68 359.84 801.14 359.79 801.08 418.61"/>
          <path class="cls-68" d="M856.24,435.94l-8.82-.5-4.16-17.56-10.56-51.85,16.61-3.78,5.77,25.24,8.57,43.31c.53,2.7-5.14,5.28-7.4,5.15Z"/>
          <path class="cls-50" d="M777.75,435.01l9.21-.44-2.25-3.31c-1.07-1.58,8.33-1.62,9.95-7l6.41-.2v-5.45s.07-58.82.07-58.82l-23.46.05.34-18.53,23.95.08.02,94.36-21.56.17c-.81,0-3.06-.69-2.7-.91Z"/>
          <polygon class="cls-8" points="841.51 435.56 833.21 435.83 833.57 397.57 841.51 435.56"/>
          <path class="cls-50" d="M794.66,424.26c-1.63,5.37-11.03,5.42-9.95,7l2.25,3.31-9.21.44v-11.56s16.92.81,16.92.81Z"/>
          <polygon class="cls-44" points="801.08 418.61 801.07 424.06 794.66 424.26 777.74 423.45 777.74 418.9 801.08 418.61"/>
          <g>
            <path class="cls-3" d="M970.04,435.93l-.19,4.39-14.69-.41c-.06-2.3-.11-4.03-.07-2.43l8.68-1.49h1.23s.03-32.33.03-32.33l-78.56-.07-.03,30.27-.71-1.05-.46-26.43-.83,13.46c-.03.56-1.65,2.48-1.7,2.33l-.82-16.69c-.53-1.32-3.89-3.27-5.33-4.22-1.25-4.45-1.67-11.75-.27-16.9.79-2.93,6.36-4.68,9.27-4.68h82.43c4.81-.01,7.79,3.19,7.8,7.62l.02,9.87c0,3.16-2.84,5.78-5.61,7l-.19,31.75ZM969.59,384.93l-87.85.09v13.47s87.86-.09,87.86-.09v-13.47Z"/>
            <rect class="cls-31" x="909.58" y="380.49" width="32.34" height="78.56" transform="translate(505.1 1345.12) rotate(-89.95)"/>
            <rect class="cls-49" x="881.75" y="384.97" width="87.85" height="13.47" transform="translate(-.41 .96) rotate(-.06)"/>
          </g>
        </g>
        <g>
          <path class="cls-39" d="M1207.44,627.92l-62.86.05c-3.19,0-6.55-2.66-6.55-6.07l-.02-70.8c0-2.58,3.08-5.36,5.38-5.38l21.48-.19c2.15-6.9,9.43-9.29,16.26-7.44,2.53.69,4.88,3.81,6.52,7.48l21.61.23c1.92.02,5.06,3.1,5.06,5.4l.04,69.6c0,3.91-2.4,7.11-6.91,7.12ZM1173.51,543.07c-3.79,2.55-3.84,6.72-1.84,9.87,1.49,2.35,5.29,2.81,8.09,1.21,2.99-1.71,4.06-5.25,2.56-8.65-.97-2.22-6.4-4.05-8.82-2.43ZM1187.91,550.9c-1.43,5.25-3.79,7.9-6.91,8.86-7.06,2.16-14.29-1.08-16.61-8.92l-21.35.35.21,71.35h65.89s-.04-71.5-.04-71.5l-21.19-.15Z"/>
          <path class="cls-69" d="M1187.91,550.9l21.19.15.04,71.5h-65.89s-.21-71.35-.21-71.35l21.35-.35c2.32,7.84,9.55,11.08,16.61,8.92,3.12-.95,5.47-3.6,6.91-8.86ZM1195.42,579.31c.74-1.14,1.63-3.6.9-4.1l-2.34-1.6-36,.18c-.97.97-2.15,2.29-2.52,3.15s2.27,2.15,3.16,2.49l36.79-.12ZM1178.91,596.64c.96-.01,3.12-1.9,2.97-2.73-.15-.83-2.05-2.79-3.08-2.8l-20.68-.13c-1.21,0-2.95,2.91-2.43,3.93.42.81,2.58,1.95,3.58,1.93l19.63-.21Z"/>
          <path class="cls-18" d="M1173.51,543.07c2.42-1.62,7.84.21,8.82,2.43,1.49,3.4.43,6.94-2.56,8.65-2.8,1.6-6.6,1.14-8.09-1.21-2-3.15-1.96-7.32,1.84-9.87Z"/>
          <path class="cls-6" d="M1195.42,579.31l-36.79.12c-.89-.34-3.54-1.64-3.16-2.49s1.55-2.18,2.52-3.15l36-.18,2.34,1.6c.73.5-.16,2.95-.9,4.1Z"/>
          <path class="cls-6" d="M1178.91,596.64l-19.63.21c-1.01.01-3.17-1.12-3.58-1.93-.52-1.02,1.22-3.94,2.43-3.93l20.68.13c1.03,0,2.93,1.96,3.08,2.8.15.83-2.01,2.72-2.97,2.73Z"/>
        </g>
        <g>
          <path class="cls-36" d="M442.79,335.65l-1.04-1.08.03-49.75c0-2.01-2.75-4.18-4.2-3.7l-.06-13c-.01-2.15-4.31-6.51-6.43-6.53l-85.47-.11c-1.91,0-5.96.29-7.2,1.32l-3.39-4.03c1-.96,3.45-2.83,5.29-2.83h88.77c4.36.02,8.31,2.07,11.85,4.68,5.45-6.7,15.6-7.78,22.17-2.7,6.82,5.27,7.48,15.4,2.57,21.97-5.26,7.04-14.87,7.57-22.72,2.71l-.17,53.04ZM446.97,278.51c5.58,3.21,11.31,2.14,14.85-2.64,2.89-3.9,2.12-11.14-1.94-13.79-5.47-3.57-12.02-2.38-15.21,2.14-3.27,4.64-2.47,11.54,2.31,14.29Z"/>
          <path class="cls-65" d="M446.97,278.51c-4.78-2.75-5.58-9.64-2.31-14.29,3.19-4.53,9.74-5.71,15.21-2.14,4.07,2.65,4.83,9.9,1.94,13.79-3.54,4.77-9.27,5.85-14.85,2.64Z"/>
          <g>
            <path class="cls-58" d="M437.65,587.9c-3.75,1.75-6.75,5.15-9.16,9.09l-4.38,7.19c-4.29,9.57-6.71,19.6-9.23,29.56-2.03,1.6-6.12-.18-9.32.05l-15.77,1.11c-1.54.11-4.99-.95-6.2-1.85s-2.1-3.92-1.97-5.98c1.74-28.41,3.39-56.07,7.52-84.13l2.79-15.23,3.71-23.52,14.68-.57-.18,62.1c0,1.64,5.62,1.86,5.66.27l1.49-62.75,13.95-1.02,4.76,73.38,1.65,12.3Z"/>
            <path class="cls-58" d="M437.58,281.12l-.37,57.37c-.67,1.85-1.38,4.49-1.46,6.7l-4.51,125.47-8.49.68-3.61-.75-4.95-102.13-1.26-9.57-2.63-26.42c-.4-4.04.6-8.36-4.43-11.15-.3,17.7.64,34.34,1.53,51.98l4.6,98.69-1.58.09-8.81-28.62-6.53-18.26c-1.85,1.21-3.07,3.71-2.53,5.87,2.5,10.07,4.59,19.57,8.34,29.17l4.54,11.62-7.6,1.27c-3.09.26-6.88-.37-8.61-3.69l-10.15-19.5-3.96-7.44-8.33-20.37c-3.8-9.28-5.66-19.04-9.41-28.59l-2.95-7.5c-4.81-16.81-7.24-33.39-10.97-50.46-4.55-20.8-5.96-41.73-7.72-63.31-.24-2.93.73-7.79,2.73-9.47,1.24-1.04,5.29-1.33,7.2-1.32l85.47.11c2.12.02,6.42,4.38,6.43,6.53l.06,13ZM374.27,283.13c1.01.02,3.02-1.7,2.92-2.67-.07-.77-1.75-2.79-2.67-2.79l-17.9.03c-.89,0-2.85,1.68-2.94,2.51s2.02,2.6,2.98,2.62l17.61.3ZM418.55,283.02c1.08,0,3.08-1.82,3.08-2.81,0-.99-1.98-2.75-3.02-2.74l-18.86.17c-.96,0-2.81,1.76-3.02,2.61s1.96,2.66,2.98,2.67l18.84.1Z"/>
            <path class="cls-59" d="M422.74,471.34l-10.76.65-4.6-98.69c-.89-17.65-1.83-34.28-1.53-51.98,5.03,2.79,4.03,7.11,4.43,11.15l2.63,26.42,1.26,9.57,4.95,102.13,3.61.75Z"/>
            <path class="cls-58" d="M395.8,498.45c-4.52,0-4.27-6-4.88-8.32-1.03-3.92-1.5-8.13,1.48-11.05l41.02-2.71c1.69,7.08,1.75,13.09-.51,19.58-12.44,1.35-24.22,2.48-37.11,2.5Z"/>
            <path class="cls-54" d="M417.29,503.24l-1.49,62.75c-.04,1.59-5.67,1.37-5.66-.27l.18-62.1,6.96-.38Z"/>
            <path class="cls-54" d="M410.4,472.08l-12.6,1.06,7.6-1.27-4.54-11.62c-3.75-9.6-5.84-19.1-8.34-29.17-.54-2.16.68-4.66,2.53-5.87l6.53,18.26,8.81,28.62Z"/>
            <path class="cls-12" d="M418.55,283.02l-18.84-.1c-1.02,0-3.18-1.82-2.98-2.67s2.06-2.6,3.02-2.61l18.86-.17c1.04,0,3.02,1.75,3.02,2.74,0,.99-2,2.82-3.08,2.81Z"/>
            <path class="cls-55" d="M374.27,283.13l-17.61-.3c-.96-.02-3.06-1.79-2.98-2.62s2.05-2.51,2.94-2.51l17.9-.03c.93,0,2.6,2.02,2.67,2.79.09.97-1.91,2.69-2.92,2.67Z"/>
          </g>
          <g>
            <g>
              <path class="cls-19" d="M512.59,655l-90.94.03c-1.97,0-5.19-2.6-4.87-4.28,2.11-10.85,4-21.08,7.98-31.03,2.79-6.98,5.01-14.29,9.13-20.72,2.18-3.41,8.62-8.46,12.62-8.99,13.92-1.83,27.65-1.8,41.08-.19,7.51.9,12.15,7,15.73,12.65l3.74,5.91,10.49,35.92c.61,2.09,1.99,5.63,1.62,7.56-.33,1.76-4.27,3.14-6.59,3.14Z"/>
              <path class="cls-18" d="M475.65,684.49l8.81,3.82c3.5,1.52,6.95,4.73,9.86,7.77,6.9,7.19,8.38,18.79,2.63,27.51-1.04,1.58-4.73,3.87-6.6,4.84l-46.19-.07c-7.84-7.07-11.94-15.65-7.07-24.56,2.29-4.19,4.47-9.94,8.85-12.29l12.78-6.84,16.93-.18Z"/>
              <path class="cls-50" d="M475.65,684.49l-16.93.18,2-3.81.74-20.13,12.62-.24.37,14.23,1.21,9.77ZM473.57,679.31l-.19-8.67c-4.45.67-7.89.62-11.61-.09l.03,9.02,11.78-.26Z"/>
              <path class="cls-44" d="M473.57,679.31l-11.78.26-.03-9.02c3.72.7,7.16.76,11.61.09l.19,8.67Z"/>
            </g>
            <g>
              <path class="cls-49" d="M525.23,800.21l36.32-.12.36,34.01c.02,1.64-2.17,3.94-4.1,3.93h-136.02c-3.11,0-5.15-1.88-5.14-5.03l.15-29.29c0-.99.77-3.14,1.05-3.77l107.38.27ZM485.8,827.91c4.46,1.88,10.16.25,12.82-3.03,3.04-3.75,2.56-9.09.03-12.41-2.79-3.65-7.89-4.89-12.21-3.58-4.57,1.39-7.56,4.87-7.91,8.87-.42,4.8,2.12,7.99,7.27,10.15Z"/>
              <path class="cls-65" d="M567.93,755.73l16.34.17.05,89.73c0,4.28-3.39,6.34-7.39,6.34l-178.23-.02c-2.88,0-4.6-4.9-4.6-7.25l-.05-88.83,16.87.03.13,81.52c0,4.44,7.2,5.75,10.72,5.75l138.28-.08c2.91,0,7.89-2.84,7.89-5.72v-81.62Z"/>
              <path class="cls-44" d="M561.57,795.08l-22.48-.1-121.66.15v-.93s.03-30.54.03-30.54l62.4-.54c2.34-.02,6.04,1.29,8.15,2.32-3.89.82-7.43,3.33-8.58,5.85-1.48,3.25-1.03,8.56,1.41,10.84,5.6,5.23,13.54,5.28,18.32-.62,2.95-3.64,1.92-10.44-1.61-13.64l1.47-4.57,32.16-.32,28.58.69.48-5.87c.67.57,1.65,2.38,1.64,3.31l-.32,33.95Z"/>
              <path class="cls-65" d="M589.28,750.2l-199.4-.06c-3.51,0-5.89-7.42-3.05-13.47.62-1.33,3.59-2.49,5.64-2.49l195.69.05c3.48,0,5.04,5.49,4.89,7.83-.23,3.56-.44,5.84-3.76,8.13Z"/>
              <path class="cls-42" d="M549.27,878.19l-120.62-.03c2.71-7.28,3.38-13.13,4.38-20.54h111.94s4.29,20.56,4.29,20.56Z"/>
              <path class="cls-65" d="M560.25,757.82l-.48,5.87-28.58-.69-32.16.32-1.47,4.57c-1.9-1.72-7-2.97-9.55-2.44-2.1-1.03-5.81-2.34-8.15-2.32l-62.4.54-.03,30.54c-.64-.52-1.16-3.17-1.15-4.39l.38-30.29c.02-1.3,2.86-3.42,4.15-3.42l134,.04c2.19,0,4.35.76,5.44,1.67Z"/>
              <path class="cls-61" d="M539.1,794.98l1.77,4.05-12.49.3c-.85.02-3.08.44-3.14.87l-107.38-.27-.41-4.81,121.66-.15Z"/>
              <path class="cls-62" d="M426.41,865.83c-.73,4.22-1.7,9.49-6.95,11.93l-9.64.24c-1.72.04-4.95-2.13-4.99-3.77l-.24-9.09,21.81.69Z"/>
              <path class="cls-62" d="M574.03,866.28c.04,3.12.53,8.85-2.75,10.63-1.92,1.04-6.74.89-8.82,1-5.48.29-7.53-2.09-9.06-6.84l-1.82-5.67,22.45.88Z"/>
              <path class="cls-11" d="M426.41,865.83l-21.81-.69.24,9.09c-.33.62-1.17-1.83-1.15-2.41l.36-14.04,23.77-.08-1.4,8.14Z"/>
              <polygon class="cls-67" points="574.03 866.28 551.58 865.4 550.38 857.75 573.91 857.6 574.03 866.28"/>
              <path class="cls-36" d="M561.57,795.08v5.01s-36.34.12-36.34.12c.06-.43,2.29-.85,3.14-.87l12.49-.3-1.77-4.05,22.48.1Z"/>
              <path class="cls-7" d="M485.8,827.91c-5.15-2.17-7.7-5.35-7.27-10.15.35-4,3.34-7.48,7.91-8.87,4.32-1.31,9.43-.07,12.21,3.58,2.53,3.32,3.01,8.66-.03,12.41-2.66,3.28-8.36,4.91-12.82,3.03ZM493.1,814.51c-1.87-1.69-5.76-1.12-7.02.37-1.61,1.9-1.78,5.95-.19,7.35,2,1.76,5.35,1.9,7.59.28,1.16-.84,2.62-2.67,2.62-3.74s-1.29-2.71-3-4.25Z"/>
              <path class="cls-7" d="M488.01,765.45c2.54-.53,7.64.71,9.55,2.44,3.53,3.19,4.56,9.99,1.61,13.64-4.78,5.9-12.72,5.85-18.32.62-2.44-2.28-2.89-7.59-1.41-10.84,1.15-2.52,4.69-5.03,8.58-5.85ZM493.47,771.99c-2.64-1.9-6.08-1.6-7.94.84-1.23,1.62-.64,5.22,1.29,7.04,1.41,1.33,4.49,1.07,6.73-.61,1.06-.8,2.49-2.69,2.43-3.73-.06-1.04-1.46-2.78-2.51-3.54Z"/>
              <path class="cls-38" d="M493.1,814.51c1.71,1.55,2.99,3.19,3,4.25s-1.45,2.89-2.62,3.74c-2.24,1.62-5.58,1.48-7.59-.28-1.59-1.4-1.42-5.45.19-7.35,1.25-1.48,5.15-2.06,7.02-.37Z"/>
              <path class="cls-67" d="M493.47,771.99c1.05.76,2.45,2.5,2.51,3.54.06,1.04-1.37,2.94-2.43,3.73-2.24,1.68-5.31,1.94-6.73.61-1.92-1.82-2.52-5.42-1.29-7.04,1.86-2.45,5.3-2.75,7.94-.84Z"/>
            </g>
            <g>
              <path class="cls-67" d="M563.66,722.28l-2.92-4.75,4.1-5.36c3.57-4.67,2.31-11.52-.88-15.62-4.64-5.97-9.93-9.45-17.03-9.57s-12.73,3.62-17.53,10.19c-2.75,3.77-3.35,10.83-.62,14.89l-3.53,3.51c-5.3-11.02-1.46-24.26,8.92-30.72,10.38-6.47,23.97-4.09,31.54,5.51,7.57,9.61,6.69,23.36-2.04,31.93Z"/>
              <path class="cls-20" d="M560.74,717.52l2.92,4.75c-5.52,5.42-13.32,7.84-20.94,6.51-7.62-1.33-14.13-6.25-17.48-13.22l3.53-3.51c3.89,5.79,8.41,9.92,13.65,10.78,7.03,1.15,14.07.27,18.33-5.3Z"/>
              <path class="cls-62" d="M535.86,678.44l-13.27,8.42c-2.5-3.09,0-7.62,2.83-9.52,3.63-2.44,8.31-2.58,10.44,1.1Z"/>
              <path class="cls-62" d="M571.2,686.9l-13.91-8.92c3.35-3.22,7.18-2.68,10.27-.76,2.77,1.72,4.87,5.08,3.64,9.68Z"/>
              <path class="cls-70" d="M560.74,717.52c-4.25,5.57-11.29,6.44-18.33,5.3-5.23-.85-9.76-4.98-13.65-10.78-2.73-4.06-2.13-11.13.62-14.89,4.8-6.56,10.18-10.31,17.53-10.19s12.39,3.6,17.03,9.57c3.19,4.1,4.45,10.96.88,15.62l-4.1,5.36ZM550.47,705.21l-1.44-10.47c-.16-1.18-1.08-3.18-2.08-3.23-3.55-.17-1.41,4.31-3.43,12.37-.43,1.73.97,4.35,2.73,5.13,1.51.67,4.47-2.01,4.22-3.8Z"/>
              <path class="cls-39" d="M550.47,705.21c.25,1.79-2.72,4.48-4.22,3.8-1.77-.79-3.17-3.4-2.73-5.13,2.01-8.07-.13-12.54,3.43-12.37,1,.05,1.92,2.06,2.08,3.23l1.44,10.47Z"/>
            </g>
          </g>
        </g>
        <g>
          <path class="cls-21" d="M69.61,256.1l4.32,1.77-3.41,2.79h89.01s1.56,1.06,1.56,1.06l-87.09-.03c-2.16,0-5.29.42-6.42,1.48-1.51,1.41-2.18,4.31-2.2,7.13-.35,67,1.01,132.96,4.86,200.03l8.45.89,17.27.96,11.93.68c2.03.12,4.81-3.82,5.75-5.58l9.26-17.37c4.36-8.18,7.3-17.04,11.21-25.73,4.88-10.86,7.7-22.28,11.68-33.75,5.48-15.8,7.78-32.05,11.55-48.6,5.18-22.76,6.36-45.88,8.48-69.5.22-2.41-.56-6.56-1.64-8.21l2.7-5.44c.79.7,2.95,1.78,4.41,1.78l157.31.03c2.42,0,5.3-.62,6.43-1.72l3.39,4.03c-2,1.67-2.96,6.53-2.73,9.47,1.76,21.58,3.18,42.51,7.72,63.31,3.73,17.07,6.16,33.65,10.97,50.46l2.95,7.5c3.75,9.55,5.62,19.31,9.41,28.59l8.33,20.37,3.96,7.44,10.15,19.5c1.73,3.32,5.51,3.95,8.61,3.69l12.6-1.06,1.58-.09,10.76-.65,8.49-.68,4.51-125.47c.08-2.21.79-4.85,1.46-6.7l.37-57.37c1.45-.48,4.2,1.69,4.2,3.7l-.03,49.75,1.04,1.08c-.14,45.2-2.28,90.29-4.95,136.01,4.91,7.81,4.78,21.11-.15,28.75l5.27,82.32.85,2.29-6.17,2.88-1.65-12.3-4.76-73.38-13.95,1.02-6.96.38-14.68.57-3.71,23.52-2.79,15.23c-4.13,28.06-5.77,55.72-7.52,84.13-.13,2.06.77,5.09,1.97,5.98s4.66,1.95,6.2,1.85l15.77-1.11c3.2-.23,7.28,1.55,9.32-.05.23-.04.8,1.24.42,1.29l-2.48.36c-.48.07-1.62.69-1.5,1.15l.43,1.68-4.06,1.5-4.61-.15-13.25.87c-4.69.31-11.88-1.64-13.79-6.63-1.18-3.08-1-8.1-.85-11.02l.68-13.08-3.07-.16c.37-.38,2.86-1.28,2.94-2.04l.38-3.49.93-15.11-252.43.04.84,15.25.55,3.95,107.45-.03c.33.25,1.36,1.1,1.17,1.29l-108.58-.12.51,12.75.08,7.12c.15,14.58-17.9,10.52-27.09,10.63l-15,.19c-6.34.08-12.8.77-19.06-.02-5.23-.67-8.9-5.38-8.65-10.77l4.59-98.1,2.64-30.6c-5.3-7.11-5.38-20.47-.64-28.76-3.96-63.14-5.25-125.42-4.91-189-7.87,5.27-17.85,3.56-22.85-3.35-4.67-6.45-3.42-16.66,3.12-21.5,6.53-4.83,16.39-4,21.85,2.47,2.41-1.3,6.54-3.54,8.98-4.25ZM41.42,277.53c4.99,4.26,10.96,3.23,14.52-.03,4.15-3.8,3.42-11.27.21-14.41-4.14-4.05-10.43-3.86-14.97-.05-4.19,3.52-4.14,10.75.24,14.49ZM171.89,265.82v11.56s157.54.01,157.54.01v-11.56s-157.54-.01-157.54-.01ZM171.06,293.85l-.24,5.01-2.8,14.51-.76,5.35c-2.49,17.59-4.5,35.47-9.75,52.76-3.95,13.03-6.44,25.94-11.33,38.41-3.74,9.55-6.41,19.25-10.81,28.54l-6.7,14.16-2.8,6.5-2.51,4.04-5.51,8.79-2.01,3.32c-.59.97,1.06,3.23,1.39,4.34.87,8.01.74,17.67-4.64,23.11l8.58,61.23.55,10.52c.03.54.1,1.73.45,1.85l1.41.3.33,6.57,168.87-.02.42-2.26,1.25-5.43,1.65,2.29c.23.33,1.36,1.26,1.47.88l.46-2.65c.93,2.26,2.57,5.17,4.09,7.16l38.23-.03c3.09,0,6.27-3.31,6.75-6.06l2.34-13.28,3.14-2.4,1.03,7.89c.52,3.99-1.13,8.9-2.67,13.82h28.09s.75-9.71.75-9.71l.8-9.09,8.3-60.59c-4.84-7.65-6.28-17.17-3.8-25.62.69-2.37-.43-4.79-1.95-7.31l-7-11.6-2.96-6.38-7.97-17.16-10.44-27.71-4.41-13.11-6.9-26.54c-4.27-16.42-6.57-33.11-9.18-49.69l-.95-9.56-2.19-10.36-.56-4.98-.91-10.65-157.86-.04-.74,10.88ZM108.09,498.65c2.96-5.95,4.66-10.37,3.74-16.35-.32-2.11-5.37-3.53-7.47-3.68l-32.66-2.42c-1.67-.12-4.76,1.65-4.74,3.08l.17,12.25c.05,3.27,3.78,4.75,6.73,4.94l34.23,2.19ZM395.8,498.45c12.89-.02,24.66-1.14,37.11-2.5,2.26-6.49,2.2-12.5.51-19.58l-41.02,2.71c-2.98,2.92-2.51,7.13-1.48,11.05.61,2.32.36,8.32,4.88,8.32ZM91.74,503.42l-11.09-.88-10.2-.82-5.37,82.97c-1.03,15.86-2.64,30.47-2.47,46.54,2.5,2.82,7.43,4.01,11.28,3.64l10.29-1c5.53.67,9.8-.16,15.24.09l15.94.73c2.15.1,4.99-3.96,4.82-6.58-2.14-32.04-3.61-63.6-9.19-94.91l-5.16-28.95-14.08-.84Z"/>
          <rect class="cls-44" x="244.88" y="192.84" width="11.56" height="157.54" transform="translate(-20.97 522.23) rotate(-89.99)"/>
          <path class="cls-6" d="M41.42,277.53c-4.38-3.74-4.42-10.97-.24-14.49,4.54-3.81,10.83-4,14.97.05,3.21,3.14,3.93,10.62-.21,14.41-3.56,3.26-9.53,4.29-14.52.03Z"/>
          <g>
            <path class="cls-15" d="M166.88,258.68l-2.7,5.44c-.44-.66-2.33-1.89-3.1-2.39l-1.56-1.08h-89.01s3.41-2.78,3.41-2.78l-4.32-1.77,89.98-.18c2.57,0,5.87,1.5,7.29,2.76Z"/>
            <path class="cls-58" d="M161.08,261.73c.77.5,2.66,1.73,3.1,2.39,1.08,1.65,1.86,5.8,1.64,8.21-2.12,23.62-3.29,46.75-8.48,69.5-3.77,16.55-6.07,32.8-11.55,48.6-3.98,11.47-6.8,22.89-11.68,33.75-3.9,8.69-6.84,17.55-11.21,25.73l-9.26,17.37c-.94,1.76-3.73,5.71-5.75,5.58l-11.93-.68,4.75-12.21c4.12-10.52,6.55-20.57,9.36-31.52.42-1.63-1.71-4.57-3.06-4.15l-7.55,21.18-6.75,19.89c-.37,1.1-1.67,2.56-3.35,3.69l1.59-35.32,4.66-95.98-.24-16.59c-.02-1.03-3.39-1.92-3.56-1.09l-.56,2.89-3.44,49.86-5.13,93.7c-.07,1.19.26,4.18-.68,4.28l-3.32.42-8.45-.89c-3.86-67.08-5.21-133.03-4.86-200.03.01-2.83.69-5.73,2.2-7.13,1.13-1.06,4.26-1.48,6.42-1.48l87.09.03ZM103.41,282.82c.9-.01,3.03-1.8,2.66-2.54-.37-.74-2.19-2.44-3.13-2.46l-19.53-.39c-1.25-.03-3.44,1.72-3.44,2.8,0,1.09,2.18,2.83,3.35,2.82l20.09-.23ZM146.79,282.82c.99-.01,2.81-1.64,2.75-2.52-.05-.66-1.58-2.55-2.24-2.55h-16.6c-1.03,0-3.69,2.9-2.96,3.56.58.53,2.63,1.75,3.43,1.74l15.62-.22Z"/>
            <path class="cls-58" d="M80.65,502.55l3.93,1.14,1.04,60.13c.03,1.54,1.62,3.56,2.78,3.76s3.32-2.2,3.31-3.65l.02-60.5,14.08.84,5.16,28.95c5.58,31.3,7.05,62.87,9.19,94.91.18,2.62-2.67,6.68-4.82,6.58l-15.94-.73c-5.45-.25-9.71.57-15.24-.09l-10.29,1c-3.85.38-8.77-.81-11.28-3.64-.18-16.06,1.44-30.68,2.47-46.54l5.37-82.97,10.2.82Z"/>
            <path class="cls-54" d="M95.96,472.19l-17.27-.96,3.32-.42c.95-.1.62-3.09.68-4.28l5.13-93.7,3.44-49.86.56-2.89c.16-.83,3.54.06,3.56,1.09l.24,16.59-4.66,95.98-1.59,35.32c1.68-1.13,2.98-2.59,3.35-3.69l6.75-19.89,7.55-21.18c1.34-.42,3.48,2.52,3.06,4.15-2.82,10.95-5.24,21-9.36,31.52l-4.75,12.21Z"/>
            <path class="cls-58" d="M108.09,498.65l-34.23-2.19c-2.95-.19-6.68-1.67-6.73-4.94l-.17-12.25c-.02-1.43,3.08-3.2,4.74-3.08l32.66,2.42c2.1.16,7.15,1.57,7.47,3.68.91,5.98-.78,10.4-3.74,16.35Z"/>
            <path class="cls-54" d="M91.74,503.42l-.02,60.5c0,1.46-2.15,3.85-3.31,3.65s-2.75-2.23-2.78-3.76l-1.04-60.13-3.93-1.14,11.09.88Z"/>
            <path class="cls-55" d="M103.41,282.82l-20.09.23c-1.17.01-3.36-1.73-3.35-2.82,0-1.09,2.2-2.83,3.44-2.8l19.53.39c.94.02,2.76,1.71,3.13,2.46.37.74-1.76,2.53-2.66,2.54Z"/>
            <path class="cls-55" d="M146.79,282.82l-15.62.22c-.8.01-2.85-1.21-3.43-1.74-.73-.66,1.93-3.57,2.96-3.57h16.6c.66,0,2.19,1.9,2.24,2.56.06.88-1.76,2.51-2.75,2.52Z"/>
          </g>
          <g>
            <polygon class="cls-4" points="234.63 609.39 372.8 609.54 375.88 609.7 375.19 622.79 126.56 622.02 126.05 609.27 234.63 609.39"/>
            <path class="cls-25" d="M331.13,298.65l2.19,10.36-.6,4.26-68.57-.03c-1.31,0-3.74.79-4.37,1.65-.5.69-.79,2.57-.78,3.95l.14,137.85c0,3.71,5.44,2.71,7.4,2.71l109.59-.23,7,11.6c-.79.89-3.42,1.48-4.7,1.49l-51.81.31-8.33-.02-52.54-.27-4.81-.02c-1.27,0-1.94,3.35-1.94,4.88l.07,87.67c0,2,2.06,4.38,3.92,4.39l27.43.66,2.8,11.05-.42,2.26-168.87.02-.33-6.57-.32-7.27,115.5-.02c2.98,0,4.26-3.04,4.25-5.52l-.16-87.53c0-3.03-2.35-3.98-5.21-3.98l-119.8-.35,5.51-8.79,2.51-4.04,112.94.24c2.25,0,4.09-2.18,4.09-4.47l.03-137.07c0-2.3-1.86-4.55-4.05-4.55l-70.86.13,2.8-14.51,160.31-.22Z"/>
            <path class="cls-70" d="M128.68,452.6l6.7-14.16c4.4-9.29,7.06-18.99,10.81-28.54,4.89-12.47,7.38-25.38,11.33-38.41,5.24-17.29,7.26-35.17,9.75-52.76l69.09-.16v135.87s-107.14.06-107.14.06l-.53-1.9Z"/>
            <path class="cls-69" d="M236.36,477.56l-.73,29.7-2.88-3.53c-2.75,5.06-4.19,6.4-8.35,8.94-3.72,2.27-5.34,8.42-7.79,11.99l-10.74,15.68c-5.04,7.35-11.07,14.38-10.42,23.63l-74.28-.05-8.58-61.23c5.37-5.45,5.51-15.11,4.64-23.11l.39-2.04,118.74.02Z"/>
            <path class="cls-70" d="M334.27,318.57c2.62,16.57,4.91,33.26,9.18,49.69l6.9,26.54c-13.74,4.74-28.28,13.13-32.06,27.85-12.95,2.06-23.3,10.18-30.5,20.99-3.35,2.77-7.86,5.16-8.92,10.29l-13.17.45-.05-135.66,68.61-.16Z"/>
            <polygon class="cls-49" points="376.12 604.02 125.46 604.19 124.62 588.94 377.05 588.9 376.12 604.02"/>
            <path class="cls-43" d="M350.36,394.8l4.41,13.11,10.44,27.71,7.97,17.16-.28,1.56-91.7.19c-5.49.01-10.41.83-15.49-.15l13.17-.45c1.05-5.13,5.57-7.52,8.92-10.29,7.2-10.81,17.55-18.93,30.5-20.99,3.78-14.72,18.32-23.11,32.06-27.85Z"/>
            <path class="cls-58" d="M385.09,478.08c-2.48,8.45-1.04,17.98,3.8,25.62l-8.3,60.59-25.3-.36,1.48-7.78c6.45-1.8,6.01-17.74,1.25-20.79-2.08-1.33-6.85-1.76-9.18-1.63l7.36-6.07c4.64-3.78,6.77-10.78,7.87-16.53-.12-5.72-3.39-9.48-9.03-9.86-5.87-.39-11.35,1.13-17.2,3.76,2.15-9.63.27-18.51-4.16-26.14l2.41-1.23,49,.42Z"/>
            <path class="cls-59" d="M334.27,318.57l-68.61.16.05,135.66c5.07.98,9.99.16,15.49.15l91.7-.19.28-1.56,2.96,6.38-109.59.23c-1.96,0-7.4,1-7.4-2.71l-.14-137.85c0-1.38.28-3.26.78-3.95.63-.86,3.06-1.65,4.37-1.65l68.57.03.6-4.26.95,9.56Z"/>
            <path class="cls-41" d="M123.59,576.6l-1.41-.3c-.35-.13-.42-1.31-.45-1.85l-.55-10.52,74.28.05,40.91-.04.15-57.18-.15-29.2-118.74-.02-.39,2.04c-.33-1.11-1.98-3.37-1.39-4.34l2.01-3.32,119.8.35c2.86,0,5.21.95,5.21,3.98l.16,87.53c0,2.49-1.27,5.52-4.25,5.52l-115.5.02.32,7.27Z"/>
            <path class="cls-59" d="M125.88,459.1l2.8-6.5.53,1.9,107.15-.06v-135.87s-69.09.16-69.09.16l.76-5.35,70.86-.13c2.19,0,4.05,2.25,4.05,4.55l-.03,137.07c0,2.29-1.83,4.47-4.09,4.47l-112.94-.24Z"/>
            <polygon class="cls-46" points="330.57 293.67 171.06 293.85 171.81 282.98 329.66 283.02 330.57 293.67"/>
            <path class="cls-5" d="M376.12,604.02l-.38,3.49c-.08.76-2.57,1.66-2.94,2.04l-138.18-.15c.18-.19-.84-1.03-1.17-1.29l-107.45.03-.55-3.95,250.66-.17Z"/>
            <polygon class="cls-54" points="330.57 293.67 331.13 298.65 170.83 298.87 171.06 293.85 330.57 293.67"/>
            <path class="cls-25" d="M379.8,573.38l-.75,9.7h-28.09c1.55-4.91,3.19-9.82,2.67-13.81l1.72.07,23.89-.08.56,4.12Z"/>
            <path class="cls-12" d="M385.09,478.08l-49-.42-2.41,1.23-7.05-6.33,51.81-.31c1.29,0,3.92-.6,4.7-1.49,1.52,2.52,2.64,4.94,1.95,7.31Z"/>
            <polygon class="cls-59" points="380.59 564.29 379.8 573.38 379.23 569.26 355.35 569.34 355.29 563.93 380.59 564.29"/>
            <path class="cls-59" d="M318.29,472.55l-6.31,6.2-3.35-1.05-42.92.03v86.17s23.94.12,23.94.12l.77,5.84-27.43-.66c-1.85-.01-3.91-2.39-3.92-4.39l-.07-87.67c0-1.54.67-4.89,1.94-4.88l4.81.02,52.54.27Z"/>
            <path class="cls-63" d="M195.46,563.98c-.65-9.25,5.38-16.29,10.42-23.63l10.74-15.68c2.45-3.58,4.07-9.72,7.79-11.99,4.17-2.54,5.6-3.88,8.35-8.94l2.88,3.53.73-29.7.15,29.2-.15,57.18-40.91.04Z"/>
            <path class="cls-58" d="M311.98,478.75l-4.1,7.24c-3.16,5.59-2.39,13.22-1.52,19.64-6.63-4.14-14.92-6.35-22.5-3.41-6.59,2.55-6.06,16.1,4.02,25.15l6.99,6.38c-3.48.08-10.15.98-11.23,5.95-.83,3.77-.35,8.98-.11,12.98l5.66,3.75.47,7.58-23.94-.12v-86.17s42.91-.03,42.91-.03l3.35,1.05Z"/>
            <g>
              <path class="cls-40" d="M349.46,563.78l-2.34,13.28c-.48,2.75-3.66,6.06-6.75,6.06l-38.23.03c-1.52-1.99-3.16-4.9-4.09-7.16l-1.75-4.26-1.75-15.54,55.54.09-.62,7.51Z"/>
              <path class="cls-15" d="M348.84,533.74c2.34-.13,7.11.31,9.18,1.63,4.77,3.05,5.2,18.99-1.25,20.79l-1.48,7.78.05,5.41-1.72-.07-1.03-7.89-3.14,2.4.62-7.51-55.54-.09,1.75,15.54,1.75,4.26-.46,2.65c-.11.38-1.24-.55-1.47-.88l-1.65-2.29-1.25,5.43-2.8-11.05-.77-5.84-.47-7.58-5.66-3.75c-.24-4-.71-9.21.11-12.98,1.09-4.97,7.75-5.86,11.23-5.95l4.02-.1c1.75-.04,4.53,1.74,6.18,3.17l28.97.69c3.03.07,5.18-.82,6.24-3.3l8.57-.48ZM291.71,539.47h-2.21v11.53h66.62v-11.53h-2.06l-1.12-1.06h-60.11s-1.11,1.06-1.11,1.06Z"/>
              <path class="cls-8" d="M326.62,472.56l7.05,6.33c4.43,7.63,6.31,16.5,4.16,26.14,5.85-2.63,11.33-4.15,17.2-3.76,5.64.38,8.91,4.14,9.03,9.86-1.1,5.76-3.23,12.75-7.87,16.53l-7.36,6.07-8.57.48c-.73-.35-2.6-.87-3.46-.85l3.84-1.8c10.23-3.67,21.58-16.21,17.08-24.2-8.98-3.36-17.54,2.58-24.1,8.52l-3.77,3.41-4.72-.81c1.07-2.32,1.56-5.12,2.68-7.1l4.78-8.41c1.86-3.27,1.56-11.09-.31-14.25l-4.76-8.07c-.66-1.11-2.97-2.69-4.05-2.98-6.77-1.82-16.09,16.62-10.15,28.48l4.47,8.93-4.13,3.55c-.93-2.74-5.21-5.27-7.68-7.21-7.77-6.09-18.59-7.5-21.49-1.77.05-.09,3.57,14.76,14.62,20.08l-3.21,3.12,2.96.79-4.02.1-6.99-6.38c-10.07-9.05-10.61-22.6-4.02-25.15,7.58-2.94,15.87-.73,22.5,3.41-.87-6.41-1.65-14.05,1.52-19.64l4.1-7.24,6.31-6.2,8.33.02Z"/>
              <rect class="cls-40" x="289.5" y="539.47" width="66.62" height="11.53"/>
              <path class="cls-60" d="M325.15,518.5l4.72.81-4.2,14.33,11.14-.27c.85-.02,2.72.5,3.46.85-1.06,2.48-3.21,3.37-6.24,3.3l-28.97-.69c-1.65-1.43-4.43-3.22-6.18-3.17l-2.96-.79,3.21-3.12c6.04,2.91,12.49,3.85,19.72,4.12l-5.17-15.23,4.13-3.55c1.35,2.7,3.44,5.33,5.41,7.61l1.93-4.2Z"/>
              <polygon class="cls-60" points="354.05 539.47 291.71 539.47 292.82 538.41 352.93 538.41 354.05 539.47"/>
              <path class="cls-44" d="M325.15,518.5l-1.93,4.2c-1.97-2.28-4.06-4.91-5.41-7.61l-4.47-8.93c-5.94-11.86,3.38-30.3,10.15-28.48,1.08.29,3.39,1.87,4.05,2.98l4.76,8.07c1.87,3.16,2.17,10.98.31,14.25l-4.78,8.41c-1.13,1.98-1.62,4.78-2.68,7.1Z"/>
              <path class="cls-44" d="M313.68,518.63l5.17,15.23c-7.24-.27-13.68-1.21-19.72-4.12-11.05-5.32-14.57-20.17-14.62-20.08,2.9-5.73,13.72-4.32,21.49,1.77,2.47,1.94,6.75,4.47,7.68,7.21Z"/>
              <path class="cls-44" d="M336.81,533.37l-11.14.27,4.2-14.33,3.77-3.41c6.55-5.94,15.12-11.88,24.1-8.52,4.5,7.99-6.85,20.53-17.08,24.2l-3.84,1.8Z"/>
            </g>
          </g>
        </g>
        <g>
          <path class="cls-3" d="M672.15,354.65h-1.05v158.43h1.07c-.01,1.7-2.48,3.96-4.07,4.07l-2.28-.93h-81.04s.29-3.15.29-3.15l-10.35.07,2.55,3.17-30.97-.35,3.13-2.91,55.08.02,62.54.02.05-158.43h-7.59s-120.56-.04-120.56-.04l-.89-3.09,128.77-.31c1.84,0,5.31.7,5.32,3.43Z"/>
          <path class="cls-35" d="M666.84,351.22l-128.77.31.89,3.09h-7.99s-.05,158.43-.05,158.43h18.52s-3.13,2.92-3.13,2.92l30.97.35-2.55-3.17,10.35-.07-.29,3.16h81.04s2.28.91,2.28.91l-1.22,1.07-136.2-.1c-2.29,0-5.25-4.03-5.25-6.22v-155.97c0-2.92,3.41-5.92,5.95-5.87l14.09.3,121.37.85Z"/>
          <polygon class="cls-66" points="673.23 513.09 671.1 513.09 671.1 354.65 674.28 354.65 674.28 513.09 672.18 513.09 672.15 354.65 673.22 354.65 673.23 513.09"/>
          <path class="cls-3" d="M666.89,518.22l-136.2-.1,136.2.1Z"/>
          <path class="cls-29" d="M538.96,354.62l120.56.03-1.09,2.11h-119.29s-1.06,1.07-1.06,1.07c-1.46,1.78-2.49,3.83-2.49,6.38l.11,145,44.59.47,79.14.15-1.02,1.14-52.77-.04-1.12,2.13-55.08-.02h-18.52s.05-158.43.05-158.43h7.99Z"/>
          <path class="cls-15" d="M604.52,513.07l1.12-2.13,52.77.04,1.02-1.14c1.46-.68,3.51-3.28,3.51-5.25v-143.49s-3.42-3.22-3.42-3.22c-.03.03.87-.73.62-.78l-1.71-.33,1.09-2.11h7.59s-.05,158.43-.05,158.43l-62.54-.02Z"/>
          <polygon class="cls-52" points="672.18 513.09 671.1 513.09 671.1 354.65 672.15 354.65 672.18 513.09"/>
          <path class="cls-70" d="M659.51,357.88l3.43,3.22v143.49c0,1.97-2.05,4.57-3.52,5.25l-79.14-.15-44.59-.47-.11-145c0-2.56,1.03-4.61,2.49-6.38l121.44.04ZM547.77,443.12l-.11,55.4,100.2.14c1.23,0,3.31-2.14,3.3-3.22l-.26-51.59-.24-70.97c0-2.52-5.05-2.68-7.03-2.67l-90.87.11c-3.69,0-5.1,2-5.1,5.47l.12,67.34Z"/>
          <path class="cls-3" d="M658.42,356.77l1.71.33c.25.05-.65.81-.62.78l-121.44-.04,1.06-1.08h119.29Z"/>
          <path class="cls-43" d="M650.9,443.85c-14.66-5.96-24.92-4.01-37.44,6.2l-9.99,8.16-5.2,2.8-11.46-9.45c-12.02-9.91-24.46-13.97-39.03-8.44l-.12-67.34c0-3.47,1.4-5.46,5.1-5.47l90.87-.11c1.99,0,7.03.16,7.03,2.67l.24,70.97Z"/>
          <path class="cls-31" d="M598.26,461.01l11.37,7.9,11.25,8.64,13.97,7.22,16.31,10.66c0,1.08-2.07,3.22-3.3,3.22l-100.2-.14.11-55.4c14.57-5.53,27.01-1.46,39.03,8.44l11.46,9.45Z"/>
          <path class="cls-59" d="M650.9,443.85l.26,51.59-16.31-10.66-13.97-7.22-11.25-8.64-11.37-7.9,5.2-2.8,9.99-8.16c12.52-10.22,22.78-12.16,37.44-6.2Z"/>
        </g>
        <g>
          <path d="M1630.73,836.13l-1.06-1.3v-488.39c0-1.41.59-3.43,1.42-3.61l-.36,493.3Z"/>
          <path class="cls-6" d="M1624.43,837.34v4.45s-346.69.03-346.69.03c-.45-.67,1.68-1.23,2.26-1.25l11.84-.46-6.2-3.36-3.48-1.62c-.82-.38-.48-3.43-.04-3.53l9.37-3.95,7.2-2.35h297.8c5.21.13,9.43-3.2,9.43-8.31l.02-61.26c0-4.67-3.14-8.09-8.24-8.1l-293.32-.04c-4.99,0-8.44.82-12.18,2.78.24-1.71,2.8-3.37,5.55-4.53l-.51-5.13c.52-1.73,1.24-4.15,1.04-5.32-.2-1.17-1.8-2.67-2.8-3.54l2.59-.19h307.93v-375.97h-5.94l-1.15-1.06h-96.06s0-3.18,0-3.18h121.54s.04,485.87.04,485.87Z"/>
          <path class="cls-62" d="M1502.85,351.47v3.19s-203.78,0-203.78,0l-1.25,1.06h-6.87v375.97h7.11l-2.59.19c.99.87,2.6,2.37,2.8,3.54.2,1.17-.52,3.59-1.04,5.32l.51,5.13c-2.75,1.16-5.31,2.81-5.55,4.53l-.76,5.5.14,64.4c0,2.39,5.37,4.72,7.11,5.03l-7.2,2.35-9.37,3.95c-.44.1-.78,3.15.04,3.53l3.48,1.62,6.2,3.36-11.84.46c-.57.02-2.71.58-2.26,1.25h-5.43s0-3.06,0-3.06l2.25-487.28,228.28-.02ZM1290.56,362.05h-1.21s.02,363.3.02,363.3h1.21s-.02-363.3-.02-363.3ZM1289.37,753.86l-.03,65.48h1.24s.03-65.48.03-65.48h-1.24ZM1286.81,765.97c-2.01-2.41-4.62-4.97-6.05-5.8-2.07,2.55-4.21,5.21-3.47,6.47l3.51,5.95,6.02-6.62Z"/>
          <path class="cls-6" d="M1629.31,337.39l-361.38.04c-3.72-1.05-4.68-5.99-4.62-8.55s1.55-8.55,5.69-8.55l359.76-.07c3.66,1.47,6.37,4.86,6.59,7.38.24,2.66-1.21,9.44-6.05,9.74Z"/>
          <path class="cls-34" d="M1624.43,837.34l-.04-485.88h-121.54s-228.28.03-228.28.03h-2.3s.04,485.8.04,485.8l-.92-1.39v-479.87s.66-12.76.66-12.76h352.82s.56,12.76.56,12.76l.02,477.84c0,1.42-.46,3.45-1.02,3.47Z"/>
          <polygon class="cls-44" points="1274.57 351.49 1272.32 838.76 1272.27 351.49 1624.39 351.46 1624.43 841.8 1272.32 841.83 1272.31 837.29 1272.27 351.49 1274.57 351.49"/>
          <path class="cls-62" d="M1612.56,873.28c-.1,4.64-7.87,4.49-11.14,4.72-6.74.46-10.59-1.48-11.96-8.17l-1.61-7.84-1.84-5.7,26.94-.15-.38,17.13Z"/>
          <path class="cls-11" d="M1612.56,873.28l.38-17.13-26.94.15-1.19-8.47,28.64-.03.46,22.68c.02.84-.9,3.38-1.34,2.81Z"/>
          <g>
            <path class="cls-55" d="M1363.54,281.08c0,2.51,1.94,7.02,6.33,7.03h27.16c1.63.01,4.57-2.13,5.59-3.15.9-.89.87-3.05.6-6.07l41.94-.17,1.91-5.15-.18,40.74-125.68.04-2.1-.53c-.34-.09-.2-.9-.2-1.27l.16-38.41,1.72.05.25,4.68,41.49-.43c.33.52,1.02,2.01,1.02,2.64Z"/>
            <rect class="cls-12" x="1374.35" y="188.56" width="17.5" height="141.8" transform="translate(1123.54 1642.54) rotate(-90)"/>
            <path class="cls-2" d="M1363.54,281.08c0-.63-.69-2.12-1.02-2.64l-41.49.43-.25-4.68-1.72-.05-.16,38.41-1.04-2.15.08-36.96,46.46.03-.86,7.61Z"/>
            <path class="cls-2" d="M1447.06,273.57l-1.91,5.15-41.94.17c.27,3.02.3,5.18-.6,6.07l-.35-11.55,44.79.16Z"/>
            <path class="cls-60" d="M1397.57,282.65l-.66-4.06-24.69.08c-.7,0-2.94.6-3.05.71l-.41-5.81,29.05.21-.24,8.87Z"/>
            <path class="cls-65" d="M1397.57,282.65l-26.53.42c-.66-.8-1.81-2.82-1.87-3.69.11-.11,2.35-.71,3.05-.71l24.69-.08.66,4.06Z"/>
          </g>
          <path class="cls-3" d="M1606,355.71v375.97h-315.05v-375.97h315.05ZM1445.41,360.34h-147.78s.02,365.69.02,365.69h147.78s-.02-365.69-.02-365.69ZM1600.77,360.34h-149.02v365.72h149.02v-365.72Z"/>
          <polygon class="cls-34" points="1502.85 354.65 1598.91 354.65 1600.06 355.71 1297.82 355.71 1299.07 354.65 1502.85 354.65"/>
          <rect class="cls-6" x="1289.36" y="362.05" width="1.21" height="363.3"/>
          <rect class="cls-6" x="1257.23" y="785.98" width="65.48" height="1.24" transform="translate(502.71 2076.16) rotate(-89.97)"/>
          <path class="cls-6" d="M1286.81,765.97l-6.02,6.62-3.51-5.95c-.74-1.26,1.4-3.92,3.47-6.47,1.43.83,4.04,3.39,6.05,5.8Z"/>
          <g>
            <path class="cls-28" d="M1578.03,293.66c-.73,8.43-8.94,18.94-11.72,19.45l-5.3,1.29-59.58-.12c-3.26-3.52-3.87-8.72-2.08-13.02,1.12-2.68,4.76-5.7,8.19-7.82,1.23-8.59,1.39-18.44,8.06-25.47,10.59-11.16,30.25-12.68,44.56-6.78,7.29,3.01,11.24,7.99,14.24,14.92,2.47,5.7,4.17,11.42,3.64,17.55ZM1523.19,285.84c2.83-.04,4.16-2.9,3.98-4.51-.14-1.21-1.83-4.01-3.09-3.94-1.72.09-3.65,2.54-3.78,3.85-.13,1.3,1.51,4.62,2.89,4.6ZM1557.13,281.51c0-2.32-1.88-4.2-4.21-4.2s-4.21,1.88-4.21,4.2,1.88,4.2,4.21,4.2,4.21-1.88,4.21-4.2ZM1543.04,287.26c.26-1.54-4.24-2.95-5.81-2.87s-4.76,1.89-4.43,3.46c.92,4.46,9.38,4.47,10.24-.58Z"/>
            <path class="cls-44" d="M1582.98,298.56l-2.67,5.76c-1.48,3.82-3.54,6.49-6.64,9.01l9.58.19c.29.33-1.83.92-2.46.92l-19.78-.03,5.3-1.29c2.78-.51,10.99-11.02,11.72-19.45l4.95,4.9Z"/>
            <path class="cls-55" d="M1583.25,313.52l-9.58-.19c3.1-2.52,5.16-5.19,6.64-9.01l2.67-5.76c3.94,4.26,4.21,10.62.27,14.96Z"/>
            <circle class="cls-16" cx="1552.92" cy="281.51" r="4.21"/>
            <path class="cls-62" d="M1543.04,287.26c-.86,5.06-9.32,5.04-10.24.58-.32-1.57,2.91-3.39,4.43-3.46s6.07,1.34,5.81,2.87Z"/>
            <path class="cls-29" d="M1523.19,285.84c-1.38.02-3.03-3.31-2.89-4.6.13-1.3,2.06-3.75,3.78-3.85,1.26-.07,2.96,2.74,3.09,3.94.18,1.61-1.15,4.47-3.98,4.51Z"/>
          </g>
          <g>
            <path class="cls-6" d="M1600.77,360.34v365.72h-149.02v-365.72h149.02ZM1483.05,545.26c-4.46-2.59-8.8-3.09-13.26-1.54-2.93,1.02-6.45,4.47-7.3,8.38-1.01,4.68,1.03,9.16,4.19,11.5s7.81,3.26,11.57,2.28c4.98-1.29,8.39-4.39,9.3-8.45.99-4.41-.14-9.63-4.51-12.16Z"/>
            <path class="cls-3" d="M1483.05,545.26c4.37,2.53,5.5,7.76,4.51,12.16-.91,4.07-4.32,7.16-9.3,8.45-3.76.97-8.48,0-11.57-2.28s-5.2-6.81-4.19-11.5c.84-3.92,4.36-7.36,7.3-8.38,4.45-1.55,8.79-1.05,13.26,1.54ZM1473.61,561.08c2.83.61,6.41-1.31,7.32-3.2,1.1-2.28.66-6.47-.8-7.92-2.03-2.01-5.61-2.53-8.33-1.44-3.04,1.22-4.64,4.28-4.2,7.3.33,2.29,2.37,4.46,6.01,5.25Z"/>
            <path class="cls-34" d="M1473.61,561.08c-3.64-.79-5.68-2.97-6.01-5.25-.44-3.03,1.16-6.09,4.2-7.3,2.72-1.09,6.3-.57,8.33,1.44,1.46,1.45,1.9,5.64.8,7.92-.91,1.89-4.49,3.81-7.32,3.2Z"/>
          </g>
          <g>
            <path class="cls-6" d="M1445.41,360.34l.02,365.68h-147.78s-.02-365.67-.02-365.67h147.78ZM1429.78,564.39c3.1-1.92,5.92-6.38,5.35-11.09-.61-5.14-4.59-8.99-8.51-10.06-4.91-1.34-9.28-.01-13.21,2.98-3.26,2.48-4.57,6.1-3.92,10.65.87,6.06,11.73,12.81,20.28,7.53Z"/>
            <path class="cls-3" d="M1429.78,564.39c-8.55,5.28-19.41-1.47-20.28-7.53-.65-4.55.66-8.17,3.92-10.65,3.93-2.99,8.3-4.32,13.21-2.98,3.92,1.07,7.9,4.92,8.51,10.06.56,4.71-2.26,9.18-5.35,11.09ZM1429.67,554.5c0-3.82-3.1-6.91-6.92-6.91s-6.92,3.09-6.92,6.91,3.1,6.91,6.92,6.91,6.92-3.09,6.92-6.91Z"/>
            <ellipse class="cls-11" cx="1422.75" cy="554.5" rx="6.92" ry="6.91"/>
          </g>
          <g>
            <path class="cls-7" d="M1298.69,825.31c-1.74-.32-7.11-2.65-7.11-5.03l-.14-64.4.76-5.5c3.74-1.96,7.19-2.78,12.18-2.78l293.32.04c5.11,0,8.25,3.42,8.24,8.1l-.02,61.26c0,5.11-4.22,8.44-9.43,8.32h-297.8ZM1297.59,753.03v66.73s303.13.03,303.13.03v-66.73s-303.13-.03-303.13-.03Z"/>
            <path class="cls-6" d="M1297.59,753.03l303.14.03v66.73s-303.15-.03-303.15-.03v-66.73ZM1458.47,778.78c-5.17-5.7-12.56-5.95-17.6-1.7-5.32,4.5-5.16,12.48-.02,17,5.05,4.44,12.48,3.8,17.3-1.57,1.67-1.86,3.49-4.42,3.58-6.45.11-2.5-1.35-5.18-3.25-7.28Z"/>
            <path class="cls-3" d="M1458.47,778.78c1.9,2.1,3.37,4.77,3.25,7.28-.09,2.04-1.92,4.6-3.58,6.45-4.82,5.37-12.25,6-17.3,1.57-5.14-4.51-5.3-12.5.02-17,5.04-4.26,12.43-4.01,17.6,1.7ZM1455.18,785.51c0-3.53-2.87-6.4-6.4-6.4s-6.4,2.86-6.4,6.4,2.87,6.4,6.4,6.4,6.4-2.86,6.4-6.4Z"/>
            <ellipse class="cls-67" cx="1448.78" cy="785.51" rx="6.4" ry="6.4"/>
          </g>
        </g>
      </g>
    </g>
  </g>
  <g id="personajes">
    <g>
      <path d="M1185.86,702.4c-.04-12.84-10.63-23.27-22.54-27.29-1.78-.61-3.15-1.51-4.53-2.71l-9.72-8.28c-10.34-7.49-21.54-3.97-31.98,2.14-2.59-.2-5.14-.24-7.52.64-4.23,1.55-6.96,6-5.24,9.91l-.23.58c-6.34-.5-12.19-2.37-17.23-5.72.61-3.43.9-6.59.8-10.15-.48-16.3-5.15-32.12-13.97-45.79-3.16-4.92-6.54-9.13-10.81-13.13-18.37-17.21-39.81-24.31-64.69-26.56-13.37-1.22-26.52-1.14-39.88.23l-14.7,1.51c-25.85-17.07-55.04-23.52-85.67-22.61-8.94.26-17.46,1.65-26.06,3.85-.13-7.76-2.22-16.29-8.02-21.11l-1.29.26c-.26.06.12.84.22,1.07,2.38,6.96,4.07,13.81,4.07,21.27l-4.85,1.59c-.62-5.78-2.35-11.52-6.12-16.19-1.31-1.62-2.89-3.01-5.07-3.4,2.09,5.15,4.66,9.72,5.51,15.03l1,6.22-4.19,1.94c-3.44-10.56-11.5-18.77-22.12-21.23-1.79-.42-3.51-.51-5.47.07,10.11,4.94,18.39,12.75,22.77,23.37-20.22,10.42-34.88,28.51-41.63,50.15-4.7-.25-8.83.75-12.93,2.86-14.08,7.19-24.96,22.87-25.12,38.96-4.21,4.14-7.17,9.26-7.39,15.1-.17,4.42,1.84,8.38,5.72,10.48,4.29,2.33,9.36,1.77,8.63,1.29-1.91-1.24-4.72-1.36-7.06-3.41-5.38-4.71-3.5-12.58,1.38-18.33,2.68,6.06,7.73,9.63,14.09,10.16,10.08.84,19.39-5.98,20.1-16.43,1.01,5.11,2.87,9.78,5.33,14.54-9.51.08-25.33,9.22-21.12,16.19,1.13,1.89,3.54,2.51,5.57,2.64.72,2.59,1.87,4.93,4.64,5.85,2.99,1,6.17.79,9.18-.21,5.15,4.24,16.08,2.76,22.89.39,1.7-.58,2.97-.42,4.65.07,24.5,7.38,59.92,9.49,85.76,9.01l9.86-.62c3.78,4.15,8.76,3.68,13.89,2.79,5.33,4.92,15.8,3.81,22.8,1.48l5.74-1.9c36.09,3.83,72.55,6.83,108.57,1.76,2.49-.34,4.43-.02,6.92.27,17.43,2.14,34.76,2.54,52.32,1.38l21.2-2.92,11.48,1.74c3.31.5,6.66,1,9.82.03l4.12-1.29c8.67,2.64,20.68,5.67,29.07,3.81,5.51-1.23,9.07-5.74,9.07-11.32ZM758.09,663.68c-3.65,5.78-11.16,7.94-17.21,5.34-3.23-1.4-5.39-3.75-6.16-7.35,5.47-6.68,19.06-13.07,23.6-6.01,1.48,2.3,1.37,5.48-.24,8.02ZM763.41,654.15c-1.65-3.01-3.6-5.2-6.88-6.18-7.76-2.32-15.99,1.51-22.03,7.25.4-5.04,2.21-9.41,4.55-13.71,5.33-9.85,15.16-19.72,26.79-20.17-2.95,10.84-3.49,21.49-2.42,32.81ZM1108.2,672.49c5.06-5.57,15.89-.83,19.83,7,2.04,4.03,1.66,8.7.35,8.5-1.7-.25-.22-6.03-4.59-9.81-4.92-4.25-10.72-.15-15.94-.99-.75-1.37-.72-3.54.34-4.71ZM817.63,567.94c-.32,4.84-1.45,9.38-3.32,13.81.11-4.39.32-8.27-.25-12.47l3.57-1.34ZM771.13,695.17c-1.3-1.59.2-4.01,1.4-5.1l3.84-3.44c-3.91-.9-6.89,1.78-8.57,4.84-.98,1.82-2.27,3.05-3.97,3.41-2.06.45-4.27,0-5.51-1.87-.86-1.3-.12-3.12.84-4.44,1.43-1.96,3.99-3.45,6.06-4.51,2.64-1.33-2.64-3.06-8.79,3.14-1.17,1.2-3.85,1.81-4.56-.04-.64-1.63,1.18-3.59,2.47-4.6,3.92-3.1,8.48-4.54,13.39-5.37,2.32-.4,3.87.25,5.04.36.84,1.42,1.79,2.76,2.84,4,2.76,3.31,8.73,8.2,12.7,10.96l.85,1.63c-5.15,2.24-15.81,3.79-18.05,1.04ZM1040.06,706.36c-24.33,4.25-60.75,3.62-85.34.57l-14.68-1.79c14.37-7.49,23.63-20.26,26.28-35.8.73-4.17,1.29-10.83-.8-11.01-.43-.03-1.17.8-1.25,1.24l-2.03,10.85c-2.63,10.02-8.05,18.96-16.18,25.41-9.13,7.23-22.09,13.36-33.75,12.34-1.79-.15-4.22-1.33-4.18-3.21.03-2.87,2.67-4.78,4.46-6.63,2.81-2.84-3.71-2.73-7.69,4.45-1.51,2.73-4.44,3.84-7.52,3.2-1.06-.2-2.27-.91-2.75-1.69-1.96-3.3,3.27-9.01,8.24-10.93l-.11-1.08c-3.35.09-5.92,1.33-8.16,3.48l-4.22,5.19c-.63.79-2.81,1.29-3.65.82-1.87-1.52-1.88-4.25-.94-6.35,3.19-6.99,11.82-9.86,19.34-11.32,5.09-.97,9.82-2.23,14.4-4.56,7.95-4.03,14.01-10.3,17.48-18.56,1.3-3.1,2.58-8.58,1.45-9.76-.18-.2-.9.31-1.01.62-1.42,4.13-3.25,8.73-5.88,12.64-4.26,6.37-10.37,10.69-17.48,13.39l-9.5,2.51c-4.29,1.14-8.53,1.91-12.48,3.88-7.57,3.77-13.24,10.51-9.74,18.62-20.98.7-42.98-.38-63.37-3.63-5.81-.93-11.26-1.95-16.86-3.72-4.55-1.42-8.62-3.44-12.53-5.97,0,0-.02-.02-.03-.02-3.63-2.59-9.03-7.01-11.54-10.01-1.26-1.49-2.35-3.12-3.28-4.86-.05-.08-.11-.15-.18-.23-8.84-15.53-9.33-35.75-4.87-52.88,4.98,1.16,9.18,3.2,13.28,5.73.98.6,1.98,1.12,3.11,1.42-4.05-4.97-9.4-7.96-15.54-9.73,6.16-21.15,19.62-36.44,39.05-47.45,2.25,9.51-.86,19.02-5.55,27.3,1.39-.12,2.48-.75,3.19-1.66,6.95-8.88,14.09-19.68,14.6-30.98l4.54-1.41c-.33,2.97-.77,5.15-1.54,7.72-.88,3.11-2.48,5.88-2.73,9.5,4.95-5.29,7.69-11.95,9.32-18.77,17.62-4.88,35.74-5.48,53.83-2.83,27.55,4.05,52.95,14.7,72.81,34.33.42.43,1.47.53,1.95.21-1.9-5.4-7.84-9.7-12.05-13.65,24.8-2.91,50.83-3.58,74.52,2.98,14.95,4.16,28.6,11.67,39.4,22.83,13.13,13.54,20.76,34.4,21.71,53.11.16,3.1.22,5.86-.67,8.88l-7.52-7.26c-.48-.46-1.84-.7-2.39-.41-.53.27-.61,1.69-.09,2.39,10.46,13.95,26.17,20.01,43.41,16.56,1.95-.38,4.4-.23,5.68,1.34,2.74,3.35,1.46,7.97-2.05,10.15-1.26.77-2.46,1.41-4,1.57-10.97,1.1-21.81.97-32.71-.83-6.71-1.11-12.84-2.99-18.77-6.27-.66-.37-1.68-.38-2.08.02-1.94,2.11,5.01,5.68,9.07,7.52-8.55,6.85-20.62,10.59-31.44,12.49ZM1099.48,708.21l-20.2.68c-7.65-.12-15.08-.5-22.76-1.9,7.62-3.12,14.19-6.44,19.68-11.83,10.03,2.24,19.92,3.34,30.14,2.88l11.64-.51c.62,1.76,1.54,3.29,2.6,4.76l1.6,2.24c-7.6,1.91-14.93,3.05-22.7,3.69ZM1127.18,700.11c-2,.38-4.11-.21-4.69-1.56-1.57-3.76,1.01-6.76,4.56-8.15,2.46-.96,7.37-.61,7.56,2.88.17,3.27-4.44,6.24-7.44,6.82ZM1136.51,685.31c1.21-2.34,3.46-3.59,5.96-2.96,2.4.6,3.99,3.02,3.78,5.75-.23,3.01-1.94,6.08-5.48,6.05-1.43-.02-2.77-1.33-3.54-2.18-1.77-2.02-1.9-4.36-.72-6.65ZM1144.77,705.29c-1.82,2.97-5.95,2.59-8,.19-2.66-3.1-2.12-7.21.67-10.4l4.58,2.14c2.82,1.33,4.56,5.12,2.75,8.07ZM1163.51,699.19c-1.11,2.55-4.69,2.89-6.41,1.05.21-1.86,1.66-3.53,3.37-4.32.78-.35,2.05-.1,2.54.35.53.49.9,2.03.5,2.92Z"/>
      <path class="cls-10" d="M1163.51,699.19c-1.11,2.55-4.69,2.89-6.41,1.05.21-1.86,1.66-3.53,3.37-4.32.78-.35,2.05-.1,2.54.35.53.49.9,2.03.5,2.92Z"/>
      <path class="cls-10" d="M1146.24,688.09c-.23,3.01-1.94,6.08-5.48,6.05-1.43-.02-2.77-1.33-3.54-2.18-1.77-2.02-1.9-4.36-.72-6.65,1.21-2.34,3.46-3.59,5.96-2.96,2.4.6,3.99,3.02,3.78,5.75Z"/>
      <path class="cls-10" d="M1144.77,705.29c-1.82,2.97-5.95,2.59-8,.19-2.66-3.1-2.12-7.21.67-10.4l4.58,2.14c2.82,1.33,4.56,5.12,2.75,8.07Z"/>
      <path class="cls-10" d="M1127.18,700.11c-2,.38-4.11-.21-4.69-1.56-1.57-3.76,1.01-6.76,4.56-8.15,2.46-.96,7.37-.61,7.56,2.88.17,3.27-4.44,6.24-7.44,6.82Z"/>
      <path class="cls-10" d="M1128.38,687.99c-1.7-.25-.22-6.03-4.59-9.81-4.92-4.25-10.72-.15-15.94-.99-.75-1.37-.72-3.54.34-4.71,5.06-5.57,15.89-.83,19.83,7,2.04,4.03,1.66,8.7.35,8.5Z"/>
      <path class="cls-10" d="M1122.18,704.51c-7.6,1.91-14.93,3.05-22.7,3.69l-20.2.68c-7.65-.12-15.08-.5-22.76-1.9,7.62-3.12,14.19-6.44,19.68-11.83,10.03,2.24,19.92,3.34,30.14,2.88l11.64-.51c.62,1.76,1.54,3.29,2.6,4.76l1.6,2.24Z"/>
      <path class="cls-10" d="M789.18,694.12c-5.15,2.24-15.81,3.79-18.05,1.04-1.3-1.59.2-4.01,1.4-5.1l3.84-3.44c-3.91-.9-6.89,1.78-8.57,4.84-.98,1.82-2.27,3.05-3.97,3.41-2.06.45-4.27,0-5.51-1.87-.86-1.3-.12-3.12.84-4.44,1.43-1.96,3.99-3.45,6.06-4.51,2.64-1.33-2.64-3.06-8.79,3.14-1.17,1.2-3.85,1.81-4.56-.04-.64-1.63,1.18-3.59,2.47-4.6,3.92-3.1,8.48-4.54,13.39-5.37,2.32-.4,3.87.25,5.04.36.84,1.42,1.79,2.76,2.84,4,2.76,3.31,8.73,8.2,12.7,10.96l.85,1.63Z"/>
      <path class="cls-10" d="M1122.04,681.71c-1.28-1.57-3.73-1.72-5.68-1.34-17.24,3.45-32.95-2.61-43.41-16.56-.52-.69-.45-2.12.09-2.39.55-.29,1.91-.05,2.39.41l7.52,7.26c.89-3.02.83-5.78.67-8.88-.95-18.71-8.58-39.57-21.71-53.11-10.8-11.16-24.45-18.67-39.4-22.83-23.69-6.56-49.72-5.88-74.52-2.98,4.21,3.96,10.15,8.25,12.05,13.65-.48.32-1.53.22-1.95-.21-19.87-19.62-45.26-30.27-72.81-34.33-18.09-2.65-36.2-2.06-53.83,2.83-1.62,6.81-4.37,13.48-9.32,18.77.26-3.62,1.86-6.39,2.73-9.5.76-2.57,1.21-4.76,1.54-7.72l-4.54,1.41c-.51,11.29-7.65,22.09-14.6,30.98-.71.91-1.8,1.54-3.19,1.66,4.69-8.27,7.81-17.79,5.55-27.3-19.43,11.01-32.89,26.29-39.05,47.45,6.14,1.77,11.49,4.76,15.54,9.73-1.13-.3-2.13-.81-3.11-1.42-4.1-2.52-8.3-4.57-13.28-5.73-4.46,17.12-3.97,37.35,4.87,52.88.07.08.13.15.18.23.93,1.74,2.02,3.36,3.28,4.86,2.52,3,7.91,7.42,11.54,10.01.01,0,.03.02.03.02,3.91,2.53,7.98,4.55,12.53,5.97,5.6,1.76,11.05,2.79,16.86,3.72,20.39,3.25,42.39,4.33,63.37,3.63-3.5-8.11,2.17-14.85,9.74-18.62,3.95-1.97,8.19-2.74,12.48-3.88l9.5-2.51c7.1-2.7,13.21-7.03,17.48-13.39,2.63-3.91,4.46-8.51,5.88-12.64.11-.31.83-.81,1.01-.62,1.13,1.18-.15,6.66-1.45,9.76-3.48,8.26-9.53,14.53-17.48,18.56-4.58,2.33-9.32,3.59-14.4,4.56-7.52,1.46-16.16,4.33-19.34,11.32-.94,2.1-.93,4.83.94,6.35.84.47,3.02-.03,3.65-.82l4.22-5.19c2.24-2.15,4.81-3.4,8.16-3.48l.11,1.08c-4.97,1.91-10.2,7.62-8.24,10.93.48.79,1.69,1.49,2.75,1.69,3.08.63,6.01-.47,7.52-3.2,3.98-7.18,10.5-7.29,7.69-4.45-1.79,1.85-4.43,3.76-4.46,6.63-.04,1.89,2.38,3.06,4.18,3.21,11.66,1.03,24.62-5.11,33.75-12.34,8.13-6.45,13.55-15.39,16.18-25.41l2.03-10.85c.08-.44.82-1.27,1.25-1.24,2.09.18,1.53,6.84.8,11.01-2.65,15.54-11.91,28.32-26.28,35.8l14.68,1.79c24.59,3.05,61.01,3.67,85.34-.57,10.82-1.91,22.89-5.64,31.44-12.49-4.06-1.83-11.01-5.4-9.07-7.52.39-.41,1.41-.39,2.08-.02,5.94,3.28,12.07,5.16,18.77,6.27,10.9,1.79,21.73,1.92,32.71.83,1.54-.16,2.74-.8,4-1.57,3.51-2.18,4.79-6.8,2.05-10.15ZM836.41,660.95c-3.65,6.22-11.21,8.94-18.11,6.26-1.47-.57-2.75-1.64-3.28-2.91-.24-.58.1-1.9.55-2.21,2.11-1.45,5.81,3.76,12.43.56,5.57-2.7,4.89-7.71,6.66-9.12.42-.33,1.94-.2,2.2.32,1.03,2.08.8,4.99-.45,7.11ZM876.16,655.28c-.58,1.63-2.15,2.9-3.64,3.98-6.07,4.37-14.39,3.68-15.83-.89-1.63-5.21,7.2-11.75,15.38-10.05,3.15.66,5.15,3.99,4.09,6.96ZM902.97,629.33c-3.21,6.43-10.91,9.06-17.46,6.14-1.61-.71-3.08-1.7-3.78-3.63-.15-.42.25-1.62.52-1.96,1.69-2.16,4.1,3.12,9,2.59,4.24-.46,7.36-3.74,8.67-7.7.36-1.08,1.85-2.3,2.84-1.28,1.37,1.4,1.11,4.04.21,5.84Z"/>
      <path d="M876.16,655.28c-.58,1.63-2.15,2.9-3.64,3.98-6.07,4.37-14.39,3.68-15.83-.89-1.63-5.21,7.2-11.75,15.38-10.05,3.15.66,5.15,3.99,4.09,6.96Z"/>
      <path d="M836.41,660.95c-3.65,6.22-11.21,8.94-18.11,6.26-1.47-.57-2.75-1.64-3.28-2.91-.24-.58.1-1.9.55-2.21,2.11-1.45,5.81,3.76,12.43.56,5.57-2.7,4.89-7.71,6.66-9.12.42-.33,1.94-.2,2.2.32,1.03,2.08.8,4.99-.45,7.11Z"/>
      <path d="M902.97,629.33c-3.21,6.43-10.91,9.06-17.46,6.14-1.61-.71-3.08-1.7-3.78-3.63-.15-.42.25-1.62.52-1.96,1.69-2.16,4.1,3.12,9,2.59,4.24-.46,7.36-3.74,8.67-7.7.36-1.08,1.85-2.3,2.84-1.28,1.37,1.4,1.11,4.04.21,5.84Z"/>
    </g>
  </g>
</svg>