<?xml version="1.0" encoding="UTF-8"?>
<svg id="Capa_1" data-name="Capa 1" xmlns="http://www.w3.org/2000/svg" viewBox="0 0 1624.66 1080.92">
  <defs>
    <style>
      .cls-1 {
        fill: #c9c9c9;
      }

      .cls-2 {
        fill: #474747;
      }

      .cls-3 {
        fill: #454545;
      }

      .cls-4 {
        fill: #a1a1a1;
      }

      .cls-5 {
        fill: #575757;
      }

      .cls-6 {
        fill: #2b2b2b;
      }

      .cls-7 {
        fill: #9c9c9c;
      }

      .cls-8 {
        fill: #545454;
      }

      .cls-9 {
        fill: #a3a3a3;
      }

      .cls-10 {
        fill: #787878;
      }

      .cls-11 {
        fill: #141414;
      }

      .cls-12 {
        fill: #636363;
      }

      .cls-13 {
        fill: #191919;
      }

      .cls-14 {
        opacity: .4;
      }

      .cls-15 {
        fill: #1c1c1c;
      }

      .cls-16 {
        fill: #dedede;
      }

      .cls-17 {
        fill: #e0e0e0;
      }

      .cls-18 {
        fill: #292929;
      }

      .cls-19 {
        fill: #707070;
      }

      .cls-20 {
        fill: #919191;
      }

      .cls-21 {
        fill: #adadad;
      }

      .cls-22 {
        fill: #8f8f8f;
      }

      .cls-23 {
        fill: #828282;
      }

      .cls-24 {
        fill: #9e9e9e;
      }

      .cls-25 {
        fill: #5e5e5e;
      }

      .cls-26 {
        fill: #757575;
      }

      .cls-27 {
        fill: #242424;
      }

      .cls-28 {
        fill: #666;
      }

      .cls-29 {
        fill: #969696;
      }

      .cls-30 {
        fill: #8a8a8a;
      }

      .cls-31 {
        fill: #a8a8a8;
      }

      .cls-32 {
        fill: #858585;
      }

      .cls-33 {
        fill: #8c8c8c;
      }

      .cls-34 {
        fill: #999;
      }

      .cls-35 {
        fill: #525252;
      }

      .cls-36 {
        fill: #ebebeb;
      }

      .cls-37 {
        fill: #a6a6a6;
      }

      .cls-38 {
        fill: #949494;
      }

      .cls-39 {
        fill: #b0b0b0;
      }

      .cls-40 {
        fill: #2e2e2e;
      }

      .cls-41 {
        fill: #6e6e6e;
      }

      .cls-42 {
        fill: #5c5c5c;
      }

      .cls-43 {
        fill: #696969;
      }

      .cls-44 {
        fill: #cfcfcf;
      }

      .cls-45 {
        fill: #171717;
      }

      .cls-46 {
        fill: #878787;
      }
    </style>
  </defs>
  <g class="cls-14">
    <path class="cls-17" d="M0,971.18V0h1624.96v971.3s-541.34.14-541.34.14l-2.42-.81c.65-2.37,1.28-5.11,1.28-7.92l.04-77.79,69.06,25.48c2.65.98,8.11.24,11.07.31,5.42.69,10.58-3.24,10.45-8.19h1.35s.9-1.43.9-1.43l-1.04-343.74,3.3-.65c5.17-1.75,9.92-5.53,12.25-11.08,5.72-13.61-.32-30.21-11.21-32.43l-3.3-2.85V131.45s-.93-1.41-.93-1.41l-1.29.12c-.53-5.22-4.69-8.63-10.67-8.04-3.02.3-9.23-.89-12.11.93l-68.37,43.26c-2.66-3.23-5.83-5.8-10.4-5.8l-159.54.42c6.28-12.25.87-26.54-11.44-33.69-1.21-8.27-2.26-16.5-6.05-24.26-10.17-20.79-33.34-30.23-55.36-24.21-21.43,5.86-35.17,25.62-34.43,48.57-9.51,6.81-13.98,18.15-10.65,28.51l1.5,4.66h-46.16s.62-12.45.62-12.45l.03-42.83c4.18-1.72,6.47-4.65,6.43-8.87l-.16-18.18c-.07-7.54-6.69-10.55-13.83-10.54l-166.92.04c-6.56,0-11.33,4.18-11.32,10.8l.04,18.44c0,1.05.91,3.12,1.29,3.83.83,1.56,2.96,3.15,5.85,4.4l.22,55.34-23.81.07c-4.4.01-8.3,2.93-10.65,6.59l-63.78-40.7c-5.8-3.7-10.55-4.73-17.69-4.75-6.4-.02-13.63,2.57-13.63,10.89l-.03,379.59c-6.04.18-11.24,2.42-14.56,7.55-5.19,8.02-5.85,18.84-1.45,27.37,3.14,6.09,8.8,9.62,16,10.07l.05,343.75c0,4.66,3.51,8.08,6.9,9.62,5.17-.26,12.04,1.53,16.88-.24l71.79-26.36-.03,79.87c0,2.1,1.03,5.06,1.77,6.65l-2.36,1L0,971.18Z"/>
    <polygon class="cls-41" points="1624.97 971.3 1624.96 977.96 1073.92 977.39 1081.21 970.63 1083.63 971.44 1624.97 971.3"/>
    <polygon class="cls-41" points="547.07 977.78 0 977.08 0 971.18 537.11 971.45 539.48 970.45 547.07 977.78"/>
    <polygon class="cls-36" points="1178.66 513.18 1174.22 512.27 1174.43 130.05 1175.35 131.45 1175.36 510.33 1178.66 513.18"/>
    <polygon class="cls-24" points="1174.22 512.27 1172.2 512.29 1173.24 131.18 1173.14 130.16 1174.43 130.05 1174.22 512.27"/>
    <polygon class="cls-24" points="1177.62 556.69 1174.32 557.34 1174.45 902.52 1173.11 902.52 1172.2 557.44 1177.62 556.69"/>
    <polygon class="cls-36" points="1174.45 902.52 1174.32 557.34 1175.36 901.08 1174.45 902.52"/>
    <g>
      <path class="cls-5" d="M1624.95,1056.25l.02,27.06H0s.02-27.92.02-27.92l48.75.83c3.77,0,7.65-2.34,10.3-4.62,3.56,2.92,6.96,4.61,12,4.61l242.98-.08c3.16,0,6.4-2.88,8.34-4.5,2.97,2.42,5.87,4.55,9.95,4.55l244.05-.03c4.15,0,7.42-1.97,10.06-4.3,3.24,2.23,6.69,4.33,11.45,4.33l256.71-.03c4.57,0,7.88-1.83,11.18-4.37,2.27,2.07,5.44,4.41,9.21,4.41l191.23-.02c4.85,0,8.37-1.7,11.53-4.48,3.51,2.86,7.14,4.5,12.05,4.5l197.57-.04c3.16,0,6.4-2.95,8.51-4.74,2.79,2.3,5.76,4.77,9.73,4.77h247.24c4.32-.01,7.71-2.21,10.37-4.32,3.47,2.66,7.48,4.43,11.97,4.42l49.74-.02Z"/>
      <path class="cls-34" d="M1073.92,977.39l551.05.57v23.27s-55.45.06-55.45.06l-6.25,3.65c-1.61-.83-5.2-3.65-7.57-3.65h-251.81c-2.59,0-5.78,2.54-7.92,3.6-1.4-.7-5.09-3.58-6.82-3.58l-203.42-.04c-2.47,0-5.87,2.53-7.6,3.61l-7.34-3.64-1.57-23.03,4.7-.81Z"/>
      <path class="cls-7" d="M547.07,977.78h5.05s-2.39,23.49-2.39,23.49l-220.21.02c-1.73,0-5.43,2.98-6.84,3.65-2.04-.98-5.43-3.68-7.91-3.68l-247.72.03c-2.47,0-5.91,2.54-7.7,3.76-3.37-2.27-6.68-3.75-10.63-3.76l-48.69-.93-.03-23.29,547.07.7Z"/>
      <path class="cls-10" d="M1624.97,1012.44v37.46s-50.85-.24-50.85-.24c-3.52,0-7.41-2.76-7.42-6.5l-.08-28.66c2.63.08,4.99-.64,7.79-2.36l50.55.3Z"/>
      <path class="cls-23" d="M55.42,1016.88l.11,26.93c.01,3.09-3.88,5.83-6.74,5.83l-48.78-.19v-37.44s21.18-.15,21.18-.15l32.26.38,1.96,4.63Z"/>
      <path class="cls-38" d="M1624.95,1008.63l.02,3.81-50.55-.3c-2.8,1.72-5.16,2.44-7.79,2.36,0-3.1,2.52-6.76,6.44-6.76l51.88.89Z"/>
      <path class="cls-29" d="M55.42,1016.88l-1.96-4.63-32.26-.38-21.18.15.03-4.25,50.75.02c4.85,0,4.61,6.33,4.62,9.08Z"/>
      <path class="cls-10" d="M862.3,1014.47l-.22,29.5c-.03,4.02-3.76,5.65-7.45,5.65l-257.75-.03c-3.62,0-7-3.25-6.94-6.23l.32-16.1c1.36-2.52,1.09-7.1,1.08-10.99.66-1.79,4.88-4.23,7.41-4.24l75.92-.34,29.95-.08,31.91.11,115.46.16c3.71,0,7.39,1.24,10.32,2.59Z"/>
      <path class="cls-10" d="M1560.05,1015.55l.03,34.17-260.94.24-.04-38.67,1.06,28.13.98.58.16-23.4c1.37-1.29,4.52-3.81,6.25-4.62l110-.38h68.86s60.22.2,60.22.2c5,.02,9.2,1.19,13.42,3.75Z"/>
      <path class="cls-10" d="M319.5,1012.08v37.7s-257.24-.1-257.24-.1v-5.33s3.27-6.32,3.27-6.32c-2.26-5.78-2.58-11.87-1.74-17.79l6.3-8,39.93-.77,21.95.17,25.93.12,150.82.03c3.56,0,6.82,1.21,9.46,2.52l1.32-2.22Z"/>
      <path class="cls-23" d="M583.31,1014.86l.03,34.8-257.59.26v-5.56s4.68-3.33,4.68-3.33l-.03-23.38c0-3.09,2.67-5.6,5.94-5.63l45.29-.29,21.71-.1,41.19.06,131.95.27c2.44,0,5.65,1.59,6.82,2.91Z"/>
      <path class="cls-10" d="M1292.42,1011.36l.33,31.56c.05,4.48-3.33,6.72-7.49,6.72h-196.51c-3.97-.01-7-2.41-6.94-5.34l.69-30.05,6.24-2.26,194.38-.09c2.94,0,6.21,1.52,8.35,2.45l.95-3Z"/>
      <path class="cls-10" d="M1073.62,1026.31l.67,17c.1,2.55-2.79,6.32-5.91,6.32l-193.34-.02c-3.68,0-6.13-4.64-6.6-7.42l.32-29.98.93,32.03,1.01-.57-.09-27.3,7.56-4.53,115.02-.09,46.87-.1,32.49.54,1.06,14.13Z"/>
      <path class="cls-7" d="M1023.52,995.8l-3.66-1.33-30.6.29c-7.62.99-14.61,1.01-22.48-.36l-174.22.1-16.03-.71-45.98.22-70.13.2-8.83.06-50.78.38-4.31.47,4.46-17.33h418.45s4.11,18.01,4.11,18.01Z"/>
      <path class="cls-46" d="M1023.52,995.8l1.61,5.46-150.05-.05c-3.41,0-6.35,1.65-9.07,3.47-1.55-.96-4.99-3.42-7.47-3.42l-263.73-.04,1.7-6.1,4.31-.47,50.78-.38,8.83-.06,70.13-.2,45.98-.22,16.03.71,174.22-.1c7.87,1.37,14.85,1.36,22.48.36l30.6-.29,3.66,1.33Z"/>
      <path class="cls-20" d="M578.69,1007.95h4.62s0,6.91,0,6.91c-1.17-1.31-4.38-2.9-6.82-2.91l-131.95-.27-41.19-.06-21.71.1-45.29.29c-3.27.02-5.95,2.54-5.94,5.63l.03,23.38-4.68,3.33-.04-36.16h4.33s1.33,1.06,1.33,1.06h246.01s1.3-1.32,1.3-1.32Z"/>
      <path class="cls-38" d="M597.75,1008.15l1.22,1.12h190.05s1.23-1.28,1.23-1.28l66.74-.3c3.62-.02,5.33,4.18,5.31,6.79-2.93-1.35-6.6-2.58-10.32-2.59l-115.46-.16-31.91-.11-29.95.08-75.92.34c-2.52.01-6.75,2.45-7.41,4.24,0,3.89.28,8.47-1.08,10.99l-.28-11.94c-.05-1.56.83-5.02,2.02-5.98s4.05-1.21,5.74-1.21Z"/>
      <path class="cls-20" d="M315.3,1008.2h4.2s0,3.88,0,3.88l-1.32,2.22c-2.64-1.3-5.9-2.51-9.46-2.52l-150.82-.03-25.93-.12-21.95-.17-39.93.77-6.3,8c-.84,5.92-.51,12.01,1.74,17.79l-3.27,6.32v-36.25s4.38,0,4.38,0l1.32,1.15h246.01s1.34-1.06,1.34-1.06Z"/>
      <path class="cls-38" d="M1292.42,1011.36l-.95,3c-2.14-.93-5.41-2.46-8.35-2.45l-194.38.09-6.24,2.26-.69,30.05-.75-29.83c-.02-3.67,2.48-6.7,6.6-6.7h199.72c1.49-.01,4.16,2.34,5.03,3.59Z"/>
      <path class="cls-20" d="M1555.15,1007.97h4.9s0,7.58,0,7.58c-4.22-2.57-8.42-3.74-13.42-3.75l-60.22-.18h-68.86s-110,.37-110,.37c-1.73.81-4.88,3.32-6.25,4.62l-.16,23.4-.98-.58-1.06-28.13v-3.08s4.21,0,4.21,0l2.34,1.06h248.19s1.3-1.29,1.3-1.29Z"/>
      <path class="cls-38" d="M1070.7,1008.2c1.48.75,3.64,3.4,3.56,5.15l-.64,12.96-1.06-14.13-32.49-.54-46.87.1-115.02.09-7.56,4.53.09,27.3-1.01.57-.93-32.03,3.91-4.01,2.36,1.06h194.29s1.37-1.06,1.37-1.06Z"/>
      <polygon class="cls-46" points="590.71 991.83 588.28 1004.53 581.84 1001.6 556.51 1000.99 557.65 987.89 590.72 988.11 590.71 991.83"/>
      <path class="cls-32" d="M1063.37,988.03l.52,13.25h-31.34s-3.55-11.01-3.55-11.01l.31-1.71c.08-.72,2.24-.66,3.13-.66l30.92.13Z"/>
      <path class="cls-28" d="M1063.37,988.03l-30.92-.13c-.89,0-3.05-.06-3.13.66l-.31,1.71-2.69-12.38,36.66-.11.4,10.24Z"/>
      <polygon class="cls-43" points="590.71 991.83 590.72 988.11 557.65 987.89 558.53 977.79 593.41 977.79 590.71 991.83"/>
      <polygon class="cls-4" points="1555.15 1007.97 1553.84 1009.26 1305.65 1009.27 1303.31 1008.21 1555.15 1007.97"/>
      <polygon class="cls-9" points="578.69 1007.95 577.39 1009.27 331.38 1009.26 330.05 1008.2 578.69 1007.95"/>
      <polygon class="cls-9" points="315.3 1008.2 313.96 1009.26 67.96 1009.26 66.64 1008.11 315.3 1008.2"/>
      <polygon class="cls-9" points="1070.7 1008.2 1069.33 1009.26 875.03 1009.27 872.67 1008.2 1070.7 1008.2"/>
      <polygon class="cls-9" points="790.26 1007.99 789.03 1009.26 598.98 1009.26 597.75 1008.15 790.26 1007.99"/>
      <g>
        <path class="cls-11" d="M756.38,78.17l.16,18.18c.04,4.22-2.25,7.15-6.43,8.87l-.03,42.83-.62,12.46h46.16s-1.5-4.67-1.5-4.67c.34-2.43,1.51-3.41,1.96.33l3.89-2.58c.61,1.86,2.28,4.47,4.02,7.08h76.1s20.46-.14,20.46-.14c1.62-.01,4.37-.94,5.36-2.01-.08,1.32.03,3.71,1.11,3.86,1.54.21,3.97-.64,5.02-1.45l159.54-.42c4.57,0,7.74,2.57,10.4,5.8l68.37-43.26c2.88-1.82,9.09-.63,12.11-.93,5.98-.59,10.14,2.83,10.67,8.04l.1,1.02-1.07,2.36.03,378.75,2.02-.02,4.44.9c10.89,2.22,16.93,18.82,11.21,32.43-2.33,5.55-7.08,9.33-12.25,11.08l-5.41.75-.03,343.63.94,1.45c.12,4.95-5.03,8.88-10.45,8.19-2.96-.07-8.41.67-11.07-.31l-69.06-25.48-.04,77.79c0,2.81-.63,5.55-1.28,7.92l-7.3,6.76-4.7.81,1.57,23.03,7.34,3.64c1.73-1.08,5.13-3.61,7.6-3.61l203.42.04c1.72,0,5.41,2.89,6.82,3.58,2.15-1.06,5.33-3.6,7.92-3.6h251.81c2.36,0,5.96,2.81,7.57,3.64l6.25-3.65,55.43-.06v7.4s-51.89-.89-51.89-.89c-3.92,0-6.45,3.65-6.44,6.76l.08,28.66c.01,3.74,3.9,6.5,7.42,6.5l50.85.24-.02,6.36-49.74.02c-4.49.02-8.5-1.75-11.97-4.42-2.66,2.11-6.05,4.31-10.37,4.31h-247.24c-3.97.01-6.94-2.46-9.73-4.76-2.11,1.8-5.35,4.74-8.51,4.74l-197.57.04c-4.91,0-8.54-1.64-12.05-4.5-3.16,2.78-6.69,4.48-11.53,4.48l-191.23.02c-3.77,0-6.95-2.34-9.21-4.41-3.3,2.54-6.61,4.37-11.18,4.37l-256.71.03c-4.76,0-8.21-2.1-11.45-4.33-2.64,2.33-5.91,4.29-10.06,4.3l-244.05.03c-4.08,0-6.98-2.13-9.95-4.55-1.94,1.62-5.18,4.5-8.34,4.5l-242.98.08c-5.04,0-8.45-1.69-12-4.61-2.65,2.28-6.53,4.63-10.3,4.62l-48.75-.83-.02-5.93,48.78.19c2.86,0,6.75-2.74,6.74-5.83l-.11-26.93c-.01-2.76.23-9.09-4.62-9.08l-50.75-.02v-7.4s48.68.93,48.68.93c3.95,0,7.26,1.49,10.63,3.76,1.79-1.23,5.23-3.76,7.7-3.76l247.72-.03c2.48,0,5.86,2.69,7.91,3.68,1.41-.68,5.11-3.65,6.84-3.65l220.21-.02,2.39-23.49h-5.05s-7.59-7.33-7.59-7.33c-.74-1.59-1.78-4.55-1.77-6.65l.03-79.87-71.79,26.36c-4.84,1.78-11.72-.02-16.88.24-3.38-1.54-6.9-4.96-6.9-9.62l-.05-343.75c-7.2-.45-12.86-3.98-16-10.07-4.4-8.53-3.74-19.35,1.45-27.37,3.32-5.13,8.52-7.37,14.56-7.55l.03-379.59c0-8.32,7.23-10.91,13.63-10.89,7.15.02,11.89,1.05,17.69,4.75l63.78,40.7c2.34-3.66,6.25-6.57,10.65-6.59l23.81-.07-.22-55.34c-2.89-1.25-5.02-2.83-5.85-4.4.69-.8.95-.85,1.21-.52l1.78,2.21,2.21-5.19c.5.56,2.81,1.13,3.67,1.13l175.08-.05-.62-23.87c-.15.11,1.45-1.34,1.65-.8l.83,2.25,3.29,9.35,1.63-7.08ZM578.65,157.87c0,.99,1.74,2.65,3.34,2.65l157.3.03c1.62-.65,2.93-1.71,3.45-2.7.56-.47,1.09-3.26,1.08-4.35l-.3-48.6-55.96-.06-2.25.75.65,8.82c.3,4.07-1.84,9.59-6.75,9.57l-37.06-.15c-5.66-.02-6.96-7.93-6.02-11.82.5-2.07.55-4.49.52-7.14l-58.73.08-.37,47.47c-.01,1.65.4,4.47,1.1,5.45ZM642.01,109.8c-.16,2.01.42,5.42,1.02,7.77l36.15-.08c.42-2.35.49-4.89.36-7.09l-.3-5.44-36.85-.05-.38,4.89ZM465.64,903.52l8.22-2.85,72.03-26.26.96,5.77c-1.29.16-2.64,2.73-2.67,4.08l-.36,21.37-.08,59.11,1.09,1.26c.65,3.52,3.18,5.34,7.66,5.34l468.36-.06,10.54-.08,41.02-.24c1.47-1.56,3.55-4.43,3.55-6.02v-31.83s.03-32.98.03-32.98l-.71-19,.97-1.6c.34-.56.27-1.36.19-3.5-3.11.59-2.31.44-.8-.57l67.6,25.12,8.26,2.79c4.67,1.57,10.4,1.87,15.39-.4V130.31c-4.27-2.67-11.44-2.84-15.47-.33l-6.64,4.14-7.23,4.63-5.67,3.42-63.37,40.62-.22,45.74,6.89,1c1.63.24,3.54,3.72,3.54,5.42l.05,47.4c0,3.4-3.47,6.2-6.17,6.41l-.19-7.61.17-22.95.24-20.42c.01-.89-.59-2.51-1.25-2.9-2-1.16-8.37-1.55-8.42,1.71l-.34,19.6-.91,23.06-3.66,7.48c-.97-.87-1.81-3.72-1.81-5.18l-.1-45.79c-.01-5.48,5.33-4.59,5.23-8.75l.54-30.04-3.31-.53-498.86-.07-4.13.21.12,32.27c2.18,1.8,3.98,3.76,5.08,5.83l.08,49c-.99,1.97-2.58,3.69-5.11,5.61l-.47,457.91-4.28-.43c-1.15-.11-1.01-3.83-1.06-5.04l-.99-8.62.02-442.31c3.52-.89,4.09-5.04,4.16-8.16.22-.24,1.5-2.67,1.5-3.62l-.02-16.8-.54-26.14c-.06-2.84-7.45-2.25-8.74-.1v25.91s.32,20.66.32,20.66l.09,6.33c-2.85-.03-6.72-2.45-6.71-6.38l.07-46.71c0-1.61,1.31-4.91,2.54-5.74,1.41-.95,4.6-1.22,7.39-1.38l-.09-45.98-76.15-48.72-6.45-4.01c-6.57-2.95-17.69-1.82-17.69.96l-.03,767.94c0,1.89.53,4.01,1.41,4.57,2.21,1.43,11.15,1.55,15.41.07ZM1061.88,189.9c.05-6.11.63-10.59,3.67-12.7l10.64-7.4c-.64-.91-2.92-2.63-4.83-2.63l-523.07-.06c-2.64,0-5,2.15-5.36,3.77l6.48,4.28c5.45,3.6,6.95,8.26,6.49,14.77l505.97-.02ZM431.07,542.6c1.82,5.29,6.14,7.96,11.2,7.95l-.23-31.89c-10.7.16-14.66,13.21-10.97,23.95ZM1183.75,542.7c2.55-6.25,2.64-13.48-1.4-19.79-1.67-2.6-5.36-4.21-8.02-3.97-.46.34-1.17,2.86-1.15,3.71l.52,27.79c5.77.09,8.45-3.82,10.06-7.74ZM557.65,987.89l-1.14,13.1,25.33.61,6.44,2.93,2.44-12.7,2.69-14.04h-34.88s-.88,10.1-.88,10.1ZM596.5,995.12l-1.7,6.1,263.73.04c2.48,0,5.92,2.46,7.47,3.42,2.72-1.82,5.67-3.48,9.07-3.47l150.05.05-1.61-5.46-4.11-18h-418.45s-4.46,17.32-4.46,17.32ZM1028.99,990.27l3.55,11h31.34s-.52-13.24-.52-13.24l-.4-10.24-36.66.11,2.69,12.38ZM62.25,1049.69l257.23.1.02-41.58-257.23-.1-.02,41.58ZM325.76,1049.92l257.59-.26-.04-41.72-257.59.26.04,41.72ZM590.26,1027.27l-.32,16.1c-.06,2.98,3.33,6.23,6.94,6.23l257.75.03c3.69,0,7.42-1.63,7.45-5.65l.22-29.5c.02-2.61-1.69-6.8-5.31-6.79l-66.74.3-192.5.16c-1.69,0-4.52.23-5.74,1.21s-2.08,4.42-2.02,5.98l.28,11.94ZM868.77,1012.21l-.32,29.98c.47,2.78,2.92,7.42,6.6,7.42l193.34.02c3.11,0,6.01-3.77,5.91-6.32l-.67-17,.64-12.96c.07-1.75-2.08-4.4-3.56-5.15h-198.02s-3.91,4.01-3.91,4.01ZM1081.81,1044.3c-.07,2.93,2.96,5.33,6.94,5.33h196.51c4.16.01,7.54-2.22,7.49-6.71l-.33-31.56c-.87-1.26-3.55-3.61-5.03-3.61h-199.72c-4.12.01-6.63,3.05-6.6,6.72l.75,29.83ZM1299.14,1049.96l260.94-.24-.04-41.75-260.94.24.04,41.75Z"/>
        <path class="cls-30" d="M431.07,542.6c-3.69-10.74.27-23.79,10.97-23.95l.23,31.89c-5.06.01-9.38-2.65-11.2-7.95Z"/>
        <g>
          <g>
            <path class="cls-13" d="M756.38,78.17l-1.63,7.08-3.29-9.35-.83-2.25c-.2-.54-1.8.91-1.65.8l-173.3-.12c-2.27-.1-4.76,1.82-4.77,3.8l-.07,19.11-2.21,5.19-1.78-2.21c-.27-.33-.53-.29-1.21.52-.38-.71-1.29-2.78-1.29-3.83l-.04-18.44c-.01-6.62,4.76-10.8,11.32-10.8l166.92-.04c7.14,0,13.77,3.01,13.83,10.54Z"/>
            <path class="cls-31" d="M742.74,157.85c-.52.98-1.83,2.05-3.45,2.7l-157.3-.03c-1.6,0-3.35-1.66-3.34-2.65l.06-46.55,57.41.69c-.93,3.88.36,11.79,6.02,11.82l37.06.15c4.91.02,7.05-5.5,6.75-9.57l-.65-8.82,1.26,5.64,56,.18.15,46.44Z"/>
            <path class="cls-37" d="M748.98,74.44l.62,23.87-175.08.05c-.86,0-3.17-.57-3.67-1.13l.07-19.11c0-1.98,2.5-3.89,4.77-3.8l173.3.12Z"/>
            <path class="cls-33" d="M636.12,112.01l-57.41-.69-.06,46.55c-.71-.98-1.12-3.8-1.1-5.45l.37-47.47,58.73-.08c.03,2.65-.02,5.07-.52,7.14Z"/>
            <path class="cls-33" d="M742.74,157.85l-.15-46.44-56-.18-1.26-5.64,2.25-.75,55.96.06.3,48.6c0,1.08-.52,3.87-1.08,4.35Z"/>
            <path class="cls-10" d="M679.54,110.39c.12,2.2.05,4.74-.36,7.09l-36.15.08c-.6-2.35-1.18-5.76-1.02-7.77l37.53.6Z"/>
            <polygon class="cls-8" points="679.54 110.39 642.01 109.8 642.39 104.9 679.24 104.96 679.54 110.39"/>
          </g>
          <g>
            <path class="cls-45" d="M912.05,160.93c-1.06.81-3.48,1.67-5.02,1.45-1.09-.15-1.19-2.54-1.11-3.86,3.02-6.16,3.32-13.06-1.2-19.25-2.57-3.51-6.77-6.23-10.41-8.08-.71-8.72-1.82-17.77-6.05-25.99-6.69-13-19.65-20.7-33.04-21.52-14.88-.9-28.28,5.44-36.79,17.38-6.3,8.84-6.44,19.38-7.99,29.43-6.25,5.83-13.71,13.24-10.46,23.1l-3.89,2.58c-.45-3.74-1.62-2.76-1.96-.33-3.33-10.36,1.14-21.7,10.65-28.51-.74-22.95,13-42.71,34.43-48.57,22.03-6.03,45.19,3.42,55.36,24.21,3.8,7.76,4.85,16,6.05,24.26,12.31,7.15,17.71,21.43,11.44,33.69Z"/>
            <path class="cls-16" d="M894.3,131.19c.92,11.24-2.97,22.16-13.17,28.56l-77.14.93c-1.74-2.61-3.41-5.22-4.02-7.08-3.25-9.86,4.21-17.27,10.46-23.1,1.54-10.06,1.69-20.6,7.99-29.43,8.51-11.95,21.92-18.29,36.79-17.38,13.39.81,26.35,8.51,33.04,21.52,4.23,8.22,5.34,17.27,6.05,25.99ZM836.57,114.89c-.09-3.61-2.75-5.68-5.55-5.05-1.66.37-3.45,3.18-3.49,5.39-.06,3.09,1.98,5.74,4.51,5.75,2.65,0,4.62-2.71,4.53-6.09ZM871.76,114.49c.11-2.51-2.96-5.03-4.81-4.69-2.29.41-4.21,2.78-4.3,5.56-.06,1.78,1.27,5.09,2.59,5.75,1.14.56,3.78.13,4.78-.66s1.61-3.17,1.74-5.95ZM853.65,127.43c1.04,0,2.66-2.28,2.79-3.19s-.89-3.73-1.8-3.73h-10.27c-1.02-.01-2.53,2.75-2.39,3.77s1.79,3.2,2.79,3.2l8.88-.04Z"/>
            <path class="cls-1" d="M905.91,158.52c-.99,1.07-3.74,2-5.36,2.01l-20.46.15h-76.1s77.14-.93,77.14-.93c10.21-6.4,14.09-17.32,13.17-28.56,3.64,1.85,7.84,4.57,10.41,8.08,4.52,6.19,4.22,13.08,1.2,19.25Z"/>
            <path class="cls-29" d="M853.65,127.43l-8.88.04c-1,0-2.65-2.19-2.79-3.2s1.37-3.78,2.39-3.78h10.27c.92.01,1.93,2.83,1.8,3.74s-1.75,3.19-2.79,3.19Z"/>
            <path class="cls-45" d="M871.76,114.49c-.13,2.78-.74,5.16-1.74,5.95s-3.64,1.22-4.78.66c-1.33-.66-2.65-3.97-2.59-5.75.09-2.78,2.01-5.14,4.3-5.56,1.85-.33,4.92,2.19,4.81,4.69Z"/>
            <path class="cls-13" d="M836.57,114.89c.09,3.38-1.88,6.09-4.53,6.09s-4.56-2.66-4.51-5.75c.04-2.21,1.83-5.02,3.49-5.39,2.8-.63,5.46,1.44,5.55,5.05Z"/>
          </g>
        </g>
        <g>
          <path class="cls-22" d="M1061.88,189.9l-505.97.02c.45-6.51-1.04-11.17-6.49-14.77l-6.48-4.28c.37-1.62,2.73-3.77,5.36-3.77l523.07.06c1.91,0,4.19,1.71,4.83,2.63l-10.64,7.4c-3.04,2.11-3.63,6.59-3.67,12.7Z"/>
          <path class="cls-12" d="M559.91,196.39c.15,1.13,2.01,2.83,3.01,3.35l8.94,4.71.31,103.34c-1.92,0-4.54.33-6.44.76-4,.92-6.97,4.41-7.62,8.52-.81,5.06-1.48,11.54,1.07,16.83,2.15,4.47,9.08,7.36,13.08,8.62l-.89,24.26c-6.84-.16-7.75,9.79-6.73,19.7.39,3.77,4.36,7.17,7.55,7.14l-.33,414.29.59,8.56-16.62.67.19-11.24c2.76-1.68,4.99-4.03,4.98-7.04l-.14-42.43c-.01-3.92-.58-8.74-5.36-9.21l.47-457.91c2.53-1.91,4.12-3.63,5.11-5.61l-.08-49c-1.11-2.07-2.9-4.03-5.08-5.83l-.12-32.27,4.13-.21Z"/>
          <path class="cls-28" d="M1061.55,227.02c.1,4.15-5.24,3.27-5.23,8.75l.1,45.79c0,1.46.85,4.31,1.81,5.18l2.88,2.58-.11,457.79c-2.19.51-4.61,4.22-4.62,7.09l-.05,43.59c0,3.47,2.13,6.33,5.48,7.89l.12,11.59-15.71-.67.66-7.43.18-124.69.07-66.67-.97-78.11c4.01-3.71,5.14-7.77,2.19-12.88l-2.4-4.17,1.31-129.03c7.17,0,8.57-10.87,6.66-21.48-.53-2.92-4.1-5.12-7.09-5.66l.05-23.78c4.01-1.6,7.61-3.52,10.09-5.94,1.26-1.23,3.05-4.63,3.06-6.47l.09-12.13c.02-2.63-2.16-6.73-4.18-7.97-2.32-1.43-6.12-1.79-8.46-1.56l-.12-93.86-.24-1.46c1.44.05,3.51-1.24,4.76-2.32l9.11-7.88.59,23.95Z"/>
          <path class="cls-3" d="M1058.78,196.45c-2.98,3.08-7.09,4.43-12.07,5.47l.38,11.35.24,1.46-1.05,2.14.02,91.43-6.14-.02.24-105.7-190.91-.14-271.15.08-.64,105.29-5.54-.02-.31-103.34-8.94-4.71c-.99-.52-2.85-2.22-3.01-3.35l498.86.07Z"/>
          <path class="cls-5" d="M1072.59,288.76l-3.59.28c-.84.06-.64,2.58-.64,3.85-1.41-1.55-3.35-2.74-6.2-3.36v25.74s.47,431.45.47,431.45l-1.64.38.11-457.79-2.88-2.58,3.66-7.48.91-23.06,8.94-.2-.19-21.12c.66.38,1.26,2.01,1.25,2.9l-.24,20.42-.17,22.95.19,7.61ZM1071.64,280.81l.07-19.11-8.46-.59-.13,20.21c0,1.46,2.85,5.04,4.04,4.3,1.07-.74,3.83-3.57,4.48-4.81Z"/>
          <path class="cls-46" d="M554.8,262.24l-4.17-.53c-1.22-.06-1.92,2.57-2.88,4.63l-.18-1.78c-.07-.71-1.36-2.93-2.06-2.65v-25.91c1.3-2.15,8.69-2.74,8.75.1l.54,26.14Z"/>
          <path class="cls-30" d="M1071.56,234.88l.19,21.12-8.94.2.34-19.6c.06-3.26,6.42-2.88,8.42-1.71Z"/>
          <path class="cls-33" d="M1183.75,542.7l-9.45-7.57.03-16.19c2.66-.23,6.36,1.37,8.02,3.97,4.04,6.31,3.95,13.55,1.4,19.79Z"/>
          <path class="cls-30" d="M554.8,262.24l.02,16.8c0,.96-1.28,3.38-1.5,3.62-2.25,1.47-4.62,1.06-7.49-.09l-.32-20.66c.7-.27,1.99,1.94,2.06,2.65l.18,1.78c.96-2.06,1.65-4.7,2.88-4.63l4.17.53Z"/>
          <path class="cls-5" d="M1061.55,227.02l-.59-23.95-9.11,7.88c-1.25,1.08-3.32,2.37-4.76,2.32l-.38-11.35c4.98-1.03,9.09-2.39,12.07-5.47l3.31.53-.54,30.04Z"/>
          <path class="cls-15" d="M555.49,747.21c4.78.48,5.34,5.29,5.36,9.21l-5.79.22c.02-.97-.31-3.38-1.24-3.55l-4.54-.85-.23-5.31.1-13.81.99,8.62c.05,1.21-.09,4.93,1.06,5.04l4.28.43Z"/>
          <g>
            <path class="cls-29" d="M545.93,288.9l3.23,1.91-.02,442.31-.1,13.81c-3.81-1.07-9.32,1.45-9.34,6.53l-.18,45.31c0,1.9,1.44,5.73,3.05,6.09l6.6,1.48-.05,50.53.06,11.92c.01,2.43-1.32,4.88-3.3,5.6l-72.03,26.26c-.88-.81-1.32-2.7-1.32-4.94l.44-761.75,76.15,48.72.09,45.98c-2.79.16-5.99.43-7.39,1.38-1.23.84-2.54,4.14-2.54,5.74l-.07,46.71c0,3.94,3.87,6.36,6.71,6.38Z"/>
            <path class="cls-34" d="M466.54,129.97l-.84,4.68-.06,768.87c-4.26,1.48-13.2,1.36-15.41-.07-.87-.57-1.41-2.68-1.41-4.57l.03-767.94c0-2.78,11.12-3.91,17.69-.96Z"/>
            <path class="cls-25" d="M472.99,133.98l-.44,761.75c0,2.24.43,4.12,1.32,4.94l-8.22,2.85.06-768.87.84-4.68,6.45,4.01Z"/>
            <path class="cls-15" d="M555.42,869.53c1.29,5.63-3.36,9.99-8.57,10.64l-.96-5.77c1.98-.72,3.31-3.17,3.3-5.6l-.06-11.92,1.01,11.58,5.28,1.07Z"/>
          </g>
          <path class="cls-25" d="M553.32,282.65c-.07,3.12-.64,7.27-4.16,8.16l-3.23-1.91-.09-6.33c2.87,1.15,5.24,1.56,7.49.09Z"/>
          <path class="cls-11" d="M835.37,771.47l.48-8.56,2.93-.93c.54-.17.96-1.18,2.08-2.94l.26,8.85c.02.56.69,2.81,1.02,2.34-.04,3.22,2.65,6.76,5.08,8.45l1.47,1.02-.88,5.51c-8.96-.01-9.27,31.2,1.91,31.2h154.04c3.2.01,6.72-5.12,6.98-7.66.99-9.77,1.4-20.45-5.41-23.56l-.39-6.18c5.34-3.53,6.23-10.25,5.91-16.65-.4-8.27-5.63-14.22-14.38-14.3-35.45-2.58-70.52-2.47-105.56-1.93l-9.11-.41-1.82-5.4c38.66-1.76,77.32-1.28,116.46,1.25,6.24.4,12.66,2.39,16.11,7.28,6.92,9.82,6.06,23.05-.37,32.75l3.4,5.37c3.95,9.86,2.9,19.99-1.09,29.52l7.35.03-2.21,2.19-5,4.37h-451.55c-2.73,0-5.13.33-6.64.78-.48.14-.92,1.61-1.08,2.27l.04,43.39-5.28-1.07-1.01-11.58.05-50.53-6.6-1.48c-1.61-.36-3.06-4.19-3.05-6.09l.18-45.31c.02-5.08,5.53-7.61,9.34-6.53l.23,5.31c-1.38-.26-3.84,2.49-3.83,4.07l.09,16.68.07,24.92c.37,2.18,3.91,4.15,5.63,3.29,2.38-1.18,3.77-3.75,3.74-6.53l-.24-21.23.32-16.8,5.79-.22.14,42.43c.01,3.01-2.22,5.37-4.98,7.04l-.19,11.24,16.62-.67h6.04s17.87.07,17.87.07c-.55-1.63-1.47-4.53-1.47-6.19l-.04-56.92-4.04-3.7,6.19-2.84h166.64s1.35-.98,1.35-.98h1.14s-.05-22.1-.05-22.1l-163.87.4c-1.68-.58-5.07-1.79-6.59-.99l-5.24,2.89c.29-5.66,4.48-8.06,9.6-8.06l162.68-.02c5.93,0,9.98,4.12,9.94,9.81l-.13,19.25c-.01,1.79-3.03,4.63-5.03,5.87l.02,54.24c0,3.18-.5,6.13-1.17,9.31h72.45c-6.06-10.17-5.64-26.14,1.55-34.96l-4.91-10.07ZM601.92,812.9c.3,1.56,2.2,3.08,4.51,3.57h150.84c1.23,0,3.28-2.77,3.6-3.97v-54.02s-.22-5.51-.22-5.51l-55.82.04.94,9.99c-.74,2.7-3.32,7.41-7.45,7.39l-34-.14c-5.18-.02-7.89-6.85-6.94-10.81.73-1.76.81-4.82-.09-6.48l-56.23.06-.26,57.43,1.11,2.46ZM663.28,759.42c-.22,2.12,1.74,4.67,4.02,4.79l28.96-.12c.57-.12,3.22-.98,3.21-1.72l-.08-3.75-.31-5.55-35.12-.19-.68,6.55Z"/>
          <path class="cls-11" d="M1056.94,336.74c-2.48,2.42-6.08,4.34-10.09,5.94l-.05,23.78c2.99.53,6.56,2.74,7.09,5.66,1.91,10.61.51,21.49-6.66,21.48h-7.16s-109.99-.12-109.99-.12l-9.14,8.31c-1.25,1.13-1.97,4.41-1.44,6.12,8.22,1.34,13.2,5.86,17.39,12.73,11.88,19.46,16.03,11.19,23.71,15.1l29.5,15.03c9.47,4.82,17.31,11.45,23.02,20.4l26.1,40.87,6.68,10.59,2.4,4.17c2.95,5.12,1.83,9.17-2.19,12.88l-6.38,5.89c-10.41,9.62-22.43,17.49-35.52,23.88-3.51,1.71-6.64,1.37-10.52.08l5.58,104.37c.35,6.59-1.53,11.06-8.54,12.39-41.19,7.86-84.24,7.79-126.4,5.31l-41.89-5.37c-5.25-.67-8.56-4.93-8.26-10.28l5.95-105.9c-4.03.44-7.04.12-10.22-1.48-15.67-7.83-29.2-18.02-41.45-30.56-2.11-2.16-3.26-6.23-1.48-9.02l38.37-59.97c4.56-7.13,10.85-12.9,18.41-16.54l31.46-15.18c13.41-6.47,14.57,2.73,28.53-17.69,4.99-7.3,10.67-11.92,19.59-12-.26-5.47.44-9.58,2.44-14.12l-200.08.06-9.5,8.89c-1.16,1.08-1.56,4.82-.44,6.17,16.91,2.6,15.29,21.35,29.97,26.32,7.56-.11,15.06.96,19.35,8.01,4.64.89,8.31,3.87,9.73,6.98,1.33,4.69,1.22,9.39-2.46,12.71-2.27,2.04-6.09,2.36-9.89,2.15l-.02,23.93c-.01,14.92,6.93,27.57,14.8,39.15l-2.64,47.72,8.73,89.03c.49,4.95-4.94,8.03-9.82,8.94-44.29,8.31-89.72,8.25-134.08.04-3.72-.69-10.89-3.76-10.41-8.14l8.08-73.92c1.19-10.84,1.53-21.1.54-31.9l-2.44-26.49c-.4-4.34,1.71-7.73,4.22-11.09,7.06-9.44,11.09-21.25,11.05-33.26l-.09-23.92c-3.75.29-7.49-.05-9.76-1.74-3.07-2.28-4.12-6.45-4.04-10.24,1.38-5.75,5.47-9.33,11.53-10.05,3.51-6.47,10.89-9.04,18.31-7.22,15.66-8.61,13.87-25.83,32.51-27.43-.24-5.35.26-9.8,2.27-14.72l-102.74.09-6.31.06c-3.19.03-7.16-3.36-7.55-7.14-1.02-9.91-.11-19.86,6.73-19.7l10.65.24,84.11-.13c3.77-8.41,11.68-12.58,19.96-12.37,8.2.21,15.6,4.52,20.25,12.17h183.59c4.38-7.89,12.14-12.2,20.33-12.03,8.22.17,15.55,4.53,20.24,12.04l110-.04.07-23.81-57.64.03c-1.45-.38-4.04-.93-5.11-.82l-7.8.79,1.02-1.97-7.92-1.97-9.42-1.94-4.64,5.91h-9.72s-2.41-2.03-2.41-2.03c-1.27-.77-2.77-3.04-2.82-4.65l107.26.65c3.34.02,6.82-1.96,9.37-3.39l2.01-1.13,4.19,4.38ZM684.85,407.85l4.46.06c-2.57-11.97,14.02-12.5,14.11-27.63.04-6.55-2.43-12.7-8.13-16.6-6.7-4.59-16.17-4.97-21.93,3.04l11.21-.45c6.38-.26,11.27,5.15,12.49,10.04,3.92,15.73-16.48,15.66-12.21,31.54ZM909.39,406.83l4.17.68c-1.45-12.11,14.54-12.6,14.25-28.2-.12-6.49-2.91-12.37-8.87-16.09-7.19-4.48-16.64-3.7-21.71,3.78l11.59-.72c6.42-.4,11.5,4.87,12.66,10.03,3.59,16-16.09,15.58-12.09,30.52ZM688.24,386.82c4.19-4.4,4.08-9.73.08-13.71l-116.55.14c-1.41,5.01-1.53,9.23,0,13.68l116.48-.11ZM912.45,386.85c4.68-4.38,4.55-9.94.19-13.69l-203.48.08-.02,13.72,203.31-.11ZM933.14,373.19v13.74h115.38v-13.74h-115.38ZM681.41,414.46c-16.12-1-14.74,17.77-33.02,26.82l.84,10.2,34.41-20.03,4.61.28,35.25,19.5.98-9.7c-17.29-6.87-18.01-23.69-26.94-25.85l-8.85-2.15-1.98-2.12-5.3,3.05ZM905.9,412.94c-7.13,1.32-12.8,3.08-16.73,9.8-4.32,7.37-10.04,12.84-17.87,17.72.79,2.75,1.99,5.44,3.7,8.31l32.53-17.96c1.14-.63,3.26-.71,4.26-.16l32.7,17.95,3.97-7.78c-7.39-4.75-13.34-10.08-17.44-17.59-3.42-6.27-8.56-8.43-15.35-10.07-3.4-.82-6.39-.84-9.76-.22ZM931.6,448.64l-21.77-12.07-21.56,11.94c14.7,3.27,28.55,3.4,43.33.13ZM717.86,455.9l-32.12-18.4-30.43,18.23,62.54.17ZM858.24,443.19l-5.42,2.68-30.3,14.9c-6.7,3.29-11.11,10.24-15.14,16.55l-26.75,41.88-3.09,5.12-5.14,8.56c11.13,11.46,22.92,20.41,36.76,28.02,1.97,1.08,5.36,2.61,7.47,2.98,1.31.23,4.01-3.06,4.07-4.42l.44-8.85.94-18.13.4-5.76,6.13-.59.19,6.09-7.97,142.63c-.13,2.39,1.34,4.94,3.37,5.2l36.77,4.79c28.42,1.8,56.26,2.17,84.77.51l43.32-5.16c2.87-.34,3.81-3.17,3.67-5.85l-7.16-137.45-.14-11.1,6.16.81.58,9.56,1.28,23.34,5.24,5.3,7.26-3.69c14.32-7.27,26.89-17.18,38.3-28.57l-4.49-7.18-3.56-5.73-27.82-43.74c-4.35-6.83-9.68-13.2-16.9-16.96l-24.36-12.66-5.19-2.74-6.78-3.66c-7.1,22.01-26.67,34.92-49.65,33.17-19.61-1.5-35.78-13.87-41.13-33l-6.12,3.1ZM756.41,660.47c-2.98-28.21-7.11-54.9-8.31-82.79-.7-16.24,2.23-31.36,3.04-47.79-20.17-25.98-15.46-54.76-13.66-86.48l-6.44-2.45-5.32,41.34c-3.88,19.02-19.12,32.23-37.58,32.8-18.81.58-35.18-11.11-40.12-30.15-3.72-14.37-4.44-28.66-6.17-43.54-2.11.35-4.96,1.46-6.46,2.79l1.72,43.43c-.4,15.93-5.63,29.98-15.44,42.26l3.19,41.36-2.07,29.57-7.37,64.94c17.8,4.47,34.96,6.03,53.18,6.79,28.46,1.19,56.15-.04,83.95-5.53,1.27-.25,2.95-.96,3.52-1.63s.53-2.99.32-4.92ZM629.41,448.31c-2.62,1-5.14,2.35-6.45,4.58-.8,1.36.64,5.84,2.13,5.76l5.13-.28-.82-10.06ZM749.7,453.7c-.86-3-3.28-4.6-6.38-5.4l-.39,9.9c1.14.4,3.7.75,4.85.43s2.29-3.62,1.91-4.92ZM940.72,453.05c-20.48,5.92-41.22,5.25-62.51-.05,16.65,19.1,46.07,18.32,62.51.05ZM721.85,463.49l-71.15-.18c1.65,24.27,10.52,45.27,35.91,45.31,25.35.04,34.07-21.22,35.24-45.13Z"/>
          <polygon class="cls-6" points="578.48 393.56 578.3 660.08 578.48 816.47 572.44 816.46 571.85 807.91 572.18 393.62 578.48 393.56"/>
          <path class="cls-45" d="M563.8,330.54l4.02,2.91c3.83,2.77,8.01,3.5,13.1,3.47l73.89-.52h54.13s151.14-.08,151.14-.08l-2.12,6.56-279.63.06c-1.54,0-4.59.05-6.08-.43-4-1.27-10.93-4.16-13.08-8.62-2.55-5.29-1.88-11.77-1.07-16.83l.61,10.09,3.8-1.14c.28,2.23.55,4.13,1.3,4.52Z"/>
          <path class="cls-40" d="M578.33,342.95l.04,23.12,87.75.84-84.11.13-10.65-.24.89-24.26c1.49.47,4.54.43,6.08.43Z"/>
          <path class="cls-18" d="M1046.2,816.58l-5.96-.02-.13-131.99v-65.72s-.34-73.28-.34-73.28l6.38-5.89.97,78.11-.07,66.67-.18,124.69-.66,7.43ZM1041,684.99l5.3.41-.05-68.86c-1.26,1.23-2.07,2.23-2.62,2.1l-2.63-.64v66.99Z"/>
          <polygon class="cls-6" points="1047.23 393.6 1045.93 522.63 1039.25 512.04 1040.3 508.85 1040.07 393.59 1047.23 393.6"/>
          <polygon class="cls-5" points="1047.45 308.6 1046.3 308.3 1046.27 216.88 1047.33 214.73 1047.45 308.6"/>
          <path class="cls-12" d="M1040.16,308.28h-25.18s.2-55.49.2-55.49c2.28-1.65,5.52-4.87,5.51-7.22l-.08-19.03c-.02-5.66-4.31-10.56-10.51-10.56l-170.95-.02c-5.88,0-9.77,5.31-9.84,10.28l-.23,16.11c-.07,4.62,1.97,7.94,5.93,10.52l.22,53.94-.65,1.04h-59.36c3.97-7.74,2.86-16.43-2.19-23.21,2.93-4.25,4.49-8.65,4.28-13.5-.43-9.73-7.02-16.5-17.08-17-49.21-2.42-98.08-2.43-147.31.04-9.65.48-16.04,7.29-16.31,16.65-.15,5.08,1.23,9.63,4.22,13.77-5.45,6.52-6.38,15.3-2.64,23.29l-20.49-.09.64-105.29,271.15-.08,190.91.14-.24,105.7Z"/>
          <path class="cls-25" d="M1039.77,545.58l.36,73.28v65.72s.11,131.99.11,131.99l-18.39-.03-7.35-.03c3.99-9.53,5.03-19.66,1.09-29.52l-3.4-5.37c6.43-9.71,7.29-22.93.37-32.75-3.45-4.89-9.87-6.88-16.11-7.28-39.14-2.53-77.8-3.01-116.46-1.25l-18.76.39c-.53.01-2.67.5-2.34.89-3.7.02-8.06.79-11.53,2.1-3.19,1.21-6.43,3.61-8.27,6.18l1.92,2.89c1.51,2.27-10.62,8.47-5.64,18.69l4.91,10.07c-7.2,8.82-7.62,24.79-1.55,34.95h-72.45c.67-3.17,1.17-6.12,1.17-9.3l-.02-54.24c2-1.24,5.01-4.08,5.03-5.87l.13-19.25c.04-5.7-4.01-9.81-9.94-9.81l-162.68.02c-5.12,0-9.31,2.41-9.6,8.06l5.24-2.89c1.52-.79,4.91.42,6.59.99l-6.77.02.05,22.09,169.5-.41-1.35.99h-166.64s-6.19,2.83-6.19,2.83l4.04,3.7.04,56.92c0,1.67.93,4.57,1.47,6.19l-17.87-.07-.18-156.39.18-266.52,102.74-.09c-2.01,4.91-2.51,9.36-2.27,14.72-18.63,1.6-16.85,18.82-32.51,27.43-7.42-1.82-14.8.75-18.31,7.22-6.06.72-10.15,4.3-11.53,10.05-.07,3.79.98,7.96,4.04,10.24,2.27,1.69,6.02,2.03,9.76,1.74l.09,23.92c.04,12.01-3.99,23.82-11.05,33.26-2.51,3.36-4.62,6.75-4.22,11.09l2.44,26.49c.99,10.8.65,21.06-.54,31.9l-8.08,73.92c-.48,4.38,6.7,7.45,10.41,8.14,44.36,8.21,89.79,8.27,134.08-.04,4.88-.92,10.3-3.99,9.82-8.94l-8.73-89.03,2.64-47.72c-7.87-11.58-14.82-24.24-14.8-39.15l.02-23.93c3.81.21,7.63-.11,9.89-2.15,3.68-3.32,3.79-8.02,2.46-12.71-1.42-3.11-5.09-6.08-9.73-6.98-4.28-7.05-11.79-8.12-19.35-8.01-14.68-4.97-13.07-23.72-29.97-26.32-1.12-1.35-.72-5.09.44-6.17l9.5-8.89,200.08-.06c-2,4.54-2.7,8.65-2.44,14.12-8.92.08-14.6,4.71-19.59,12-13.96,20.42-15.13,11.22-28.53,17.69l-31.46,15.18c-7.56,3.65-13.84,9.41-18.41,16.54l-38.37,59.97c-1.78,2.78-.64,6.85,1.48,9.02,12.25,12.54,25.78,22.74,41.45,30.56,3.19,1.59,6.19,1.92,10.22,1.48l-5.95,105.9c-.3,5.35,3.01,9.61,8.26,10.28l41.89,5.37c42.16,2.48,85.21,2.55,126.4-5.31,7.01-1.34,8.89-5.8,8.54-12.39l-5.58-104.37c3.88,1.29,7.01,1.64,10.52-.08,13.09-6.39,25.12-14.26,35.52-23.88Z"/>
          <path class="cls-11" d="M1062.63,746.72l-.47-431.45,1.95,12.13c1.44-2.65,2.12-5.94,3.15-10.12l.07,19.12-1.9-1.93c-.33-.33-2.08.77-2.07,1.38l.06,16.7,1.96.37c.31.06.65-1.44.68-1.77l1.17-11.66.27,55.21-1.04-.58-.16-36.01c-1.24.76-3.15,2.97-3.15,3.82l.26,37.9,2.44,8.19c1.05-1.88,1.56-1.73,1.55-.16l-.17,4.1c-.03.67-1.64.46-3.38.61l-.19,26.13.33,10.27-.61,8.11-.03,36.21,2.16.34c.41-4.17.7-7.06,1.81-10.19l.13,166.67c-.31.29-.6.55-.59.54l-1.21-5.8-2.38,7.65c-.23.73.14,4.1.89,3.99l3.27-.45-.03,42.21-1.33-3.62c-.2-.54-.74-.36-2.63-.09l-.05,22.76,3.98-4.29.17,28.53-4.88,5.19Z"/>
          <path class="cls-32" d="M1071.65,798.97l-6.78,2.87c-1.11-1.28-2.29-5.01-2.25-7.08l.32-16.07,8.72.64-.02,19.65Z"/>
          <path class="cls-46" d="M1071.81,754.86l-.17,18.55-8.71.05-.39-19.29c2.01-2.53,8.21-2.51,9.26.69Z"/>
          <polygon class="cls-28" points="1071.64 773.41 1072.56 780.68 1072.81 798.68 1071.65 798.97 1071.67 779.33 1062.95 778.69 1062.93 773.45 1071.64 773.41"/>
          <g>
            <path class="cls-38" d="M1143.24,900.58l-67.6-25.12-7.29-3.01.1-66.72c4.9.15,8.43-1.13,9.76-5.26l1.73-.07v-47.82s-2.11-.42-2.11-.42c-1.45-7.64-9.1-3.68-9.37-6.85l1.06-.58.16-43.43,2.83,9.15c3.99,1.46,8.53,1.15,9.34-2.71l-4.61-1.04c-3.59-.81,6.91-12.72,2.95-23.05-.54-1.41-5.69-1.08-6.19.33l-4.37,12.16v-262.53s4.39,6.48,4.39,6.48l14.06,3.83,6.36,9.91c-1.99,7.52-1.87,14.48-.68,21.52-1.33.95-3.43,2.97-3.39,4.07l.24,7.98,1.84,9.44c2.19,1.4,7.98.22,9.67-1.17l-1.26-4.3c-.26-.88,2.16-2.08,3.06-2.39l15.88-5.38,2.75-5.31,5.76,4.13c2.42-3.04,3.44-6.93,1.87-10.65l-8.35.8c-3.23-2.98-4.67-8.61-4.16-13.36l1.66-15.62,3.31-4.62-1.05-7.66c-.74-2.18-2.96-7.65-.16-8.6,2.73-.93,5.63-1.57,6.93-2.74s2.09-5.38,1.93-7.18l-.82-9.43c1.11-1.5,3.94-4.47,4.51-6.29,1.45-4.63-9.4-7.69-6.44-13.5.73-1.44,4.4-1.76,6.45-1.75,3.45-5,.33-10.74-2.22-15.6-1.02-1.94-.39-8.06-4.82-6.37-1.54,1.2-4.81,2.55-6.21,1.47-5.18-4,3.9-7.32-1.93-15.81-.79-1.16.01-5.08,1.18-5.89s3.14-.38,6.58.49l3.07-8.01c5.77-15.04,11.09-31.36,3.73-45.03l.34-8.93c.27-7.18,3.27-13.86,7.17-20.22l-.76-10.82c-4.1-1.99-5.39-5.53-4.49-9.87,2.58-12.45.59-20.1,3.63-28.92l-2.93-4.1c-2.29-3.21-4.64-5.32-8.36-6.46l-12.19-3.74c-6.07-1.86-12.13-5.74-12.64-12.98l4.66-8.41,15.94-.38c4.89-.12,7.42-8.28,7.31-12.11l-.36-12.13c-.06-1.84.3-3.82,1.23-5.81l5.67-3.42,7.23-4.63-.21,764.75-1.33,1.71ZM1104.69,566.39c3.08-4.93,5.69-10.35,3.84-14.79l-2.17-5.2c-.49-1.18,1.7-3.46,2.58-4.98.52-.91-1.42-3.29-2.41-3.65-4.01-1.46-8.6,4.88-13.91-1.16l4.07-4.92c.68-.82-1.1-3.7-2.16-3.48-4.69.97-2.59,5.11-9.14,7.01-2.22.64-5.23,1.61-6.52.71l-4.01-2.78c.55,6.45.24,8.18-3.33,13.53,7.27,7.48,18.21,7.61,22.57,15.22l10.6,4.48ZM1116.69,593.78c3.88-.94,7.08-3.63,8.11-6.12s1.69-8.33-.43-9.65c-3.93-2.44-10-2.13-13.89-.84-3.6,1.19-3.43,4.08-3.39,6.68.07,4.43-.15,7.75,1.49,11.89l8.11-1.96ZM1101.67,598.56l-3.16-2.6c-.48-.39-1.63,1.34-2.47,2.56l8.2,5.48c.94.63,3-4.27,1.88-4.51l-4.45-.94ZM1114.92,695.53l-10.83-12.76c-1.09-1.29-2.2-5.21-2.77-7.11-.99-3.31,2.5-6.47,4.86-8.43,2.36-1.97,4.69-4.3,7.14-5.43,3.61-1.66,5.9-3.62,8.31-7.06,2.47,2.28,5.86,5.47,9.5,6.84,2.28.86,4.69-4.09,4.61-6.18-.2-5.23-8.73-8.35-9.33-7.81l-4.33,3.9c-.84-.11-1.75-4.38-1.25-5.06,1.88-3.14,4.38-2.45,6.68-.33,8.04-1.3,10.35-13.18,7.99-22.45-.47-1.83-5.99-1.88-7.23-.47-1.35,1.54-2.22,4.18-3.22,7.5-1.02,1.53-6.2-.45-7.76-2.04-4.59-4.69-8.38-4.49-14.26-2.65-2.73.85-8.76,1.33-9.45,4.92-.64,3.34-.22,8.43-2.04,10.85-8.57,11.42,3.29,16.88,2.22,19.83l-1.76,4.84c-1.03,5.64-4.19,10.78-8.61,14.6-.39.72-1.4,3.23-.66,3.43l2.79.73c4.65,1.22,7.17,4.02,6.44,8.78-.85,5.58,3.62,7.14,8.1,8.98,1.73.71,5.21,3.47,6.9,2.72l6.35-2.79c1.53-.67,4.21-1.74,4.33-3.04.1-1.08-1.5-2.87-2.73-4.31ZM1110.73,746.79l3.71-2.61c.57-.4-.4-3.19-.66-3.53l-9.44.86c1.09-4.53-.17-11.22-5.15-12.32l-10.18-2.26c-1.06-.24-3.97-.17-4.07.78-.7,6.77,7.05,8.99,7.87,9.72l7.88,6.99c1.25,1.11,2.71,5.13,4.3,4.86,1.44-.24,4.5-1.6,5.75-2.48Z"/>
            <path class="cls-34" d="M1131.88,142.16c-.93,2-1.28,3.97-1.23,5.81l.36,12.13c.11,3.82-2.41,11.99-7.31,12.11l-15.94.38-4.66,8.41c.51,7.24,6.57,11.12,12.64,12.98l12.19,3.74c3.71,1.14,6.07,3.25,8.36,6.46l2.93,4.1c-3.04,8.83-1.04,16.48-3.63,28.92-.9,4.33.39,7.88,4.49,9.87l.76,10.82c-3.91,6.36-6.9,13.04-7.17,20.22l-.34,8.93c7.36,13.67,2.04,29.99-3.73,45.03l-3.07,8.01c-3.44-.88-5.38-1.33-6.58-.49s-1.98,4.74-1.18,5.89c5.82,8.48-3.25,11.8,1.93,15.81,1.4,1.08,4.67-.27,6.21-1.47,4.43-1.69,3.8,4.43,4.82,6.37,2.55,4.86,5.68,10.6,2.22,15.6-2.05,0-5.72.31-6.45,1.75-2.95,5.81,7.9,8.87,6.44,13.5-.57,1.81-3.41,4.79-4.51,6.29l.82,9.43c.16,1.8-.64,6.01-1.93,7.18s-4.19,1.8-6.93,2.74c-2.8.95-.58,6.42.16,8.6l1.05,7.66-3.31,4.62-1.66,15.62c-.51,4.75.93,10.38,4.16,13.36l8.35-.8c1.58,3.72.56,7.61-1.87,10.65l-5.76-4.13-2.75,5.31-15.88,5.38c-.9.3-3.31,1.51-3.06,2.39l1.26,4.3c-1.69,1.39-7.48,2.58-9.67,1.17l-1.84-9.44-.24-7.98c-.03-1.09,2.07-3.11,3.39-4.07-1.19-7.04-1.31-14,.68-21.52l-6.36-9.91-14.06-3.83-4.4-6.48v262.53s4.38-12.16,4.38-12.16c.51-1.41,5.65-1.74,6.19-.33,3.96,10.33-6.53,22.24-2.95,23.05l4.61,1.04c-.82,3.86-5.35,4.17-9.34,2.71l-2.83-9.15-.16,43.43-1.06.58-.03-313.59-.06-138.84c0-1.27-.21-3.79.64-3.85l3.59-.28c2.7-.21,6.17-3.01,6.17-6.41l-.05-47.4c0-1.7-1.91-5.18-3.54-5.42l-6.89-1,.22-45.74,63.37-40.62Z"/>
            <path class="cls-7" d="M1151.5,903.37l.04-757.02-.12-16.37c4.03-2.51,11.2-2.34,15.47.33v772.65c-4.99,2.28-10.72,1.98-15.39.4Z"/>
            <polygon class="cls-25" points="1151.5 903.37 1143.24 900.58 1144.57 898.87 1144.78 134.12 1151.42 129.98 1151.54 146.34 1151.5 903.37"/>
            <path class="cls-11" d="M1068.36,292.89l.06,138.84.03,313.59c.27,3.17,7.92-.79,9.37,6.85l-.86,1.12v46.48s1.24.72,1.24.72c-1.33,4.13-4.86,5.41-9.76,5.26l-.1,66.72,7.29,3.01c-1.51,1.01-2.31,1.16.8.57.08,2.14.15,2.94-.19,3.5l-.97,1.6-6.39-1.41c-3.44-1.03-6.74-4.48-6.74-7.94l1.05-1.14.1-38.65,1.2-4.1c.22-.77-1.45-1.57-2.26-1.72l-.97-1.39-3.21-1.64-43.4-.05,5-4.37,2.21-2.19,18.39.03,5.96.02,15.71.67-.12-11.59c-3.35-1.56-5.48-4.42-5.48-7.89l.05-43.59c0-2.87,2.43-6.58,4.62-7.09l1.64-.38,4.88-5.19-.17-28.53-3.98,4.29.05-22.76c1.89-.27,2.43-.45,2.63.09l1.33,3.62.03-42.21-3.27.45c-.75.1-1.12-3.26-.89-3.99l2.38-7.65,1.21,5.8s.28-.26.59-.54l-.13-166.67c-1.11,3.13-1.4,6.02-1.81,10.19l-2.16-.34.03-36.21.61-8.11-.33-10.27.19-26.13c1.74-.15,3.36.06,3.38-.61l.17-4.1c.02-1.57-.49-1.72-1.55.16l-2.44-8.19-.26-37.9c0-.85,1.91-3.06,3.15-3.82l.16,36.01,1.04.58-.27-55.21-1.17,11.66c-.03.33-.37,1.83-.68,1.77l-1.96-.37-.06-16.7c0-.6,1.75-1.71,2.07-1.38l1.9,1.93-.07-19.12c-1.03,4.17-1.71,7.47-3.15,10.12l-1.95-12.13v-25.74c2.86.62,4.79,1.81,6.21,3.36ZM1062.93,773.45l.02,5.23-.32,16.07c-.04,2.08,1.14,5.8,2.25,7.08l6.78-2.87,1.17-.29,1-1.96-.02-41.7-1.99-.16c-1.05-3.2-7.25-3.22-9.26-.69l.39,19.29Z"/>
            <polygon points="1172.2 512.29 1172.17 133.54 1173.24 131.18 1172.2 512.29"/>
            <polygon points="1173.11 902.52 1172.17 901.07 1172.2 557.44 1173.11 902.52"/>
            <path class="cls-19" d="M1183.75,542.7c-1.6,3.92-4.28,7.83-10.06,7.74l-.52-27.79c-.02-.85.69-3.37,1.15-3.71l-.03,16.19,9.45,7.57Z"/>
            <path class="cls-34" d="M1114.92,695.53c1.22,1.44,2.83,3.23,2.73,4.31-.12,1.3-2.81,2.37-4.33,3.04l-6.35,2.79c-1.69.74-5.17-2.01-6.9-2.72-4.48-1.85-8.96-3.41-8.1-8.98.73-4.76-1.8-7.56-6.44-8.78l-2.79-.73c-.74-.19.27-2.71.66-3.43,4.42-3.81,7.57-8.95,8.61-14.6l1.76-4.84c1.07-2.95-10.79-8.41-2.22-19.83,1.82-2.42,1.4-7.51,2.04-10.85.69-3.59,6.73-4.06,9.45-4.92,5.88-1.84,9.66-2.04,14.26,2.65,1.55,1.59,6.74,3.57,7.76,2.04,1-3.32,1.87-5.96,3.22-7.5,1.24-1.41,6.77-1.36,7.23.47,2.36,9.27.06,21.15-7.99,22.45-2.3-2.12-4.79-2.81-6.68.33-.5.68.41,4.96,1.25,5.06l4.33-3.9c.61-.55,9.14,2.57,9.33,7.81.08,2.09-2.33,7.04-4.61,6.18-3.64-1.37-7.03-4.56-9.5-6.84-2.41,3.44-4.7,5.4-8.31,7.06-2.45,1.13-4.78,3.46-7.14,5.43-2.36,1.96-5.85,5.12-4.86,8.43.57,1.9,1.67,5.82,2.77,7.11l10.83,12.76Z"/>
            <path class="cls-34" d="M1104.69,566.39l-10.6-4.48c-4.35-7.61-15.3-7.75-22.57-15.22,3.57-5.35,3.88-7.09,3.33-13.53l4.01,2.78c1.29.9,4.3-.06,6.52-.71,6.55-1.9,4.45-6.04,9.14-7.01,1.06-.22,2.84,2.66,2.16,3.48l-4.07,4.92c5.31,6.03,9.9-.3,13.91,1.16.99.36,2.93,2.74,2.41,3.65-.87,1.52-3.07,3.8-2.58,4.98l2.17,5.2c1.85,4.44-.76,9.86-3.84,14.79Z"/>
            <path class="cls-34" d="M1116.69,593.78l-8.11,1.96c-1.65-4.14-1.42-7.47-1.49-11.89-.04-2.61-.22-5.49,3.39-6.68,3.89-1.29,9.97-1.61,13.89.84,2.12,1.32,1.49,7.07.43,9.65s-4.23,5.18-8.11,6.12Z"/>
            <path class="cls-34" d="M1110.73,746.79c-1.25.88-4.31,2.24-5.75,2.48-1.6.27-3.05-3.75-4.3-4.86l-7.88-6.99c-.82-.73-8.57-2.95-7.87-9.72.1-.96,3.01-1.02,4.07-.78l10.18,2.26c4.98,1.1,6.24,7.8,5.15,12.32l9.44-.86c.26.34,1.23,3.13.66,3.53l-3.71,2.61Z"/>
            <polygon class="cls-11" points="1079.93 752.58 1079.94 800.41 1078.21 800.47 1076.96 799.75 1076.96 753.28 1077.83 752.16 1079.93 752.58"/>
            <path class="cls-34" d="M1079.94,800.41v-47.82s0,47.82,0,47.82Z"/>
            <path class="cls-34" d="M1101.67,598.56l4.45.94c1.12.24-.94,5.13-1.88,4.51l-8.2-5.48c.84-1.22,1.99-2.96,2.47-2.56l3.16,2.6Z"/>
            <polygon class="cls-11" points="1072.81 798.68 1072.56 780.68 1071.64 773.41 1071.81 754.86 1073.8 755.02 1073.82 796.72 1072.81 798.68"/>
          </g>
          <path class="cls-33" d="M1071.64,280.81c-.65,1.24-3.4,4.07-4.48,4.81-1.2.75-4.05-2.84-4.04-4.3l.13-20.21,8.46.59-.07,19.11Z"/>
          <path class="cls-46" d="M555.05,756.65l-.32,16.8-9.2-.45-.09-16.68c0-1.58,2.45-4.33,3.83-4.07l4.54.85c.92.17,1.25,2.58,1.24,3.55Z"/>
          <path class="cls-23" d="M554.73,773.44l.24,21.23c.03,2.78-1.36,5.35-3.74,6.53-1.72.85-5.26-1.12-5.63-3.29l-.07-24.92,9.2.45Z"/>
          <path class="cls-2" d="M846.35,751.28c-1.54,1.3-4.05,5.22-4.08,7.46l-.13,11.48c-.33.47-1-1.78-1.02-2.34l-.26-8.85c-1.12,1.76-1.55,2.77-2.08,2.94l-2.93.93-.48,8.56c-4.98-10.21,7.15-16.41,5.64-18.69l-1.92-2.89c1.84-2.57,5.07-4.97,8.27-6.18l-1.01,7.57Z"/>
          <path class="cls-25" d="M666.12,366.9l-87.75-.84-.04-23.12,279.63-.06,81.37.02h9.72s20.95-.04,20.95-.04l7.8-.79c1.07-.11,3.67.44,5.11.82l57.64-.03-.07,23.81-110,.04c-4.69-7.51-12.01-11.88-20.24-12.04-8.2-.17-15.95,4.14-20.33,12.02h-183.59c-4.65-7.64-12.04-11.95-20.25-12.16-8.28-.21-16.2,3.96-19.96,12.37Z"/>
          <path class="cls-4" d="M1051.54,315.17l1.53.05c1.01,5.53.98,11.96-.32,17.13l-2.01,1.13-482.92-.03-4.02-2.91.4-11.86c.02-.89,1.16-3.2,1.39-2.91l484.6.66,1.34-1.26Z"/>
          <path class="cls-25" d="M1040.07,393.59l.22,115.27-1.05,3.19-26.1-40.87c-5.71-8.95-13.56-15.58-23.02-20.4l-29.5-15.03c-7.68-3.91-11.83,4.36-23.71-15.1-4.19-6.87-9.17-11.39-17.39-12.73-.53-1.72.19-4.99,1.44-6.12l9.14-8.31,109.99.11Z"/>
          <path class="cls-32" d="M912.45,386.85l-203.31.11.02-13.72,203.48-.08c4.36,3.75,4.49,9.31-.19,13.69Z"/>
          <path class="cls-32" d="M688.24,386.82l-116.48.11c-1.52-4.44-1.4-8.67,0-13.68l116.55-.14c4,3.97,4.12,9.3-.08,13.71Z"/>
          <rect class="cls-32" x="933.14" y="373.19" width="115.38" height="13.74"/>
          <path class="cls-42" d="M1050.74,333.48c-2.55,1.43-6.03,3.41-9.37,3.39l-107.26-.65-74.02.09-151.14.07h-54.13s-73.89.53-73.89.53c-5.09.04-9.27-.7-13.1-3.47l482.92.03Z"/>
          <path class="cls-11" d="M934.11,336.23c.05,1.61,1.55,3.88,2.82,4.65l2.41,2.03-81.37-.02,2.12-6.56,74.02-.09Z"/>
          <polygon class="cls-11" points="970.01 342.86 949.06 342.9 953.7 336.99 963.11 338.92 971.04 340.89 970.01 342.86"/>
          <polygon class="cls-45" points="1053.08 315.22 1051.54 315.17 565.6 315.77 1051.23 314.19 1053.08 315.22"/>
          <g>
            <path class="cls-11" d="M1040.16,308.28l6.14.02,1.15.29c2.34-.22,6.15.13,8.46,1.56,2.02,1.24,4.19,5.35,4.18,7.97l-.09,12.13c-.01,1.84-1.8,5.24-3.06,6.47l-4.19-4.38c1.3-5.17,1.34-11.61.32-17.13l-1.84-1.03-485.64,1.58c-.23-.3-1.37,2.01-1.39,2.91l-.4,11.86c-.74-.39-1.02-2.29-1.3-4.52l-3.8,1.14-.61-10.09c.66-4.11,3.62-7.6,7.62-8.52l33.09.52c-5.47,2.95-11.52-2.59-16.87,3.93l229.76.13-.24-2.88-29.59-.1c-2.64,0-4.64.76-6.56-1.19l60.52-.05c.18-.04,1.51-1.38,1.14-1.51l-1.74-.58-.22-53.94c-3.97-2.58-6-5.9-5.93-10.52l.23-16.11c.07-4.98,3.96-10.29,9.84-10.28l170.95.02c6.2,0,10.48,4.9,10.51,10.56l.08,19.03c0,2.35-3.23,5.57-5.51,7.22l-.2,55.48h25.18ZM1013.96,245.74l.3-19.43c.03-1.82-2.89-3.92-5.13-3.92l-167.94.02c-2.93,0-5.7,2.14-5.6,4.91l.67,18.37,177.69.04ZM841.82,258.09l-.06,45.61c0,1.84,2.58,4.59,4.64,4.59l156.43.06c3.09,0,5.59-1.67,5.58-4.71l-.11-45.53-.16-5.8-57.27-.03c-.7,2.26-.71,4.94-.12,6.92,1,3.32-1.16,10.73-5.94,10.77l-36.16.32c-3.86.03-7.19-2.64-8.55-5.74l.4-12.28h-58.67s0,5.81,0,5.81ZM906.24,256.99c-.06,1.63.55,5.01,1.45,6.74l32.9.04c.7,0,2.56-.36,3.06-.75.67-.52,1.2-2.43,1.11-3.49l-.6-7.22h-37.74s-.18,4.68-.18,4.68Z"/>
            <path class="cls-31" d="M900.1,264.56c1.37,3.09,4.69,5.77,8.55,5.74l36.16-.32c4.78-.04,6.94-7.45,5.94-10.77l55.09-.57,2.46-.52.11,45.53c0,3.05-2.5,4.72-5.58,4.71l-156.43-.06c-2.06,0-4.65-2.75-4.64-4.59l.06-45.61,57.52.58c.06,2.64.23,4.7.75,5.88Z"/>
            <path class="cls-37" d="M1013.96,245.74l-177.69-.04-.67-18.37c-.1-2.78,2.67-4.91,5.6-4.91l167.94-.02c2.24,0,5.16,2.09,5.13,3.92l-.3,19.43Z"/>
            <path class="cls-38" d="M900.1,264.56c-.52-1.18-.69-3.25-.75-5.88l-57.52-.58v-5.8s58.67-.01,58.67-.01l-.4,12.28Z"/>
            <path class="cls-20" d="M1008.31,258.12l-2.46.52-55.09.57c-.6-1.98-.58-4.66.12-6.92l57.27.03.16,5.8Z"/>
            <polygon class="cls-8" points="944.76 259.53 942.48 258.11 906.24 256.99 906.42 252.31 944.16 252.31 944.76 259.53"/>
            <path class="cls-26" d="M944.76,259.53c.09,1.06-.44,2.98-1.11,3.49-.5.39-2.37.75-3.06.75l-32.9-.04c-.9-1.74-1.51-5.12-1.45-6.74l36.24,1.12,2.28,1.42Z"/>
          </g>
          <g>
            <path class="cls-45" d="M835.23,306.82l1.74.58c.37.12-.96,1.47-1.14,1.51l-60.52.05c1.93,1.96,3.93,1.18,6.56,1.19l29.59.1.24,2.88-229.76-.13c5.35-6.52,11.4-.98,16.87-3.93l-33.09-.52c1.9-.44,4.52-.77,6.44-.76l5.54.02,20.49.09c-3.74-7.98-2.81-16.76,2.64-23.29-2.98-4.14-4.36-8.69-4.22-13.77.27-9.36,6.66-16.17,16.31-16.65,49.22-2.47,98.1-2.46,147.31-.04,10.06.49,16.65,7.26,17.08,17,.21,4.85-1.35,9.25-4.28,13.5,5.04,6.79,6.16,15.47,2.19,23.21h59.36s.65-1.04.65-1.04ZM608.2,281.94l.12,5.97c-2.64.01-5.18,3.99-5.7,6.95-.82,4.64-.03,10.13,3.73,12.96l61.32.06,3.54,1.02-64.5.02-.61,1.03,155.48.06c5.06,0,7.65-1.19,9.01-5.43,1.82-5.68.93-14.89-4.33-16.95-.92-1.94-.24-4.48.67-5.35,2.27-2.14,4.56-7.33,4.11-11.14-.89-7.54-5.32-10.71-12.63-10.95-48.07-1.55-95.56-1.5-143.64.03-6.96.22-11.24,3.74-11.76,10.9-.28,3.85,1.38,10.36,5.18,10.82Z"/>
            <path class="cls-17" d="M766.93,282.27l-85.55.7-26.69-1.6-46.49.56c-3.8-.47-5.46-6.97-5.18-10.82.51-7.16,4.79-10.68,11.76-10.9,48.07-1.53,95.57-1.58,143.64-.03,7.31.24,11.74,3.41,12.63,10.95.45,3.81-1.84,9-4.11,11.14Z"/>
            <path class="cls-17" d="M770.59,304.57l-4.07,3.25-88.31.09-7.01.98-3.54-1.02-61.32-.06c-3.76-2.83-4.55-8.32-3.73-12.96.52-2.96,3.06-6.94,5.7-6.95l47.72-.18,21.9.49,88.32-.59c5.26,2.06,6.15,11.27,4.33,16.95Z"/>
            <path class="cls-31" d="M766.93,282.27c-.92.87-1.59,3.41-.67,5.35l-88.32.59-21.9-.49c.16-1.05.19-3.16,1.1-3.46l4.41-1.46-6.86-1.44,26.69,1.6,85.55-.7Z"/>
            <path class="cls-22" d="M654.69,281.38l6.86,1.44-4.41,1.46c-.91.3-.94,2.41-1.1,3.46l-47.72.18-.12-5.97,46.49-.56Z"/>
            <path class="cls-11" d="M671.21,308.9l7.01-.98,88.31-.09,4.07-3.25c-1.36,4.24-3.95,5.44-9.01,5.43l-155.48-.06.61-1.03,64.5-.02Z"/>
          </g>
          <path class="cls-11" d="M1041,684.99v-66.99s2.63.64,2.63.64c.55.13,1.35-.86,2.62-2.1l.05,68.86-5.3-.41Z"/>
          <path class="cls-45" d="M858.89,741.61l9.11-.06-3.13,3.78,5.02,1.69-15.53,1.39c-2.31.21-6.38,1.5-8.01,2.87l1.01-7.57c3.47-1.31,7.83-2.08,11.53-2.1Z"/>
          <polygon class="cls-21" points="1051.54 315.17 1050.2 316.43 565.6 315.77 1051.54 315.17"/>
          <g>
            <path class="cls-37" d="M657.38,759.44c-.95,3.96,1.76,10.79,6.94,10.81l34,.14c4.13.02,6.71-4.69,7.45-7.39.24-.86,1.21-2.63,1.76-3.6l49.97.04,3.37-.96v54.02c-.31,1.21-2.36,3.97-3.59,3.97h-150.84c-2.31-.49-4.21-2.01-4.51-3.57l.04-53.5,55.43.04Z"/>
            <rect class="cls-9" x="595.45" y="724.02" width="170.63" height="22.09" transform="translate(-1.77 1.64) rotate(-.14)"/>
            <path class="cls-38" d="M657.38,759.44l-55.43-.04-.04,53.5-1.11-2.46.26-57.43,56.23-.06c.9,1.66.81,4.72.09,6.48Z"/>
            <path class="cls-38" d="M760.87,758.48l-3.37.96-49.97-.04c-.55.97-1.53,2.74-1.76,3.6l-.94-9.99,55.82-.04.21,5.51Z"/>
            <path class="cls-26" d="M699.39,758.61l.08,3.75c.02.74-2.64,1.59-3.21,1.72l-28.96.12c-2.28-.11-4.24-2.66-4.02-4.79.26-.76,2.89-2.04,4.26-2l31.85,1.19Z"/>
            <path class="cls-5" d="M699.39,758.61l-31.85-1.19c-1.37-.04-4.01,1.23-4.26,2l.68-6.55,35.12.19.31,5.55Z"/>
          </g>
        </g>
        <g>
          <path class="cls-17" d="M925.08,785.33l80.25-.14c6.81,3.12,6.41,13.79,5.41,23.56-.26,2.53-3.77,7.67-6.98,7.67h-154.04c-11.18-.01-10.86-31.23-1.91-31.21l77.26.12Z"/>
          <path class="cls-17" d="M1004.94,779l-82.41-.22-75.3-.11c-2.44-1.69-5.12-5.23-5.08-8.45l.13-11.48c.03-2.24,2.54-6.16,4.08-7.46,1.63-1.38,5.7-2.67,8.01-2.87l15.53-1.39,16.86-.2c1.06-.01,3.39-.45,4.16-.69,35.04-.54,70.11-.66,105.56,1.93,8.75.07,13.98,6.02,14.38,14.3.31,6.4-.58,13.12-5.91,16.65Z"/>
          <polygon class="cls-4" points="1004.94 779 1005.32 785.18 925.08 785.33 924.46 779.69 848.7 779.7 847.23 778.68 922.53 778.79 1004.94 779"/>
          <polygon class="cls-38" points="925.08 785.33 847.82 785.2 848.7 779.7 924.46 779.69 925.08 785.33"/>
          <path class="cls-2" d="M879.99,740.32l1.82,5.4,9.11.41c-.77.23-3.1.67-4.16.69l-16.86.2-5.02-1.69,3.13-3.78-9.11.06c-.33-.39,1.81-.88,2.34-.89l18.76-.39Z"/>
        </g>
        <g>
          <path class="cls-16" d="M852.82,445.87c7.26,20.16,23.64,35.17,44.79,39.07,28.58,5.27,55.63-8.91,67.02-35.64l2.48-2.97,24.36,12.66c7.22,3.75,12.55,10.12,16.9,16.96l27.82,43.74c-10.54,10.48-22.14,19.58-35.19,27.57l-7.07-16.01-1.76,4.97-.58-9.56-.91-18.01c-.05-1.05-2.19-2.93-3.06-2.59-.66.25-2.35,1.97-2.34,2.73l.16,17.06.14,11.1,7.16,137.45c.14,2.68-.8,5.5-3.67,5.85l-43.32,5.16c-28.51,1.65-56.36,1.28-84.77-.51l-36.77-4.79c-2.03-.26-3.5-2.82-3.37-5.2l7.97-142.63-.19-6.09.29-17.42c.02-.96-2.35-3.04-3.15-2.63-.6.32-2.37,1.9-2.41,2.71l-.86,17.93-.4,5.76c-1.07-.5-2.88,1.36-3.45,2.53l-5.76,11.17c-11.79-7.59-22.7-16.39-32.25-27l26.75-41.88c4.03-6.31,8.45-13.26,15.14-16.55l30.3-14.9Z"/>
          <path class="cls-17" d="M961.92,443.58c-4.93,10.51-11.03,20.72-21.11,27.34-22.21,14.57-50.67,12.63-69.85-5.75-6.36-6.09-10.22-14.04-12.72-21.97l6.12-3.1c5.35,19.12,21.52,31.5,41.13,33,22.98,1.76,42.55-11.16,49.65-33.17l6.78,3.66Z"/>
          <path class="cls-21" d="M961.92,443.58l5.19,2.74-2.48,2.97c-11.39,26.73-38.43,40.92-67.02,35.64-21.15-3.9-37.53-18.9-44.79-39.07l5.42-2.68c2.5,7.93,6.37,15.88,12.72,21.97,19.18,18.38,47.63,20.32,69.85,5.75,10.09-6.62,16.18-16.82,21.11-27.34Z"/>
          <path class="cls-33" d="M915.67,413.16c6.79,1.63,11.93,3.8,15.35,10.07,4.1,7.52,10.05,12.85,17.44,17.59l-3.97,7.78-32.7-17.95,1.17-15.61c.04-.65,2.15-2.12,2.71-1.88Z"/>
          <path class="cls-22" d="M905.9,412.94l.49,3.84,1.13,14.02-32.53,17.96c-1.71-2.86-2.91-5.55-3.7-8.31,7.83-4.89,13.55-10.35,17.87-17.72,3.94-6.72,9.61-8.48,16.73-9.8Z"/>
          <path class="cls-39" d="M1039.76,525.41l-2.88,1.52c-10.7,9.65-22.16,18.16-33.95,25.7,1.95,2.88,3.03,5.56,3.02,8.52l-7.26,3.69-5.24-5.3-1.28-23.34,1.76-4.97,7.07,16.01c13.05-7.99,24.65-17.09,35.19-27.57l3.56,5.73Z"/>
          <path class="cls-17" d="M809.15,560.91c-13.84-7.61-25.63-16.56-36.76-28.02l5.14-8.56c10.75,10.7,22.02,19.95,34.98,27.99l-3.36,8.59Z"/>
          <path class="cls-17" d="M1039.76,525.41l4.49,7.18c-11.41,11.39-23.98,21.29-38.3,28.57.01-2.97-1.07-5.64-3.02-8.52,11.79-7.55,23.25-16.06,33.95-25.7l2.88-1.52Z"/>
          <path class="cls-21" d="M940.72,453.05c-16.44,18.27-45.86,19.05-62.51-.05,21.29,5.3,42.03,5.97,62.51.05Z"/>
          <path class="cls-9" d="M909.39,406.83c-3.99-14.94,15.68-14.52,12.09-30.52-1.16-5.16-6.24-10.42-12.66-10.03l-11.59.72c5.07-7.48,14.52-8.26,21.71-3.78,5.96,3.71,8.75,9.6,8.87,16.09.29,15.61-15.7,16.1-14.25,28.2l-4.17-.68Z"/>
          <path class="cls-39" d="M812.87,546.21l8.27,4.43-.44,8.85c-.07,1.36-2.76,4.65-4.07,4.42-2.11-.37-5.5-1.9-7.47-2.98l3.36-8.59c-12.96-8.04-24.23-17.29-34.98-27.99l3.09-5.12c9.55,10.61,20.46,19.41,32.25,27Z"/>
          <path class="cls-25" d="M931.6,448.64c-14.78,3.27-28.63,3.14-43.33-.13l21.56-11.94,21.77,12.07Z"/>
          <path class="cls-9" d="M991.59,526.64l-6.16-.81-.16-17.06c0-.76,1.69-2.48,2.34-2.73.87-.33,3.01,1.54,3.06,2.59l.91,18.01Z"/>
          <path class="cls-25" d="M915.67,413.16c-.55-.24-2.67,1.23-2.71,1.88l-1.17,15.61c-1-.55-3.12-.47-4.26.16l-1.13-14.02-.49-3.84c3.37-.62,6.36-.6,9.76.22Z"/>
          <path class="cls-4" d="M828.61,526.16l-6.13.59.86-17.93c.04-.8,1.8-2.39,2.41-2.71.8-.42,3.16,1.67,3.15,2.63l-.29,17.42Z"/>
          <path class="cls-44" d="M822.08,532.51l-.94,18.13-8.27-4.43,5.76-11.17c.56-1.17,2.37-3.03,3.45-2.53Z"/>
        </g>
        <g>
          <path class="cls-16" d="M756.41,660.47c.2,1.94.26,4.25-.32,4.92s-2.26,1.38-3.52,1.63c-27.79,5.5-55.49,6.73-83.95,5.53-18.22-.76-35.38-2.33-53.18-6.79l7.37-64.94,2.07-29.57-3.19-41.36c9.81-12.28,15.04-26.33,15.44-42.26l-1.72-43.43c1.5-1.33,4.35-2.44,6.46-2.79,1.74,14.88,2.45,29.17,6.17,43.54,4.93,19.04,21.31,30.73,40.12,30.15,18.45-.57,33.69-13.77,37.58-32.8l5.32-41.34,6.44,2.45c-1.8,31.72-6.52,60.51,13.66,86.48-.81,16.43-3.74,31.55-3.04,47.79,1.2,27.88,5.33,54.58,8.31,82.79Z"/>
          <path class="cls-25" d="M721.85,463.49c-1.17,23.91-9.89,45.17-35.24,45.13-25.39-.04-34.26-21.03-35.91-45.31l71.15.18Z"/>
          <polygon class="cls-25" points="717.86 455.9 655.32 455.73 685.74 437.5 717.86 455.9"/>
          <path class="cls-34" d="M688.25,431.73l.44-18.2,8.85,2.15c8.92,2.17,9.65,18.98,26.94,25.85l-.98,9.7-35.25-19.5Z"/>
          <path class="cls-34" d="M681.41,414.46c.57.1,1.23,2.45,1.27,3.32l.95,13.68-34.41,20.03-.84-10.2c18.28-9.05,16.9-27.82,33.02-26.82Z"/>
          <path class="cls-31" d="M684.85,407.85c-4.27-15.88,16.13-15.81,12.21-31.54-1.22-4.89-6.11-10.3-12.49-10.04l-11.21.45c5.75-8.01,15.23-7.63,21.93-3.04,5.7,3.9,8.17,10.05,8.13,16.6-.09,15.13-16.68,15.66-14.11,27.63l-4.46-.06Z"/>
          <path class="cls-28" d="M688.69,413.53l-.44,18.2-4.61-.28-.95-13.68c-.04-.87-.7-3.22-1.27-3.32l5.3-3.05,1.98,2.12Z"/>
          <path class="cls-33" d="M749.7,453.7c.37,1.3-.76,4.6-1.91,4.92s-3.71-.03-4.85-.43l.39-9.9c3.09.8,5.52,2.4,6.38,5.4Z"/>
          <path class="cls-34" d="M629.41,448.31l.82,10.06-5.13.28c-1.49.08-2.93-4.39-2.13-5.76,1.31-2.24,3.83-3.58,6.45-4.58Z"/>
        </g>
        <g>
          <path class="cls-23" d="M1014.65,823.09l43.4.05,3.21,1.64-.28,47.38-1.82-6.86-2.75,11.47,4.93,6.6-6.8-.92c-.82,2.32-1.49,7.56.1,9.27,2.19,2.35,6.93.93,8.95-.58l-.65-4.72,13.04,13.72v32.98c-1.04.24-2.04,2.71-2.12,3.98l-1.25,18.04c-.31,4.52-.89,8.28.95,12.34l-1.65,2.14c-.16.21.13.31.49,1.35l-41.02.24-10.54.08-.58-2.39c-.26-2.58,6.68-.2,8.58-3.02,4.06-6.03-4.96-8.89.47-16.96l12.39-.7c3.97-.22,6.61-6.35,6.61-9.84l1.16-1.11v-60.02c10.51,1.45.99-10.14,4.14-27.87.37-2.07-5.47-2.58-6.47-1.11-1.83-2.34-5.3-5.08-9.67-5.08h-445.77s-14.8,1.27-14.8,1.27l14.47,5.04,443.57.03c1.62,0,3.31-1.7,4.91-3.55,1.09-1.26,5.2.59,5.46,2.22.32,2.02-1.02,4.6-2.34,6.57-1.02,1.53-.86,5.37-.31,7.22l-1.64.21-.4-1.56c.56-3.12.71-6.33.02-10.08h-450.04c-5.25,0-9.98-2.42-12.91,1.78l-1.4.12c-1.91-1.74-3.02-2.74-5.97-4.13l-.17,28.58-.08,59.41c0,2.47.8,5.56,1.42,7.35l4.95-4.02c1.36,1.26,2.81,1.77,5.67,1.92h453.25s1.54,1.08,1.54,1.08l-3.28.8-2.19-.83h-103.64s-342.3.02-342.3.02h-6.27s-.17,6.14-.17,6.14c-1.62-.06-4.01-1.55-6.62-2.84l.42,7.99c-2.47,3.21-6.38,4.94-10.07,3.38-9.02-3.82-5.58-15.52-11.8-15.33-1.95.06-4,3.98-5.02,6.01l-.11-43.4-1.05-1.15c.16-.78.94-2.81,1.59-3.76l9.97-14.39,6.55-15.67c.4-.95-.26-3.65-1.13-3.85l-3.61-.83-1.66,5.07-.07-46.13c1.51-.44,3.91-.77,6.64-.77h451.55Z"/>
          <path class="cls-32" d="M579.06,948.77l35.69-.25,322.4.22,83.67.12,8.49.05c-5.43,8.07,3.59,10.93-.47,16.96-1.9,2.82-8.84.44-8.58,3.02l.58,2.39-468.36.06c-4.48,0-7-1.82-7.66-5.34l-.02-62.58,1.05,1.15.11,43.4c1.02-2.04,3.07-5.95,5.02-6.01,6.22-.19,2.78,11.51,11.8,15.33,3.69,1.56,7.6-.17,10.07-3.38l-.42-7.99c2.61,1.29,5,2.78,6.62,2.84Z"/>
          <path class="cls-28" d="M544.81,903.42l.02,62.58-1.09-1.26.08-59.11.36-21.37c.02-1.35,1.38-3.92,2.67-4.08,5.22-.65,9.87-5.02,8.57-10.64l-.04-43.39c.16-.66.6-2.13,1.08-2.27l.07,46.13,1.66-5.07,3.61.83c.87.2,1.52,2.9,1.13,3.85l-6.55,15.67-9.97,14.39c-.66.95-1.44,2.98-1.59,3.76Z"/>
          <path class="cls-43" d="M1062.23,826.17l-.08,45.61c0,3.47,3.31,6.91,6.74,7.94l6.39,1.41.71,19-13.04-13.72c-.12-.9-1.05-2.31-1.6-3.05l-4.93-6.6,2.75-11.47,1.82,6.86.28-47.38.97,1.39Z"/>
          <path class="cls-32" d="M1072.41,970.96c-.36-1.04-.65-1.14-.49-1.35l1.65-2.14c-1.84-4.06-1.26-7.82-.95-12.34l1.25-18.04c.09-1.27,1.08-3.74,2.11-3.98v31.83c-.01,1.59-2.1,4.47-3.56,6.02Z"/>
          <path class="cls-29" d="M1040.63,860.64l.4,1.56-.05,46.62.87,2.15-.13,27.44c-.01,2.33-2.59,4.32-4.79,4.22l-1.54-1.09h-453.25c-2.86-.14-4.31-.65-5.67-1.91l.14-61.63-.29-25.56,1.4-.12v6.52s5.62-3.29,5.62-3.29l455.37-.11,1.94,5.18ZM823.79,897.17c0-9.24-7.49-16.74-16.74-16.74s-16.74,7.49-16.74,16.74,7.49,16.74,16.74,16.74,16.74-7.49,16.74-16.74Z"/>
          <path class="cls-31" d="M1040.63,860.64l-1.94-5.18-455.37.11-5.62,3.29v-6.52c2.93-4.2,7.65-1.78,12.91-1.78h450.04c.69,3.75.54,6.96-.02,10.08Z"/>
          <polygon class="cls-45" points="1034.94 849.52 591.37 849.5 596.13 846.32 588.14 844.26 787.4 844.21 782.6 848.25 796.4 848.39 796.22 845.9 790.9 844.24 1039.24 844.24 1032.33 848.11 1034.94 849.52"/>
          <path class="cls-13" d="M927.8,942.61c-.1.17.84.79,1.1,1l12.99.27-6.03,4.01,85.37-.02-5.9-4.1,18.31-.34-1.94,3.95c-2.9.13-7.72.52-10.87,1.48l-83.67-.12-322.4-.22-23.33-.94-5.92-4.96,342.3-.02Z"/>
          <path class="cls-6" d="M1047.14,848.26l1.11,2.22-.89,21.91c-.32.37-1.32-.67-1.48-1.12l-3.21-9.28c-.55-1.85-.72-5.68.31-7.22,1.32-1.97,2.66-4.55,2.34-6.57-.26-1.64-4.37-3.48-5.46-2.22-1.6,1.85-3.29,3.55-4.91,3.55l-2.61-1.42,6.92-3.87h-248.34s5.32,1.67,5.32,1.67l.18,2.49-13.8-.14,4.8-4.04-199.26.05,7.99,2.06-4.76,3.18-14.47-5.04,14.8-1.28h445.77c4.37,0,7.84,2.75,9.67,5.09Z"/>
          <path class="cls-45" d="M1033.64,943.44l-18.31.34,5.9,4.1-85.37.02,6.03-4.01-12.99-.27c-.26-.21-1.2-.83-1.1-1h103.64s2.19.83,2.19.83Z"/>
          <path class="cls-11" d="M576.59,878.01l-.14,61.63-4.95,4.02c-.61-1.79-1.42-4.89-1.42-7.35l.08-59.41,6.42,1.11Z"/>
          <path class="cls-32" d="M1048.31,938.38l-.06-87.9-1.11-2.22c1-1.47,6.84-.96,6.47,1.11-3.15,17.73,6.37,29.32-4.15,27.87v60.02s-1.15,1.11-1.15,1.11Z"/>
          <path class="cls-5" d="M1048.31,938.38c0,3.49-2.63,9.62-6.61,9.84l-12.39.7-8.49-.05c3.16-.96,7.97-1.35,10.87-1.48l1.94-3.95,3.28-.8c2.21.1,4.78-1.9,4.79-4.22l5.63.98.02-67.01.89-21.91.06,87.9Z"/>
          <path class="cls-27" d="M576.3,852.45l.29,25.56-6.42-1.11.17-28.58c2.95,1.4,4.06,2.39,5.97,4.13Z"/>
          <polygon class="cls-35" points="585.5 942.63 591.42 947.59 614.75 948.52 579.06 948.77 579.23 942.63 585.5 942.63"/>
          <path class="cls-32" d="M1061.34,883.36c.55.74,1.48,2.14,1.6,3.05l.65,4.72c-2.02,1.51-6.76,2.93-8.95.58-1.59-1.7-.91-6.95-.1-9.27l6.8.92Z"/>
          <polygon class="cls-5" points="1041.84 910.97 1040.97 908.82 1041.02 862.2 1042.67 861.99 1041.84 910.97"/>
          <path class="cls-11" d="M1062.15,871.78l.08-45.61c.81.15,2.49.95,2.26,1.72l-1.2,4.1-.1,38.65-1.05,1.14Z"/>
          <path class="cls-11" d="M823.79,897.17c0,9.24-7.49,16.74-16.74,16.74s-16.74-7.49-16.74-16.74,7.49-16.74,16.74-16.74,16.74,7.49,16.74,16.74ZM817.37,897.1c0-5.72-4.64-10.35-10.35-10.35s-10.35,4.64-10.35,10.35,4.64,10.35,10.35,10.35,10.35-4.64,10.35-10.35Z"/>
          <path class="cls-13" d="M1047.35,872.38l-.02,67.01-5.63-.98.13-27.44.83-48.99,3.21,9.28c.16.45,1.16,1.49,1.48,1.12Z"/>
          <circle class="cls-46" cx="807.01" cy="897.1" r="10.35"/>
        </g>
      </g>
    </g>
  </g>
</svg>