<?xml version="1.0" encoding="UTF-8"?>
<svg id="personajes" xmlns="http://www.w3.org/2000/svg" xmlns:xlink="http://www.w3.org/1999/xlink" viewBox="0 0 1619.16 1080.92">
  <defs>
    <style>
      .cls-1 {
        fill: url(#Degradado_sin_nombre_50);
      }
    </style>
    <radialGradient id="Degradado_sin_nombre_50" data-name="Degradado sin nombre 50" cx="808.16" cy="538.68" fx="808.16" fy="538.68" r="686.76" gradientUnits="userSpaceOnUse">
      <stop offset="0" stop-color="#e20613"/>
      <stop offset=".18" stop-color="#e5121f"/>
      <stop offset=".51" stop-color="#ee323f"/>
      <stop offset=".94" stop-color="#fc6674"/>
      <stop offset="1" stop-color="#ff6e7c"/>
    </radialGradient>
  </defs>
  <path class="cls-1" d="M1616,423.99c-3.85,25.59-42.67,32.52-65.85,25.58l-104.6-31.31c-4.6-1.37-18.92,2.22-21.85,5.67-2.93,3.43-.44,16.95,3.18,20.36l59.29,55.62c25.85,24.25,33.2,56.22,14.47,85.53-38.73,60.6-45.32,128.56-24.06,198.11,5.01,16.43-3,49.39-20.42,51.99-15.55,2.32-27.47-25.5-25.39-39.31l11.38-75.84c7.77-51.82-21.93-98.96-70.74-117.6-11.46-4.37-33.26-1.61-42.59,4.99-34.96,24.71,7.31,73.99-41.57,140.88-37.95,51.92-49.11,115.9-27.49,177.51,5.88,16.76-4.58,44.88-23.72,38.92-32.13-10.01,17.33-91.48-16.18-185.21-4.37-12.25-30.64-27.32-39.78-15.56-68.35,88.03-49.12,202.53-25.84,313.03h-67.3c19.02-94.61,31.65-195.55-14.44-267.11-11.77-18.28-33.13-32.11-50.62-33.32-58.43-4.01-89.15,73.9-91.45,134.37l-6.32,166.06h-52.51l-9.05-213.87c-.98-23.26-9.37-42.48-28.14-57.79l-8.77,98.59c-.99,11.04-16.01,28.04-25.78,29.2-9.77,1.16-29.63-15.85-28.96-27.01l6.33-105.6c1.09-18.13-4.47-43.45-16.14-53.28-15.92-13.4-43.08-10.56-60.26,1.45-42.54,29.71-49.4,80.54-36.02,129.64,20.61,75.67,45.41,180.86-19.71,178.03-59.06-2.58-31.72-101.77-12.13-176.75,19.65-75.14-18.09-150.53-95.8-164.28-32.36-5.74-63.37,10.24-73.81,43.38-24.53,77.9,25.97,140.02-13.36,287.21-2.79,10.44-4.91,20.81-6.46,31.1h-25.84c-1.61-7.18-3.55-14.21-5.83-21.02-24.74-74.03-31.33-145.69-23.63-224.08,7.39-75.21-26.9-142.54-90.35-144.66-31.56-1.05-67.85,12.07-83.75,44.18-22.47,45.37,19.63,97.41,6.45,160.58-1.68,8.08-18.3,19.96-26.48,20.03-30.77.24-28.49-56.96-14.56-109.75,9.84-37.3,5.09-76.26-17.29-107.59-53.9-75.41,55.03-100.64,41.63-179.31-4.41-25.89-27.15-52.91-57.48-64.74-62.95-24.54-137.09-4.15-145.85-67.59-3.72-26.91,10.52-60.63,43.69-64.54,65.41-7.7,123.78,85.56,202.47,36.56,11.68-7.28,26.15-29.03,28.08-41.55,2.28-14.66-6.37-34.76-16.51-48.38l-39.32-52.83c-3.99-5.35-4.3-23.47-.34-28.25,19.27-23.31,56.86-9.18,90.87,17.28l76.35,59.43c35.26,27.44,90.68,24.7,121.03-8.5,24.23-26.51,21.54-64.82,17.52-98.9l-9.21-78.06c-1.22-10.39,12.81-29.06,22.05-32.78,56.41-22.66,93.57,101.59,172.7,140.67,60.33,29.79,124.94-1.35,145.72-64.12C872.99,67.17,893.31.26,935.7,0c13.1-.07,37.95,12.13,44.52,24.2l52.93,97.41c5.51,10.15,26.09,24.46,36.92,27.69,11.91,3.55,38.31-3.92,48.03-13.22l86.24-82.67c14.69-14.07,49.25-33.86,67.9-17.12,28.02,25.18-26.14,101.19,29.2,153.12,23.77,22.32,58.16,23.26,88.95,13.25,74.7-24.3,186.95-70.94,212.01-24.76,6.73,12.39.73,41.13-13.56,51.27-66.25,46.96-130.54,49.94-162.95,109.3-5.97,10.92-5.6,35.91,1.39,44.39,7,8.47,30.07,18.57,41.74,16.59l89.29-15.14c23.52-3.98,61.84,12.15,57.7,39.68Z"/>
</svg>